<?xml version="1.0" encoding="UTF-8"?>
<svg width="130px" height="130px" viewBox="0 0 130 130" version="1.1" xmlns="http://www.w3.org/2000/svg" xmlns:xlink="http://www.w3.org/1999/xlink">
    <!-- Generator: Sketch 63.1 (92452) - https://sketch.com -->
    <title>developing_placeholder</title>
    <desc>Created with Sketch.</desc>
    <g id="developing_placeholder" stroke="none" stroke-width="1" fill="none" fill-rule="evenodd">
        <g id="cone" transform="translate(5.000000, 1.000000)">
            <path d="M106.605091,127.679548 L11.0934149,127.679548 C8.83282365,127.679548 7,125.857856 7,123.610994 L7,123.068554 C7,120.821692 8.83282365,119 11.0934149,119 L106.60484,119 C108.865432,119 110.698255,120.821692 110.698255,123.068554 L110.698255,123.610994 C110.698255,125.858105 108.865683,127.679548 106.605091,127.679548 Z" id="Shape" fill="#ED1C24"></path>
            <path d="M12.7441618,117.036912 C10.4835705,117.036912 8.65074689,118.858604 8.65074689,121.105466 L8.65074689,121.647906 C8.65074689,123.894768 10.4835705,125.71646 12.7441618,125.71646 L42.0798838,125.71646 L42.0798838,117.036912 L12.7441618,117.036912 L12.7441618,117.036912 Z" id="Shape" fill="#C00C13"></path>
            <rect id="Rectangle-path" fill="#FD9D7E" x="85.7423071" y="117.036912" width="14.190388" height="8.67954776"></rect>
            <path d="M62.8233506,2.0342768 L58.1763983,2.0342768 C56.3267552,2.0342768 54.7070622,3.26711891 54.2245685,5.04165302 L23.9326452,116.494472 L97.0671037,116.494472 L66.7751805,5.04165302 C66.2929378,3.26711891 64.6729938,2.0342768 62.8233506,2.0342768 Z" id="Shape" fill="#ED1C24"></path>
            <polygon id="Shape" fill="#F2F2F2" points="47.5966805 29.4287719 44.0580581 42.4478441 76.9419419 42.4478441 73.4033195 29.4287719"></polygon>
            <polygon id="Shape" fill="#F2F2F2" points="27.5450726 103.20393 23.9326452 116.494472 97.0673548 116.494472 93.4549274 103.20393"></polygon>
            <polygon id="Shape" fill="#CCCCCC" points="25.5545975 110.527127 23.9326452 116.494472 97.0673548 116.494472 95.4454025 110.527127"></polygon>
            <path d="M114.805151,95.8807329 L6.19484855,95.8807329 C3.93425726,95.8807329 2.10143361,94.0590409 2.10143361,91.8121793 L2.10143361,53.297154 C2.10143361,51.0502924 3.93425726,49.2286004 6.19484855,49.2286004 L114.8049,49.2286004 C117.065492,49.2286004 118.898315,51.0502924 118.898315,53.297154 L118.898315,91.8121793 C118.898315,94.0590409 117.065743,95.8807329 114.805151,95.8807329 Z" id="Shape" fill="#F2F2F2"></path>
            <path d="M38,78.648 C39.424,77.928 40.448,76.888 41.072,75.544 C41.536,74.472 41.856,73.144 42.016,71.576 L46.16,71.576 L46.16,78.44 L47.84,78.44 L47.84,71.576 L51.152,71.576 L51.152,69.96 L47.84,69.96 L47.84,66.28 L50.352,66.28 L50.352,64.664 L37.68,64.664 L37.68,66.28 L40.448,66.28 L40.448,69.688 L40.432,69.96 L40.432,69.96 L36.864,69.96 L36.864,71.576 L40.32,71.576 C40.192,72.664 39.984,73.608 39.696,74.408 C39.248,75.528 38.384,76.472 37.088,77.224 L38,78.648 Z M46.16,69.96 L42.128,69.96 L42.144,69.688 L42.144,69.688 L42.144,66.28 L46.16,66.28 L46.16,69.96 Z M64.576,67.464 L65.76,66.264 C65.024,65.432 64.096,64.616 63.008,63.8 L61.872,64.888 C63.056,65.784 63.952,66.648 64.576,67.464 Z M56.864,78.776 C58.656,78.072 60.176,77.288 61.424,76.424 C62.72,77.24 64.32,77.992 66.224,78.696 L67.088,77.112 C65.44,76.568 64.016,75.976 62.816,75.32 C63.952,74.264 64.72,73.112 65.104,71.864 L65.104,70.456 L58.768,70.456 C58.912,70.008 59.056,69.56 59.216,69.08 L66.912,69.08 L66.912,67.496 L59.632,67.496 C59.904,66.408 60.128,65.256 60.32,64.024 L58.608,63.816 C58.432,65.096 58.192,66.328 57.904,67.496 L55.696,67.496 L56.496,64.6 L54.832,64.328 L53.552,69.08 L57.44,69.08 C56.352,72.36 54.736,74.952 52.576,76.872 L53.456,78.424 C55.168,77.032 56.592,75.176 57.728,72.872 C58.24,73.752 58.976,74.584 59.952,75.384 C58.864,76.04 57.536,76.648 55.984,77.208 L56.864,78.776 Z M61.344,74.424 C60.272,73.656 59.472,72.84 58.944,71.96 L63.408,71.96 C62.976,72.824 62.288,73.656 61.344,74.424 Z M76.864,78.792 L76.864,73.448 L80.864,73.448 L80.864,74.328 L82.544,74.328 L82.544,66.52 L76.864,66.52 L76.864,63.784 L75.136,63.784 L75.136,66.52 L69.472,66.52 L69.472,74.328 L71.152,74.328 L71.152,73.448 L75.136,73.448 L75.136,78.792 L76.864,78.792 Z M75.136,71.816 L71.152,71.816 L71.152,68.152 L75.136,68.152 L75.136,71.816 Z M80.864,71.816 L76.864,71.816 L76.864,68.152 L80.864,68.152 L80.864,71.816 Z" id="开发中" fill="#000000" fill-rule="nonzero"></path>
            <path d="M118.898315,53.297154 C118.898315,51.0502924 117.065492,49.2286004 114.8049,49.2286004 L6.19484855,49.2286004 C3.93425726,49.2286004 2.10143361,51.0502924 2.10143361,53.297154 L2.10143361,61.8409669 L118.898315,61.8409669 L118.898315,53.297154 Z" id="Shape" fill="#CCCCCC"></path>
            <path d="M2.10168465,83.4041014 L2.10168465,91.8121793 C2.10168465,94.0590409 3.9345083,95.8807329 6.19509959,95.8807329 L114.805151,95.8807329 C117.065743,95.8807329 118.898566,94.0590409 118.898566,91.8121793 L118.898566,83.4041014 L2.10168465,83.4041014 Z" id="Shape" fill="#CCCCCC"></path>
            <path d="M118.898315,53.297154 C118.898315,51.0502924 117.065492,49.2286004 114.8049,49.2286004 L6.19484855,49.2286004 C3.93425726,49.2286004 2.10143361,51.0502924 2.10143361,53.297154 L2.10143361,57.275384 L118.898315,57.275384 L118.898315,53.297154 Z" id="Shape" fill="#FFD500"></path>
            <polygon id="Shape" fill="#666666" points="101.86995 49.2286004 93.7742469 57.275384 106.124029 57.275384 114.219481 49.2286004"></polygon>
            <polygon id="Shape" fill="#666666" points="72.5216763 49.2286004 64.425722 57.275384 76.7755041 57.275384 84.8712075 49.2286004"></polygon>
            <polygon id="Shape" fill="#666666" points="43.1734025 49.2286004 35.0776992 57.275384 47.4272303 57.275384 55.5229336 49.2286004"></polygon>
            <polygon id="Shape" fill="#666666" points="13.8251286 49.2286004 5.72942531 57.275384 18.0789564 57.275384 26.1749108 49.2286004"></polygon>
            <path d="M2.10168465,91.8121793 C2.10168465,94.0590409 3.9345083,95.8807329 6.19509959,95.8807329 L114.805151,95.8807329 C117.065743,95.8807329 118.898566,94.0590409 118.898566,91.8121793 L118.898566,87.8339493 L2.10168465,87.8339493 L2.10168465,91.8121793 Z" id="Shape" fill="#F7D04A"></path>
            <polygon id="Shape" fill="#666666" points="19.1300498 95.8807329 27.2257531 87.8339493 14.875971 87.8339493 6.78051867 95.8807329"></polygon>
            <polygon id="Shape" fill="#666666" points="48.4783237 95.8807329 56.574278 87.8339493 44.2244959 87.8339493 36.1287925 95.8807329"></polygon>
            <polygon id="Shape" fill="#666666" points="77.8265975 95.8807329 85.9225519 87.8339493 73.5727697 87.8339493 65.4770664 95.8807329"></polygon>
            <polygon id="Shape" fill="#666666" points="107.174871 95.8807329 115.270575 87.8339493 102.921044 87.8339493 94.8250892 95.8807329"></polygon>
            <path d="M114.805151,47.1943236 L97.4301037,47.1943236 L73.0747116,20.4193684 L68.7508444,4.51118908 C68.029112,1.85487719 65.5915394,0 62.8236017,0 L58.1766494,0 C55.4084606,0 52.97139,1.85487719 52.2491556,4.51118908 L47.9252884,20.4196179 L23.5698963,47.1943236 L6.19484855,47.1943236 C2.80935892,47.1943236 0.0547261411,49.9319766 0.0547261411,53.297154 L0.0547261411,61.7054815 C0.0547261411,62.829037 0.970761411,63.7397583 2.10143361,63.7397583 C3.23210581,63.7397583 4.14814108,62.829037 4.14814108,61.7054815 L4.14814108,59.3096608 L116.851608,59.3096608 L116.851608,85.8001715 L4.14814108,85.8001715 L4.14814108,72.5547914 C4.14814108,71.4312359 3.23210581,70.5205146 2.10143361,70.5205146 C0.970761411,70.5205146 0.0547261411,71.4312359 0.0547261411,72.5547914 L0.0547261411,91.8121793 C0.0547261411,95.1773567 2.80935892,97.9150097 6.19484855,97.9150097 L26.8625021,97.9150097 L22.2183112,115.002635 L12.7441618,115.002635 C9.3586722,115.002635 6.60403942,117.740288 6.60403942,121.105466 L6.60403942,121.647906 C6.60403942,125.013084 9.3586722,127.750737 12.7441618,127.750737 L81.2394502,127.750737 C82.3701224,127.750737 83.2861577,126.840016 83.2861577,125.71646 C83.2861577,124.592904 82.3701224,123.682183 81.2394502,123.682183 L12.7441618,123.682183 C11.6154979,123.682183 10.6974544,122.769715 10.6974544,121.647906 L10.6974544,121.105466 C10.6974544,119.983657 11.6154979,119.071189 12.7441618,119.071189 L108.255587,119.071189 C109.384251,119.071189 110.302295,119.983657 110.302295,121.105466 L110.302295,121.647906 C110.302295,122.769715 109.384251,123.682183 108.255587,123.682183 L92.155056,123.682183 C91.0243838,123.682183 90.1083485,124.592904 90.1083485,125.71646 C90.1083485,126.840016 91.0243838,127.750737 92.155056,127.750737 L108.255587,127.750737 C111.641077,127.750737 114.39571,125.013084 114.39571,121.647906 L114.39571,121.105466 C114.39571,117.740288 111.641077,115.002635 108.255587,115.002635 L98.7816888,115.002635 L94.1374979,97.9150097 L114.805151,97.9150097 C118.190641,97.9150097 120.945274,95.1773567 120.945274,91.8121793 L120.945274,53.297154 C120.945023,49.9319766 118.190641,47.1943236 114.805151,47.1943236 Z M81.7169232,55.2411072 L85.7194627,51.2628772 L96.9290332,51.2628772 L92.9264938,55.2411072 L81.7169232,55.2411072 L81.7169232,55.2411072 Z M52.3683983,55.2411072 L56.3709378,51.2628772 L67.5805083,51.2628772 L63.5782199,55.2411072 L52.3683983,55.2411072 L52.3683983,55.2411072 Z M44.8879876,47.1943236 L45.6252842,44.4821209 L75.3752178,44.4821209 L76.1125145,47.1943236 L44.8879876,47.1943236 Z M23.0201245,55.2411072 L27.0226639,51.2628772 L38.2322344,51.2628772 L34.229695,55.2411072 L23.0201245,55.2411072 L23.0201245,55.2411072 Z M49.1639066,31.4630487 L71.8360934,31.4630487 L74.2688963,40.4138168 L46.7311037,40.4138168 L49.1639066,31.4630487 Z M70.7305249,27.3944951 L50.2692241,27.3944951 L51.6203071,22.4237037 L60.5,12.6620195 L69.3794419,22.4237037 L70.7305249,27.3944951 Z M91.9118008,47.1943236 L80.3522842,47.1943236 L75.4264295,29.0707212 L91.9118008,47.1943236 Z M56.2007344,5.57211696 C56.4414793,4.686846 57.2538361,4.06830409 58.1763983,4.06830409 L62.8233506,4.06830409 C63.7459129,4.06830409 64.5582697,4.68659649 64.7990145,5.57211696 L67.0277241,13.7721014 L62.0180228,8.26435867 C61.2177158,7.38432749 59.7820332,7.38432749 58.9814751,8.26435867 L53.9717739,13.7718519 L56.2007344,5.57211696 Z M40.6477158,47.1943236 L29.0881992,47.1943236 L45.5738216,29.0707212 L40.6477158,47.1943236 Z M6.19484855,51.2628772 L8.88396058,51.2628772 L4.88142116,55.2411072 L4.14814108,55.2411072 L4.14814108,53.297154 C4.14814108,52.175345 5.06618465,51.2628772 6.19484855,51.2628772 Z M10.6703423,55.2411072 L14.6728817,51.2628772 L21.2337427,51.2628772 L17.2312033,55.2411072 L10.6703423,55.2411072 L10.6703423,55.2411072 Z M40.0186162,55.2411072 L44.0211556,51.2628772 L50.5820166,51.2628772 L46.5797282,55.2411072 L40.0186162,55.2411072 L40.0186162,55.2411072 Z M69.3671411,55.2411072 L73.3694295,51.2628772 L79.9302905,51.2628772 L75.927751,55.2411072 L69.3671411,55.2411072 L69.3671411,55.2411072 Z M98.7151639,55.2411072 L102.717703,51.2628772 L109.278564,51.2628772 L105.276025,55.2411072 L98.7151639,55.2411072 L98.7151639,55.2411072 Z M111.065197,55.2411072 L115.051419,51.2790955 C116.064104,51.4006082 116.851859,52.2581832 116.851859,53.297154 L116.851859,55.2411072 L111.065197,55.2411072 L111.065197,55.2411072 Z M82.7677656,93.8464561 L86.770305,89.8682261 L97.9798755,89.8682261 L93.9773361,93.8464561 L82.7677656,93.8464561 Z M80.9813838,89.8682261 L76.9788444,93.8464561 L70.4179834,93.8464561 L74.4202718,89.8682261 L80.9813838,89.8682261 Z M53.4194917,93.8464561 L57.4217801,89.8682261 L68.6313506,89.8682261 L64.6290622,93.8464561 L53.4194917,93.8464561 Z M51.63311,89.8682261 L47.6308216,93.8464561 L41.0697095,93.8464561 L45.072249,89.8682261 L51.63311,89.8682261 Z M24.0714689,93.8464561 L28.0740083,89.8682261 L39.2835788,89.8682261 L35.2807884,93.8464561 L24.0714689,93.8464561 Z M4.14814108,89.8682261 L9.9348029,89.8682261 L5.94858091,93.8302378 C4.93589627,93.7089747 4.14814108,92.8511501 4.14814108,91.8121793 L4.14814108,89.8682261 L4.14814108,89.8682261 Z M11.7214357,93.8464561 L15.7239751,89.8682261 L22.2848361,89.8682261 L18.2822967,93.8464561 L11.7214357,93.8464561 Z M94.3943091,114.460195 L26.6056909,114.460195 L29.1122988,105.238207 L91.8882033,105.238207 L94.3943091,114.460195 Z M90.7821328,101.169653 L30.2178672,101.169653 L31.1025228,97.9147602 L89.8977282,97.9147602 L90.7821328,101.169653 Z M99.7665083,93.8464561 L103.769048,89.8682261 L110.329909,89.8682261 L106.327369,93.8464561 L99.7665083,93.8464561 Z M114.805151,93.8464561 L112.116039,93.8464561 L116.118579,89.8682261 L116.851859,89.8682261 L116.851859,91.8121793 C116.851859,92.9339883 115.933815,93.8464561 114.805151,93.8464561 Z" id="Shape" fill="#000000"></path>
        </g>
    </g>
</svg>