<?xml version="1.0" encoding="UTF-8"?>
<svg width="260px" height="260px" viewBox="0 0 260 260" version="1.1" xmlns="http://www.w3.org/2000/svg" xmlns:xlink="http://www.w3.org/1999/xlink">
    <!-- Generator: Sketch 46.2 (44496) - http://www.bohemiancoding.com/sketch -->
    <title>Authorization_failed</title>
    <desc>Created with Sketch.</desc>
    <defs></defs>
    <g id="Page-1" stroke="none" stroke-width="1" fill="none" fill-rule="evenodd">
        <g id="授权失败" transform="translate(-480.000000, -244.000000)">
            <g id="Group" transform="translate(479.000000, 243.000000)">
                <g id="wrong">
                    <g id="Authorization_failed" transform="translate(0.161290, 0.096774)">
                        <circle id="Oval-3" fill="#FFA600" opacity="0.98" cx="130.83871" cy="130.903226" r="130"></circle>
                        <path d="M64.4745258,106.474526 L42.7000711,106.474526 L42.7000711,106.474526 C40.7670745,106.474526 39.2000711,108.041529 39.2000711,109.974526 L39.2000711,116.161198 C39.2000711,118.094194 40.7670745,119.661198 42.7000711,119.661198 L64.4745258,119.661198 L64.4745258,141.435653 C64.4745258,143.368649 66.0415292,144.935653 67.9745258,144.935653 L67.9745258,144.935653 L74.1611979,144.935653 C76.0941945,144.935653 77.6611979,143.368649 77.6611979,141.435653 L77.6611979,119.661198 L99.4356526,119.661198 C101.368649,119.661198 102.935653,118.094194 102.935653,116.161198 L102.935653,116.161198 L102.935653,109.974526 C102.935653,108.041529 101.368649,106.474526 99.4356526,106.474526 L77.6611979,106.474526 L77.6611979,84.7000711 L77.6611979,84.7000711 C77.6611979,82.7670745 76.0941945,81.2000711 74.1611979,81.2000711 L67.9745258,81.2000711 C66.0415292,81.2000711 64.4745258,82.7670745 64.4745258,84.7000711 L64.4745258,106.474526 Z" id="Combined-Shape" fill="#FFFFFF" transform="translate(71.067862, 113.067862) rotate(-45.000000) translate(-71.067862, -113.067862) "></path>
                        <rect id="Rectangle-3" fill="#FFFFFF" x="97.2903226" y="185.419355" width="67.0967742" height="16.7741935" rx="4"></rect>
                        <path d="M181.893881,106.474526 L160.119426,106.474526 C158.186429,106.474526 156.619426,108.041529 156.619426,109.974526 L156.619426,109.974526 L156.619426,116.161198 C156.619426,118.094194 158.186429,119.661198 160.119426,119.661198 L160.119426,119.661198 L181.893881,119.661198 L181.893881,141.435653 C181.893881,143.368649 183.460884,144.935653 185.393881,144.935653 L185.393881,144.935653 L191.580553,144.935653 C193.513549,144.935653 195.080553,143.368649 195.080553,141.435653 L195.080553,119.661198 L216.855007,119.661198 C218.788004,119.661198 220.355007,118.094194 220.355007,116.161198 L220.355007,116.161198 L220.355007,109.974526 C220.355007,108.041529 218.788004,106.474526 216.855007,106.474526 L195.080553,106.474526 L195.080553,84.7000711 C195.080553,82.7670745 193.513549,81.2000711 191.580553,81.2000711 L191.580553,81.2000711 L185.393881,81.2000711 C183.460884,81.2000711 181.893881,82.7670745 181.893881,84.7000711 L181.893881,84.7000711 L181.893881,106.474526 Z" id="Combined-Shape-Copy" fill="#FFFFFF" transform="translate(188.487217, 113.067862) rotate(-45.000000) translate(-188.487217, -113.067862) "></path>
                    </g>
                </g>
            </g>
        </g>
    </g>
</svg>