<?xml version="1.0" encoding="UTF-8"?>
<svg width="58px" height="52px" viewBox="0 0 58 52" version="1.1" xmlns="http://www.w3.org/2000/svg" xmlns:xlink="http://www.w3.org/1999/xlink">
    <!-- Generator: Sketch 47.1 (45422) - http://www.bohemiancoding.com/sketch -->
    <title>folder (1)</title>
    <desc>Created with Sketch.</desc>
    <defs></defs>
    <g id="I4D" stroke="none" stroke-width="1" fill="none" fill-rule="evenodd">
        <g id="16-经销商-pc-下载资源-上传服务方案" transform="translate(-243.000000, -205.000000)" fill-rule="nonzero">
            <g id="folder-(1)" transform="translate(243.000000, 205.000000)">
                <path d="M55.981,51.5 L2.019,51.5 C0.904,51.5 0,50.596 0,49.481 L0,17.5 L58,17.5 L58,49.481 C58,50.596 57.096,51.5 55.981,51.5 Z" id="Shape" fill="#EFCE4A"></path>
                <path d="M26.019,8.5 L26.019,2.519 C26.019,1.404 25.115,0.5 24,0.5 L2.019,0.5 C0.904,0.5 0,1.404 0,2.519 L0,7.5 L0,17.5 L58,17.5 L58,10.519 C58,9.404 57.096,8.5 55.981,8.5 L26.019,8.5 Z" id="Shape" fill="#EBBA16"></path>
            </g>
        </g>
    </g>
</svg>