<?xml version="1.0" encoding="UTF-8"?>
<svg width="70px" height="70px" viewBox="0 0 70 70" version="1.1" xmlns="http://www.w3.org/2000/svg" xmlns:xlink="http://www.w3.org/1999/xlink">
    <!-- Generator: Sketch 46.2 (44496) - http://www.bohemiancoding.com/sketch -->
    <title>loading</title>
    <desc>Created with Sketch.</desc>
    <defs></defs>
    <g id="PC_shell_admin" stroke="none" stroke-width="1" fill="none" fill-rule="evenodd">
        <g id="设备二维码生成loading" transform="translate(-575.000000, -585.000000)" fill-rule="nonzero" fill="#FFD500">
            <g id="Group-11" transform="translate(443.000000, 538.000000)">
                <path d="M202,86.7170422 L202,77.2911936 C197.182353,75.5740338 194.147647,75.0963586 192.611765,71.398494 C191.075882,67.6923937 192.9,65.1722454 195.082353,60.5890346 L188.42,53.9221719 C183.87,56.0840638 181.325294,57.9329961 177.607059,56.3929055 C173.901176,54.8528149 173.419412,51.7932231 171.714706,47 L162.285294,47 C160.588824,51.7685158 160.102941,54.8528149 156.392941,56.3887876 L156.388824,56.3887876 C152.682941,57.9288782 150.171176,56.1005353 145.58,53.918054 L138.921765,60.5849168 C141.091765,65.1557739 142.928235,67.6841579 141.392353,71.3943761 C139.848235,75.1045944 136.768235,75.5905053 132,77.2870757 L132,86.7129243 C136.755882,88.4094947 139.852353,88.8995235 141.388235,92.6056239 C142.936471,96.3446673 141.054706,98.922466 138.917647,103.415083 L145.58,110.081946 C150.138235,107.920054 152.678824,106.071122 156.388824,107.611212 L156.392941,107.611212 C160.098824,109.147185 160.584706,112.215013 162.285294,117 L171.710588,117 C173.407059,112.231484 173.892941,109.155421 177.627647,107.602977 L177.631765,107.602977 C181.312941,106.071122 183.812353,107.895347 188.415882,110.081946 L195.078235,103.415083 C192.916471,98.8565798 191.067647,96.31996 192.603529,92.6056239 C194.143529,88.9036414 197.24,88.4094947 202,86.7170422 Z M167,93.6721572 C160.56,93.6721572 155.334706,88.4465557 155.334706,82.0020589 C155.334706,75.5575622 160.56,70.3319607 167,70.3319607 C173.44,70.3319607 178.665294,75.5575622 178.665294,82.0020589 C178.665294,88.4465557 173.44,93.6721572 167,93.6721572 Z" id="loading"></path>
            </g>
        </g>
    </g>
</svg>
