<?xml version="1.0" encoding="utf-8"?>
<!-- Generator: Adobe Illustrator 24.1.2, SVG Export Plug-In . SVG Version: 6.00 Build 0)  -->
<svg version="1.1" id="Layer_1" xmlns="http://www.w3.org/2000/svg" xmlns:xlink="http://www.w3.org/1999/xlink" x="0px" y="0px"
	 viewBox="0 0 400.63 187.33" style="enable-background:new 0 0 400.63 187.33;" xml:space="preserve">
<style type="text/css">
	.st0{fill:url(#SVGID_1_);}
	.st1{fill:url(#SVGID_2_);}
	.st2{fill:#008443;}
	.st3{fill:#FF9200;}
	.st4{fill:#DD1D21;}
	.st5{fill:#404040;}
	.st6{font-family:'SIL-Hei-Med-Jian';}
	.st7{font-size:19.4345px;}
</style>
<g>
	<g>
		<linearGradient id="SVGID_1_" gradientUnits="userSpaceOnUse" x1="103.1924" y1="47.6415" x2="217.004" y2="169.5824">
			<stop  offset="0" style="stop-color:#F5F5F5"/>
			<stop  offset="1" style="stop-color:#EAEAEA"/>
		</linearGradient>
		<path class="st0" d="M399.02,177.58c-0.08-0.89-0.18-1.78-0.31-2.67c-6.76-47.4-30.41-90.94-66.6-122.6
			C295.54,20.34,248.64,2.73,200.02,2.73c-48.62,0-95.53,17.61-132.08,49.59c-36.19,31.66-59.85,75.2-66.6,122.6
			c-0.13,0.89-0.23,1.78-0.31,2.67c-0.14,1.56,0.39,3.08,1.49,4.29c1.65,1.81,4.55,2.84,7.95,2.84h60.3
			c14.42,0,26.91-11.56,31.81-22.97c16.73-39.04,54.98-64.27,97.45-64.27c42.47,0,80.72,25.23,97.45,64.27
			c4.89,11.42,17.39,22.97,31.81,22.97h60.3c3.4,0,6.3-1.04,7.95-2.84C398.63,180.66,399.16,179.14,399.02,177.58z"/>
		<linearGradient id="SVGID_2_" gradientUnits="userSpaceOnUse" x1="52.4167" y1="93.7209" x2="314.2979" y2="93.7209">
			<stop  offset="0" style="stop-color:#F5F5F5"/>
			<stop  offset="1" style="stop-color:#EAEAEA"/>
		</linearGradient>
		<path class="st1" d="M394.47,175.52c-6.61-46.39-29.76-89-65.18-119.98C293.51,24.25,247.6,7.01,200.02,7.01
			c-47.58,0-93.49,17.23-129.26,48.53C35.33,86.52,12.18,129.13,5.57,175.52c-0.12,0.82-0.21,1.63-0.28,2.45
			c-0.12,1.36,2.23,2.46,5.18,2.46h60.3c11.82,0,23.21-9.51,27.87-20.38c16.85-39.32,55.89-66.87,101.38-66.87
			c45.49,0,84.53,27.55,101.38,66.87c4.66,10.87,16.05,20.38,27.87,20.38h16.33h13.88h30.09c2.96,0,5.31-1.1,5.18-2.46
			C394.68,177.15,394.58,176.34,394.47,175.52z"/>
		<path class="st2" d="M98.64,160.05c16.85-39.32,55.89-66.87,101.38-66.87c45.49,0,84.53,27.55,101.38,66.87
			c4.66,10.87,16.05,20.38,27.87,20.38h30.21c-11.17-78.07-78.3-138.09-159.46-138.09S51.72,102.36,40.56,180.43h30.21
			C82.59,180.43,93.98,170.92,98.64,160.05z"/>
	</g>
</g>
<path class="st3" d="M200.02,42.34c-13.45,0-26.5,1.68-38.99,4.79c2.89,16.79,5.63,33.61,8.12,50.46c9.8-2.85,20.15-4.4,30.87-4.4
	c33.55,0,63.58,15,83.8,38.64c10.02-14.09,20.08-28.14,30.22-42.14C284.88,60.45,244.58,42.34,200.02,42.34z"/>
<path class="st2" d="M47.73,150.88c-3.27,9.48-5.71,19.36-7.17,29.55h30.21c9.14,0,18.01-5.69,23.72-13.29
	C78.92,161.67,63.28,156.39,47.73,150.88z"/>
<path class="st3" d="M106.35,72.42c10.26,13.47,19.9,27.45,29.79,41.18c17.62-12.54,39.07-20.05,62.27-20.38V42.38
	C164.08,42.71,132.35,53.81,106.35,72.42z"/>
<path class="st4" d="M306.02,167.76c5.72,7.29,14.36,12.67,23.25,12.67h30.21c-1.45-10.17-3.88-20.01-7.14-29.48c0,0,0.01,0,0.01,0
	c-0.24-0.7-0.51-1.38-0.76-2.08c0,0,0,0,0,0c0,0,0,0,0,0c-11-30.55-30.93-56.84-56.7-75.64l-30.23,40.89
	c16.04,11.64,28.83,27.49,36.73,45.93C302.56,162.75,304.13,165.36,306.02,167.76 M350.27,151.72c-0.03,0.01-0.06,0.02-0.09,0.03
	C350.2,151.74,350.24,151.73,350.27,151.72z"/>
<text transform="matrix(1 0 0 1 178.4254 31.3384)" class="st5 st6 st7">风险</text>
<text transform="matrix(0.4924 -0.8703 0.8703 0.4924 43.4275 134.6925)" class="st5 st6 st7">正常</text>
<text transform="matrix(0.5078 0.8615 -0.8615 0.5078 336.3961 98.3544)" class="st5 st6 st7">异常</text>
</svg>
