<?xml version="1.0" encoding="utf-8"?>
<!-- Generator: Adobe Illustrator 24.1.2, SVG Export Plug-In . SVG Version: 6.00 Build 0)  -->
<svg version="1.1" id="Layer_1" xmlns="http://www.w3.org/2000/svg" xmlns:xlink="http://www.w3.org/1999/xlink" x="0px" y="0px"
	 viewBox="0 0 35.33 127.72" style="enable-background:new 0 0 35.33 127.72;" xml:space="preserve">
<style type="text/css">
	.st0{fill:#666666;}
	.st1{fill:#C1C1C1;}
</style>
<g>
	<g>
		<g>
			<g>
				<path class="st0" d="M0,110.14C-0.05,100.39,14,2.49,17.16,2.48c3-0.01,18.12,97.75,18.17,107.5
					c0.05,9.75-7.82,17.7-17.58,17.75S0.05,119.9,0,110.14z"/>
			</g>
			<path class="st0" d="M9.48,110.16c-0.07-4.73,3.72-8.62,8.44-8.68c4.73-0.07,8.62,3.72,8.68,8.44c0.07,4.73-3.72,8.62-8.44,8.68
				C13.43,118.67,9.54,114.89,9.48,110.16z"/>
		</g>
		<path class="st1" d="M13.31,110.11c-0.04-2.62,2.05-4.76,4.67-4.8c2.62-0.04,4.76,2.05,4.8,4.67c0.04,2.62-2.05,4.76-4.67,4.8
			C15.49,114.81,13.34,112.72,13.31,110.11z"/>
	</g>
</g>
</svg>
