<svg xmlns="http://www.w3.org/2000/svg" width="28" height="28" viewBox="0 0 28 28">
    <g fill="none" fill-rule="evenodd">
        <path fill="#FFF" fill-opacity=".01" d="M0 0h28v28H0z"/>
        <path fill="#CCC" fill-rule="nonzero" d="M23.478 8.762a9.985 9.985 0 0 1-2.36-.451c-.23-.071-.46-.15-.692-.235-.488-.148-1.152-.441-1.905-.859-.008-.003-.016-.008-.024-.013a17.17 17.17 0 0 1-.543-.314 16.596 16.596 0 0 1-.74-.465c-.01-.007-.02-.013-.028-.02a16.78 16.78 0 0 1-.527-.363c-.114-.08-.227-.166-.341-.25-.086-.065-.171-.125-.257-.192A18.399 18.399 0 0 1 14.24 4a18.4 18.4 0 0 1-1.821 1.6c-.086.067-.172.127-.257.192-.114.084-.227.17-.34.25-.175.125-.351.246-.528.364l-.028.019c-.246.162-.492.318-.74.465-.185.111-.366.216-.543.314-.008.005-.016.01-.024.013-.753.418-1.417.71-1.905.859-.231.085-.461.164-.691.235a9.984 9.984 0 0 1-2.361.45H5c.024.38.049.884.078 1.429l.015-.001c.139 2.034.535 4.927 1.133 6.627.027.074.05.151.077.225.012.035.027.067.04.1 1.431 3.801 3.918 6.566 6.906 7.58v.01c.395.134.728.217.99.269.264-.052.597-.135.992-.269v-.01c2.988-1.014 5.474-3.779 6.906-7.58.013-.034.028-.065.04-.1.027-.074.05-.151.077-.225.598-1.7.994-4.593 1.133-6.627h.015c.03-.544.054-1.048.078-1.427h-.002zm-1.08.982l-.012.223a.976.976 0 0 0-.023.155c-.13 1.894-.493 4.7-1.079 6.364a4.943 4.943 0 0 0-.046.137l-.033.095a2.1 2.1 0 0 0-.032.08c-1.33 3.532-3.62 6.076-6.28 6.978a1.016 1.016 0 0 0-.124.052c-.181.058-.358.107-.53.148-.17-.04-.345-.09-.526-.148a1.027 1.027 0 0 0-.126-.052c-2.66-.902-4.95-3.446-6.278-6.972a2.678 2.678 0 0 0-.039-.097l-.028-.085a5.308 5.308 0 0 0-.044-.13c-.588-1.67-.951-4.477-1.08-6.37a.965.965 0 0 0-.024-.156l-.011-.218-.006-.104c.562-.09 1.104-.218 1.596-.38.231-.072.466-.151.716-.243.575-.178 1.288-.498 2.064-.927a17.594 17.594 0 0 0 1.97-1.242c.104-.073.208-.15.311-.228l.056-.041.092-.069a19.511 19.511 0 0 0 1.358-1.117 19.397 19.397 0 0 0 1.357 1.117l.098.072.035.027c.109.08.218.162.318.232.185.134.372.262.541.375l.047.031c.283.187.54.35.778.489a18.254 18.254 0 0 0 .605.35c.78.431 1.495.753 2.072.931.251.092.485.171.697.237.505.166 1.051.296 1.615.386l-.005.1zm-3.638 2.394l-5.345 5.633-2.736-2.884a.468.468 0 0 0-.687 0 .53.53 0 0 0 0 .723l3.08 3.245c.095.1.219.15.343.15.124 0 .248-.05.343-.15l5.688-5.994a.53.53 0 0 0 0-.723.468.468 0 0 0-.686 0z"/>
    </g>
</svg>
