<?xml version="1.0" encoding="UTF-8"?>
<svg width="53px" height="60px" viewBox="0 0 53 60" version="1.1" xmlns="http://www.w3.org/2000/svg" xmlns:xlink="http://www.w3.org/1999/xlink">
    <!-- Generator: Sketch 46.2 (44496) - http://www.bohemiancoding.com/sketch -->
    <title>pdf</title>
    <desc>Created with Sketch.</desc>
    <defs></defs>
    <g id="Page-1" stroke="none" stroke-width="1" fill="none" fill-rule="evenodd">
        <g id="6经销商详情页" transform="translate(-103.000000, -1037.000000)" fill-rule="nonzero">
            <g id="Group-3" transform="translate(100.000000, 985.000000)">
                <g id="pdf" transform="translate(3.000000, 52.000000)">
                    <path d="M11.25,0 C9.1875,0 7.5,1.6875 7.5,3.75 L7.5,56.25 C7.5,58.3125 9.1875,60 11.25,60 L48.75,60 C50.8125,60 52.5,58.3125 52.5,56.25 L52.5,15 L37.5,0 L11.25,0 Z" id="Shape" fill="#E2E5E7"></path>
                    <path d="M41.25,15 L52.5,15 L37.5,0 L37.5,11.25 C37.5,13.3125 39.1875,15 41.25,15 Z" id="Shape" fill="#B0B7BD"></path>
                    <polygon id="Shape" fill="#CAD1D8" points="52.5 26.25 41.25 15 52.5 15"></polygon>
                    <path d="M45,48.75 C45,49.78125 44.15625,50.625 43.125,50.625 L1.875,50.625 C0.84375,50.625 0,49.78125 0,48.75 L0,30 C0,28.96875 0.84375,28.125 1.875,28.125 L43.125,28.125 C44.15625,28.125 45,28.96875 45,30 L45,48.75 Z" id="Shape" fill="#F15642"></path>
                    <path d="M8.173125,35.525625 C8.173125,35.030625 8.563125,34.490625 9.19125,34.490625 L12.654375,34.490625 C14.604375,34.490625 16.359375,35.795625 16.359375,38.296875 C16.359375,40.666875 14.604375,41.986875 12.654375,41.986875 L10.15125,41.986875 L10.15125,43.966875 C10.15125,44.626875 9.73125,45 9.19125,45 C8.69625,45 8.173125,44.626875 8.173125,43.966875 L8.173125,35.525625 L8.173125,35.525625 Z M10.15125,36.37875 L10.15125,40.11375 L12.654375,40.11375 C13.659375,40.11375 14.454375,39.226875 14.454375,38.296875 C14.454375,37.24875 13.659375,36.37875 12.654375,36.37875 L10.15125,36.37875 Z" id="Shape" fill="#FFFFFF"></path>
                    <path d="M19.295625,45 C18.800625,45 18.260625,44.73 18.260625,44.071875 L18.260625,35.555625 C18.260625,35.0175 18.800625,34.625625 19.295625,34.625625 L22.72875,34.625625 C29.58,34.625625 29.43,45 22.86375,45 L19.295625,45 L19.295625,45 Z M20.240625,36.455625 L20.240625,43.171875 L22.72875,43.171875 C26.776875,43.171875 26.956875,36.455625 22.72875,36.455625 L20.240625,36.455625 L20.240625,36.455625 Z" id="Shape" fill="#FFFFFF"></path>
                    <path d="M31.86,36.575625 L31.86,38.95875 L35.683125,38.95875 C36.223125,38.95875 36.763125,39.49875 36.763125,40.021875 C36.763125,40.516875 36.223125,40.921875 35.683125,40.921875 L31.86,40.921875 L31.86,44.07 C31.86,44.595 31.486875,44.998125 30.961875,44.998125 C30.301875,44.998125 29.89875,44.595 29.89875,44.07 L29.89875,35.55375 C29.89875,35.015625 30.30375,34.62375 30.961875,34.62375 L36.225,34.62375 C36.885,34.62375 37.275,35.015625 37.275,35.55375 C37.275,36.03375 36.885,36.57375 36.225,36.57375 L31.86,36.57375 L31.86,36.575625 Z" id="Shape" fill="#FFFFFF"></path>
                    <path d="M43.125,50.625 L7.5,50.625 L7.5,52.5 L43.125,52.5 C44.15625,52.5 45,51.65625 45,50.625 L45,48.75 C45,49.78125 44.15625,50.625 43.125,50.625 Z" id="Shape" fill="#CAD1D8"></path>
                </g>
            </g>
        </g>
    </g>
</svg>