<?xml version="1.0" encoding="UTF-8"?>
<svg width="178px" height="23px" viewBox="0 0 178 23" version="1.1" xmlns="http://www.w3.org/2000/svg" xmlns:xlink="http://www.w3.org/1999/xlink">
    <!-- Generator: Sketch 49.3 (51167) - http://www.bohemiancoding.com/sketch -->
    <title>经销商数据后台</title>
    <desc>Created with Sketch.</desc>
    <defs></defs>
    <g id="Symbols" stroke="none" stroke-width="1" fill="none" fill-rule="evenodd">
        <g id="经销商数据后台TopBar" transform="translate(-100.000000, -20.000000)" fill="#333333">
            <g id="Group-10">
                <path d="M100.6875,27.90625 C100.6875,27.8437497 100.781249,27.7812503 100.96875,27.71875 C101.781254,27.2187475 102.531247,26.1562581 103.21875,24.53125 C103.843753,23.0937428 104.218749,21.9062547 104.34375,20.96875 L104.4375,20.78125 C104.562501,20.7187497 105.687489,21.1249956 107.8125,22 C106.187492,24.5625128 104.968754,26.4999934 104.15625,27.8125 L106.03125,27.8125 C106.218751,27.8125 106.687496,26.9375087 107.4375,25.1875 L110.4375,26.78125 C109.499995,27.8437553 108.093759,29.6249875 106.21875,32.125 C105.843748,32.6250025 105.593751,32.9687491 105.46875,33.15625 C105.718751,33.15625 106.124997,33.1250003 106.6875,33.0625 C107.937506,32.8749991 108.59375,32.8124997 108.65625,32.875 C108.65625,33.8125047 108.6875,34.6249966 108.75,35.3125 C105.687485,35.5625012 103.406257,35.8124988 101.90625,36.0625 C101.718749,36.1250003 101.59375,36.15625 101.53125,36.15625 C101.218748,35.0312444 101.03125,34.0625041 100.96875,33.25 C100.96875,33.1874997 101.218748,33.0625009 101.71875,32.875 C102.593754,32.6249988 103.124999,32.3750012 103.3125,32.125 C103.812502,31.4374966 104.218748,30.8125028 104.53125,30.25 C104.281249,30.25 103.843753,30.2812497 103.21875,30.34375 C102.281245,30.4687506 101.656252,30.5000003 101.34375,30.4375 C101.031248,29.7499966 100.812501,28.906255 100.6875,27.90625 Z M115.21875,24.90625 L109.40625,24.90625 L109.40625,22.28125 L120.28125,22.28125 C119.593747,24.3437603 118.656256,26.0312434 117.46875,27.34375 C119.46876,28.4062553 121.093744,29.4062453 122.34375,30.34375 C121.593746,31.1562541 120.968752,31.9374963 120.46875,32.6875 L120.46875,35.21875 L116.53125,35.21875 L116.53125,39.15625 L121.6875,39.15625 L121.6875,41.59375 L107.8125,41.59375 L107.8125,39.53125 C105.437488,39.9062519 103.343759,40.3437475 101.53125,40.84375 L101.0625,40.9375 C100.812499,40.3749972 100.562501,39.4062569 100.3125,38.03125 C103.875018,37.5937478 106.781239,37.1562522 109.03125,36.71875 C109.03125,37.4062534 109.0625,38.2187453 109.125,39.15625 L113.4375,39.15625 L113.4375,35.21875 L109.40625,35.21875 L109.40625,32.6875 C108.968748,31.8749959 108.562502,31.2187525 108.1875,30.71875 L108.375,30.625 C111.250014,29.5624947 113.531242,27.6562638 115.21875,24.90625 Z M110.71875,32.6875 L119.8125,32.6875 C118.562494,31.3749934 117.187508,30.218755 115.6875,29.21875 C114.124992,30.5937569 112.468759,31.7499953 110.71875,32.6875 Z M126.03125,29.6875 C127.531258,27.0624869 128.718746,24.0312672 129.59375,20.59375 C131.156258,20.7812509 132.249997,20.9999988 132.875,21.25 C132.9375,21.3125003 132.812502,21.6562469 132.5,22.28125 C132.249999,22.7812525 132.031251,23.2499978 131.84375,23.6875 L135.125,23.6875 L135.125,26.125 L130.8125,26.125 C130.75,26.2500006 130.656251,26.4687484 130.53125,26.78125 C130.343749,27.2812525 130.156251,27.6562487 129.96875,27.90625 L134.84375,27.90625 L134.84375,30.34375 L132.3125,30.34375 L132.3125,32.21875 L135.5,32.21875 L135.5,34.65625 L132.21875,34.65625 L132.21875,37.5625 C132.656252,37.3124988 133.281246,36.9375025 134.09375,36.4375 C134.531252,36.1249984 134.874999,35.9062506 135.125,35.78125 C135.312501,37.0937566 135.468749,37.9999975 135.59375,38.5 C133.65624,39.5625053 132.062506,40.593745 130.8125,41.59375 C130.499998,41.8437512 130.3125,41.96875 130.25,41.96875 C129.999999,41.8437494 129.437504,40.9687581 128.5625,39.34375 C128.5625,39.2812497 128.624999,39.1875006 128.75,39.0625 C129.187502,38.4999972 129.40625,37.9375028 129.40625,37.375 L129.40625,34.65625 L126.40625,34.65625 L126.40625,32.21875 L129.40625,32.21875 L129.40625,30.25 L128.75,30.25 C128.562499,30.6250019 128.343751,30.9999981 128.09375,31.375 C127.656248,30.9374978 127.125003,30.4687525 126.5,29.96875 C126.312499,29.8437494 126.156251,29.7500003 126.03125,29.6875 Z M135.5,22.84375 C136.250004,22.5937487 137.156245,22.2187525 138.21875,21.71875 C139.031254,23.1562572 139.624998,24.4374944 140,25.5625 C139.374997,25.8125013 138.500006,26.1562478 137.375,26.59375 C136.937498,25.5312447 136.312504,24.2812572 135.5,22.84375 Z M136.34375,42.34375 L136.34375,27.4375 L140.28125,27.4375 L140.28125,20.78125 L140.84375,20.78125 C142.656259,20.7187497 143.53125,20.8437484 143.46875,21.15625 C143.46875,21.2187503 143.4375,21.4062484 143.375,21.71875 C143.249999,22.2812528 143.1875,22.7812478 143.1875,23.21875 L143.1875,27.4375 L147.03125,27.4375 L147.03125,40.1875 C147.593753,41.8125081 146.093768,42.5937503 142.53125,42.53125 C142.343749,41.7187459 142.031252,40.7500056 141.59375,39.625 C143.406259,39.8125009 144.156252,39.5000041 143.84375,38.6875 L143.84375,37.5625 L139.15625,37.5625 L139.15625,42.34375 L136.34375,42.34375 Z M143.84375,31.46875 L143.84375,29.78125 L139.15625,29.78125 L139.15625,31.46875 L143.84375,31.46875 Z M143.84375,33.53125 L139.15625,33.53125 L139.15625,35.3125 L143.84375,35.3125 L143.84375,33.53125 Z M143.46875,25.84375 C144.281254,24.5312434 144.968747,23.1875069 145.53125,21.8125 C146.281254,22.1250016 147.187495,22.4999978 148.25,22.9375 C148.25,23.0000003 148.156251,23.1562487 147.96875,23.40625 C147.781249,23.5937509 147.625001,23.7812491 147.5,23.96875 C146.624996,25.4687575 146.062501,26.4687475 145.8125,26.96875 C144.937496,26.5937481 144.156253,26.2187519 143.46875,25.84375 Z M161.59375,22.375 C161.53125,21.8749975 161.437501,21.4375019 161.3125,21.0625 L161.21875,20.78125 C161.406251,20.7187497 162.093744,20.6562503 163.28125,20.59375 C164.343755,20.5312497 164.937499,20.5312497 165.0625,20.59375 C165.187501,20.9062516 165.28125,21.4999956 165.34375,22.375 L173.6875,22.375 L173.6875,24.71875 L167.96875,24.71875 C168.781254,25.0312516 169.1875,25.2499994 169.1875,25.375 C169.1875,25.4375003 169.125001,25.5312494 169,25.65625 C168.624998,26.0312519 168.250002,26.5624966 167.875,27.25 L172.09375,27.25 L172.09375,40.375 C172.218751,41.8750075 170.718766,42.5937503 167.59375,42.53125 C167.59375,41.5937453 167.312503,40.6875044 166.75,39.8125 C168.500009,39.8750003 169.250001,39.6250028 169,39.0625 L169,32.875 C168.749999,33.1250012 168.437502,33.5312472 168.0625,34.09375 C167.937499,33.9062491 167.656252,33.6562516 167.21875,33.34375 L167.21875,39.15625 L164.3125,39.15625 L164.3125,38.6875 L161.5,38.6875 L161.5,39.53125 L158.96875,39.53125 L158.96875,33.53125 L158.40625,33.90625 C158.093748,33.2187466 157.750002,32.7187516 157.375,32.40625 L157.375,42.0625 L154.375,42.0625 L154.375,27.15625 L158.875,27.15625 C158.749999,26.9687491 158.593751,26.7187516 158.40625,26.40625 C158.156249,25.9062475 158.0625,25.65625 158.125,25.65625 C159.687508,25.2812481 160.687498,25.0312506 161.125,24.90625 C161.312501,25.0937509 161.624998,25.8437434 162.0625,27.15625 L164.6875,27.15625 C165.250003,26.156245 165.624999,25.3437531 165.8125,24.71875 L152.6875,24.71875 L152.6875,22.375 L161.59375,22.375 Z M157.375,32.03125 C158.687507,31.2812463 159.749996,30.4375047 160.5625,29.5 L157.375,29.5 L157.375,32.03125 Z M166.28125,32.59375 C165.343745,31.9687469 164.593753,31.5000016 164.03125,31.1875 L163.84375,31.09375 L164.125,30.8125 L165.25,29.5 L161.125,29.5 L162.71875,31.09375 L162.53125,31.1875 C162.031248,31.5000016 161.406254,31.9687469 160.65625,32.59375 L166.28125,32.59375 Z M169,29.5 L165.625,29.5 C167.125008,30.3125041 168.249996,31.0312469 169,31.65625 L169,29.5 Z M161.5,36.625 L164.3125,36.625 L164.3125,34.65625 L161.5,34.65625 L161.5,36.625 Z M181.78125,21.0625 C181.968751,21.5000022 182.312498,22.4999922 182.8125,24.0625 C182.937501,24.3750016 183,24.5624997 183,24.625 L181.21875,25.1875 L183.46875,25.1875 L183.46875,20.59375 C185.656261,20.5312497 186.656251,20.6562484 186.46875,20.96875 C186.53125,21.0312503 186.53125,21.1874987 186.46875,21.4375 C186.343749,21.8125019 186.28125,22.1874981 186.28125,22.5625 L186.28125,25.1875 L190.3125,25.1875 L190.3125,27.53125 L186.28125,27.53125 L186.28125,31.5625 L184.59375,31.5625 C185.531255,31.6875006 186.093749,31.8124994 186.28125,31.9375 L186.1875,32.125 C186.062499,32.3125009 185.96875,32.4687494 185.90625,32.59375 L189.84375,32.59375 L190.03125,32.6875 C189.593748,34.4375087 189.031253,36.0312428 188.34375,37.46875 C188.468751,37.46875 188.624999,37.4999997 188.8125,37.5625 C189.875005,37.8125012 190.468749,37.9999994 190.59375,38.125 L189.75,39.625 C191.062507,38.8749963 192.062497,38.000005 192.75,37 C192.062497,35.4999925 191.531252,33.9375081 191.15625,32.3125 L190.875,32.875 C190.062496,32.3749975 189.218754,32.0312509 188.34375,31.84375 L189.1875,30.625 L187.5,31.28125 C187.374999,30.9687484 187.218751,30.5000031 187.03125,29.875 C186.718748,29.0624959 186.5625,28.6250003 186.5625,28.5625 L188.53125,27.8125 C188.843752,28.1875019 189.218748,28.8437453 189.65625,29.78125 C190.906256,27.0937366 191.624999,24.0937666 191.8125,20.78125 C192.500003,20.7187497 193.593743,20.7812491 195.09375,20.96875 C195.281251,20.96875 195.34375,21.0624991 195.28125,21.25 C195.34375,21.1874997 195.34375,21.2187494 195.28125,21.34375 C194.906248,22.5312559 194.531252,23.7812434 194.15625,25.09375 L200.0625,25.09375 L200.0625,27.71875 L198.1875,27.71875 C198.1875,30.4687638 197.593756,33.5624828 196.40625,37 C197.281254,37.9375047 198.531242,38.7812462 200.15625,39.53125 C199.281246,40.5937553 198.625002,41.5624956 198.1875,42.4375 C196.562492,41.1874938 195.343754,40.1562541 194.53125,39.34375 C194.343749,39.4687506 194.062502,39.6874984 193.6875,40 C192.062492,41.3750069 190.750005,42.2812478 189.75,42.71875 L189.5625,42.53125 C188.937497,41.7187459 188.281253,41.0312528 187.59375,40.46875 L188.15625,40.1875 L186.5625,39.625 C185.312494,40.8125059 183.218765,41.8437456 180.28125,42.71875 C179.968748,42.0937469 179.375004,41.2500053 178.5,40.1875 C180.687511,39.9999991 182.343744,39.5000041 183.46875,38.6875 C182.093743,38.1874975 180.875005,37.8125012 179.8125,37.5625 C180.062501,37.0624975 180.562496,36.2187559 181.3125,35.03125 L178.78125,35.03125 L178.78125,32.59375 L182.71875,32.59375 C182.906251,32.2187481 183.062499,31.7812525 183.1875,31.28125 L183.46875,31.375 L183.46875,29.21875 C182.093743,30.9687587 181.031254,32.0312481 180.28125,32.40625 C179.843748,32.0312481 179.062506,31.5625028 177.9375,31 C179.375007,29.999995 180.562495,28.8125069 181.5,27.4375 L178.6875,27.4375 L178.6875,25.1875 L180.375,25.1875 C180.249999,24.4999966 179.906253,23.6250053 179.34375,22.5625 C179.218749,22.3749991 179.125,22.2187506 179.0625,22.09375 L181.78125,21.0625 Z M194.34375,34.46875 C194.906253,32.5937406 195.249999,30.3125134 195.375,27.625 L193.3125,27.625 C193.187499,27.7500006 193.125,27.9062491 193.125,28.09375 C193.250001,30.3437613 193.656247,32.46874 194.34375,34.46875 Z M184.21875,35.03125 L183.5625,36.25 L184.6875,36.53125 C185.125002,36.6562506 185.437499,36.71875 185.625,36.71875 C186.000002,36.1562472 186.249999,35.5937528 186.375,35.03125 L184.21875,35.03125 Z M186.9375,24.25 C187.375002,23.249995 187.781248,22.1875056 188.15625,21.0625 L190.875,22.09375 C190.875,22.1562503 190.656252,22.5312466 190.21875,23.21875 C189.718748,24.0937544 189.406251,24.6874984 189.28125,25 L186.9375,24.25 Z M207.3125,27.53125 L204.5,27.53125 L204.5,25 L207.3125,25 L207.3125,20.6875 L207.96875,20.6875 C209.593758,20.6875 210.375,20.7812491 210.3125,20.96875 C210.3125,21.0312503 210.28125,21.1249994 210.21875,21.25 C210.15625,21.6250019 210.125,21.9999981 210.125,22.375 L210.125,25 L212.09375,25 L212.09375,27.53125 L210.125,27.53125 L210.125,29.96875 L211.90625,29.21875 C212.093751,29.9062534 212.312499,30.6874956 212.5625,31.5625 L210.125,32.6875 L210.125,39.8125 C211.812508,37.7499897 212.6875,34.9062681 212.75,31.28125 L212.75,21.34375 L224.75,21.34375 L224.75,28 L221.1875,28 L221.1875,29.875 L225.875,29.875 L225.875,32.3125 L221.1875,32.3125 L221.1875,34.09375 L224.75,34.09375 L224.75,42.15625 L221.75,42.15625 L221.75,40.9375 L218.09375,40.9375 L218.09375,42.15625 L215.375,42.15625 L215.375,34.09375 L218.375,34.09375 L218.375,32.3125 L215.375,32.3125 C215.249999,35.3750153 214.281259,38.5312337 212.46875,41.78125 C212.40625,41.8437503 212.187502,41.7187516 211.8125,41.40625 C211.124997,40.9687478 210.531252,40.6250012 210.03125,40.375 C209.781249,41.2500044 208.343763,41.7187497 205.71875,41.78125 C205.468749,40.781245 205.125002,39.8437544 204.6875,38.96875 C206.812511,39.0937506 207.687502,38.7812537 207.3125,38.03125 L207.3125,33.8125 L204.875,34.9375 C204.8125,34.4999978 204.656251,33.7500053 204.40625,32.6875 L204.21875,31.9375 L207.3125,30.8125 L207.3125,27.53125 Z M215.5625,23.78125 L215.5625,25.65625 L221.75,25.65625 L221.75,23.78125 L215.5625,23.78125 Z M218.46875,28 L215.46875,28 L215.46875,29.875 L218.46875,29.875 L218.46875,28 Z M218.09375,38.875 L221.75,38.875 L221.75,36.4375 L218.09375,36.4375 L218.09375,38.875 Z M234.4375,22.375 C240.187529,22.375 244.781233,21.875005 248.21875,20.875 C248.406251,20.9375003 249.093744,22.0624891 250.28125,24.25 C250.34375,24.3750006 250.312501,24.4375 250.1875,24.4375 C248.18749,24.5000003 244.968772,24.6249991 240.53125,24.8125 C238.59374,24.8750003 237.156255,24.9374997 236.21875,25 L236.21875,27.0625 L251.59375,27.0625 L251.59375,29.6875 L236.21875,29.6875 C236.343751,34.687525 235.312511,38.5937359 233.125,41.40625 C232.062495,40.7812469 231.062505,40.3750009 230.125,40.1875 C232.12501,37.6249872 233.09375,34.4062694 233.03125,30.53125 L233.03125,22.375 L234.4375,22.375 Z M246.0625,41.875 L246.0625,40.375 L239.78125,40.375 L239.78125,41.96875 L236.78125,41.96875 L236.78125,32.03125 L249.15625,32.03125 L249.15625,41.875 L246.0625,41.875 Z M239.78125,34.5625 L239.78125,38.125 L245.96875,38.125 L245.96875,34.5625 L239.78125,34.5625 Z M257.8125,27.71875 C260.437513,27.8437506 262.843739,25.406275 265.03125,20.40625 C267.03126,20.9062525 268.312497,21.3437481 268.875,21.71875 C267.187492,23.71876 265.437509,25.71874 263.625,27.71875 L271.40625,27.53125 C270.968748,27.0937478 270.312504,26.4687541 269.4375,25.65625 C269.124998,25.3437484 268.875001,25.1250006 268.6875,25 L271.3125,23.21875 C272.812507,24.5312566 274.874987,26.5624862 277.5,29.3125 L274.6875,31.46875 C274.312498,30.9687475 273.937502,30.5000022 273.5625,30.0625 C272.812496,30.0625 271.656258,30.0937497 270.09375,30.15625 C264.968724,30.2187503 261.093763,30.4999975 258.46875,31 C258.46875,30.8124991 258.4375,30.5312519 258.375,30.15625 C258.187499,29.0937447 258.000001,28.2812528 257.8125,27.71875 Z M260.25,42.34375 L260.25,32.5 L274.59375,32.5 L274.59375,42.34375 L271.3125,42.34375 L271.3125,40.9375 L263.15625,40.9375 L263.15625,42.34375 L260.25,42.34375 Z M271.3125,35.03125 L263.15625,35.03125 L263.15625,38.59375 L271.3125,38.59375 L271.3125,35.03125 Z" id="经销商数据后台"></path>
            </g>
        </g>
    </g>
</svg>