<?xml version="1.0" encoding="UTF-8"?>
<svg width="24px" height="26px" viewBox="0 0 24 26" version="1.1" xmlns="http://www.w3.org/2000/svg" xmlns:xlink="http://www.w3.org/1999/xlink">
    <!-- Generator: Sketch 47.1 (45422) - http://www.bohemiancoding.com/sketch -->
    <title>trash-simple</title>
    <desc>Created with Sketch.</desc>
    <defs></defs>
    <g id="I3D" stroke="none" stroke-width="1" fill="none" fill-rule="evenodd">
        <g id="14loading" transform="translate(-151.000000, -221.000000)" fill-rule="nonzero" fill="#FFFFFF">
            <g id="trash-simple" transform="translate(151.000000, 221.000000)">
                <path d="M2.48275862,5.87096774 L2.48275862,25.1612903 C2.48275862,25.6246774 2.85310345,26 3.31034483,26 L20.6896552,26 C21.1468966,26 21.5172414,25.6246774 21.5172414,25.1612903 L21.5172414,5.87096774 L2.48275862,5.87096774 Z M8.27586207,20.5483871 C8.27586207,20.779871 8.09089655,20.9677419 7.86206897,20.9677419 C7.63324138,20.9677419 7.44827586,20.779871 7.44827586,20.5483871 L7.44827586,11.3225806 C7.44827586,11.0910968 7.63324138,10.9032258 7.86206897,10.9032258 C8.09089655,10.9032258 8.27586207,11.0910968 8.27586207,11.3225806 L8.27586207,20.5483871 Z M12.4137931,20.5483871 C12.4137931,20.779871 12.2288276,20.9677419 12,20.9677419 C11.7711724,20.9677419 11.5862069,20.779871 11.5862069,20.5483871 L11.5862069,11.3225806 C11.5862069,11.0910968 11.7711724,10.9032258 12,10.9032258 C12.2288276,10.9032258 12.4137931,11.0910968 12.4137931,11.3225806 L12.4137931,20.5483871 Z M16.5517241,20.5483871 C16.5517241,20.779871 16.3667586,20.9677419 16.137931,20.9677419 C15.9091034,20.9677419 15.7241379,20.779871 15.7241379,20.5483871 L15.7241379,11.3225806 C15.7241379,11.0910968 15.9091034,10.9032258 16.137931,10.9032258 C16.3667586,10.9032258 16.5517241,11.0910968 16.5517241,11.3225806 L16.5517241,20.5483871 Z" id="Shape"></path>
                <path d="M23.5862069,4.19354839 L16.5517241,4.19354839 L16.5517241,0.419354839 C16.5517241,0.187870968 16.3667586,0 16.137931,0 L7.86206897,0 C7.63324138,0 7.44827586,0.187870968 7.44827586,0.419354839 L7.44827586,4.19354839 L0.413793103,4.19354839 C0.184965517,4.19354839 0,4.38141935 0,4.61290323 C0,4.8443871 0.184965517,5.03225806 0.413793103,5.03225806 L23.5862069,5.03225806 C23.8150345,5.03225806 24,4.8443871 24,4.61290323 C24,4.38141935 23.8150345,4.19354839 23.5862069,4.19354839 Z M15.7241379,4.19354839 L8.27586207,4.19354839 L8.27586207,0.838709677 L15.7241379,0.838709677 L15.7241379,4.19354839 Z" id="Shape"></path>
            </g>
        </g>
    </g>
</svg>