<svg xmlns="http://www.w3.org/2000/svg" width="28" height="28" viewBox="0 0 28 28">
    <g fill="none" fill-rule="evenodd">
        <path fill="#FFF" fill-opacity=".01" d="M0 0h28v28H0z"/>
        <path fill="#CCC" fill-rule="nonzero" d="M14.325 23.77a9.445 9.445 0 1 0 0-18.89 9.445 9.445 0 0 0 0 18.89zm0 .88C8.623 24.65 4 20.029 4 14.326 4 8.623 8.623 4 14.325 4c5.703 0 10.326 4.623 10.326 10.325 0 5.703-4.623 10.326-10.326 10.326z"/>
        <path fill="#CCC" fill-rule="nonzero" d="M14.314 14.838a2.405 2.405 0 0 0 2.393-2.398 2.405 2.405 0 0 0-2.393-2.397 2.405 2.405 0 0 0-2.394 2.397 2.405 2.405 0 0 0 2.394 2.398zm0 .88a3.285 3.285 0 0 1-3.274-3.278 3.285 3.285 0 0 1 3.274-3.277c1.8 0 3.273 1.475 3.273 3.277a3.285 3.285 0 0 1-3.273 3.278zM6.816 21.343c0-2.52 4.975-3.732 7.51-3.732 2.534 0 7.509 1.213 7.509 3.732h-.88c0-1.432-3.586-2.852-6.63-2.852-3.043 0-6.629 1.42-6.629 2.852h-.88zm.88 0h-.88c0-2.52 4.975-3.732 7.51-3.732 2.534 0 7.509 1.213 7.509 3.732h-.88c0-1.432-3.586-2.852-6.63-2.852-3.043 0-6.629 1.42-6.629 2.852z"/>
    </g>
</svg>
