<?xml version="1.0" encoding="UTF-8"?>
<svg width="30px" height="30px" viewBox="0 0 30 30" version="1.1" xmlns="http://www.w3.org/2000/svg" xmlns:xlink="http://www.w3.org/1999/xlink">
    <!-- Generator: Sketch 46.2 (44496) - http://www.bohemiancoding.com/sketch -->
    <title>Group 4</title>
    <desc>Created with Sketch.</desc>
    <defs></defs>
    <g id="PC_shell_admin" stroke="none" stroke-width="1" fill="none" fill-rule="evenodd">
        <g id="1登录默认" transform="translate(-431.000000, -340.000000)" fill-rule="nonzero" fill="#CCCCCC">
            <g id="factory_account" transform="translate(431.000000, 340.000000)">
                <g id="Group-4">
                    <path d="M15,27.88 C22.1134276,27.88 27.88,22.1134276 27.88,15 C27.88,7.88657242 22.1134276,2.12 15,2.12 C7.88657242,2.12 2.12,7.88657242 2.12,15 C2.12,22.1134276 7.88657242,27.88 15,27.88 Z M15,29.08 C7.22383072,29.08 0.92,22.7761693 0.92,15 C0.92,7.22383072 7.22383072,0.92 15,0.92 C22.7761693,0.92 29.08,7.22383072 29.08,15 C29.08,22.7761693 22.7761693,29.08 15,29.08 Z" id="oval"></path>
                    <path d="M14.984,15.6985953 C16.7761395,15.6985953 18.248,14.2249881 18.248,12.4292977 C18.248,10.6336072 16.7761395,9.16 14.984,9.16 C13.1918605,9.16 11.72,10.6336072 11.72,12.4292977 C11.72,14.2249881 13.1918605,15.6985953 14.984,15.6985953 Z M14.984,16.8985953 C12.5288,16.8985953 10.52,14.8874114 10.52,12.4292977 C10.52,9.97118395 12.5288,7.96 14.984,7.96 C17.4392,7.96 19.448,9.97118395 19.448,12.4292977 C19.448,14.8874114 17.4392,16.8985953 14.984,16.8985953 Z" id="shape"></path>
                    <path d="M4.76,24.5700334 C4.76,21.1342609 11.544,19.48 15,19.48 C18.456,19.48 25.24,21.1342609 25.24,24.5700334 L24.04,24.5700334 C24.04,22.6172716 19.149924,20.68 15,20.68 C10.850076,20.68 5.96,22.6172716 5.96,24.5700334 L4.76,24.5700334 Z M5.96,24.5700334 L4.76,24.5700334 C4.76,21.1342609 11.544,19.48 15,19.48 C18.456,19.48 25.24,21.1342609 25.24,24.5700334 L24.04,24.5700334 C24.04,22.6172716 19.149924,20.68 15,20.68 C10.850076,20.68 5.96,22.6172716 5.96,24.5700334 Z" id="path"></path>
                </g>
            </g>
        </g>
    </g>
</svg>