<svg xmlns="http://www.w3.org/2000/svg" width="20" height="20" viewBox="0 0 20 20">
    <path fill="#D85961" fill-rule="nonzero" d="M10 0C4.477 0 0 4.477 0 10s4.477 10 10 10 10-4.477 10-10C19.984 4.484 15.516.016 10 0zm6.503 6.982c-.328.33-.777.51-1.241.498h-.089l-1.07 2.732c.353.352.56.825.574 1.325a1.693 1.693 0 0 1-1.734 1.74 1.75 1.75 0 0 1-1.745-1.74v-.33L8.216 9.382a1.628 1.628 0 0 1-1.158.416l-1.16 2.732c.357.35.566.825.586 1.325a1.703 1.703 0 0 1-1.745 1.74 1.739 1.739 0 0 1 0-3.479h.088l1.07-2.734a1.95 1.95 0 0 1-.574-1.325A1.693 1.693 0 0 1 7.058 6.32c.96.003 1.737.78 1.744 1.74v.33l2.982 1.823c.331-.259.738-.403 1.159-.413h.078l1.158-2.735a1.95 1.95 0 0 1-.574-1.325 1.693 1.693 0 0 1 1.735-1.738 1.625 1.625 0 0 1 1.656 1.738c.013.465-.165.914-.493 1.243z" opacity=".8"/>
</svg>
