<?xml version="1.0" encoding="UTF-8"?>
<svg width="30px" height="30px" viewBox="0 0 30 30" version="1.1" xmlns="http://www.w3.org/2000/svg" xmlns:xlink="http://www.w3.org/1999/xlink">
    <title>icon / Menu  / alert Copy 5</title>
    <g id="icon-/-Menu--/-alert-Copy-5" stroke="none" stroke-width="1" fill="none" fill-rule="evenodd">
        <g id="alert-(1)" transform="translate(3.000000, 2.000000)" fill="#000000" fill-rule="nonzero" stroke="#000000" stroke-width="0.3">
            <path d="M17.0292522,2.98427949e-13 C19.2610055,2.98427949e-13 21.0892914,1.76065694 21.1980472,3.96590836 L21.2031652,4.17391304 L21.2031652,11.1652174 C21.2031652,11.7415304 20.736,12.2086957 20.159687,12.2086957 C19.6217948,12.2086957 19.1789825,11.8017428 19.1223315,11.2789186 L19.1162087,11.1652174 L19.1162087,4.17391304 C19.1162087,3.07319773 18.2596397,2.16877153 17.1780737,2.09220652 L17.0292522,2.08695652 L4.20026087,2.08695652 C3.09954556,2.08695652 2.19511936,2.94352554 2.11855435,4.02509148 L2.11330435,4.17391304 L2.11330435,22.5391304 C2.11330435,23.6398457 2.96987336,24.5442719 4.05143931,24.620837 L4.20026087,24.626087 L5.29591304,24.626087 C5.87222609,24.626087 6.3393913,25.0932522 6.3393913,25.6695652 C6.3393913,26.2074574 5.93243849,26.6502697 5.40961427,26.7069207 L5.29591304,26.7130435 L4.20026087,26.7130435 C1.96850751,26.7130435 0.140221679,24.9523865 0.0314658377,22.7471351 L0.0263478261,22.5391304 L0.0263478261,4.17391304 C0.0263478261,1.94215968 1.78700477,0.113873853 3.99225619,0.00511801159 L4.20026087,2.98427949e-13 L17.0292522,2.98427949e-13 Z M15.8874783,24.626087 C16.4637913,24.626087 16.9309565,25.0932522 16.9309565,25.6695652 C16.9309565,26.2458783 16.4637913,26.7130435 15.8874783,26.7130435 C15.3111652,26.7130435 14.8437391,26.2458783 14.8437391,25.6695652 C14.8437391,25.131673 15.2504647,24.6888608 15.7732586,24.6322097 L15.8874783,24.626087 Z M15.9249391,12.573913 C16.8735791,12.573913 17.7432737,13.02377 18.2894331,13.7870633 L18.4014261,13.9553739 L22.2047478,20.1133565 L23.7369913,22.6504174 L23.7686609,22.7298261 C24.1246957,23.622 24.0122609,24.6343826 23.4678783,25.4378609 C22.9629043,26.1830991 22.1451485,26.6480517 21.2524983,26.7067332 L21.0601565,26.7130435 L19.6437913,26.7130435 C19.0674783,26.7130435 18.600313,26.2458783 18.600313,25.6695652 C18.600313,25.131673 19.0072659,24.6888608 19.5300901,24.6322097 L19.6437913,24.626087 L21.0601565,24.626087 C21.4402435,24.626087 21.6493565,24.4012174 21.7401913,24.2671826 C21.858887,24.0919652 21.906713,23.8843203 21.8787179,23.6854012 L21.8527826,23.5674261 L20.4209739,21.1966435 L16.6258957,15.0520696 C16.4078087,14.6989565 16.0630435,14.6608696 15.9249913,14.6608696 C15.8022783,14.6608696 15.5162776,14.6910042 15.3010675,14.9456667 L15.2241391,15.0520696 L10.0889739,23.3662435 C9.90482087,23.6644278 9.95794643,23.9396056 10.0229727,24.1030093 L10.0704522,24.2032174 L10.0704522,24.2032174 C10.1334783,24.3162377 10.308056,24.5624522 10.6525951,24.6157712 L10.7898783,24.626087 L12.2350435,24.626087 C12.8113565,24.626087 13.2785217,25.0932522 13.2785217,25.6695652 C13.2785217,26.2074574 12.8715689,26.6502697 12.3487447,26.7069207 L12.2350435,26.7130435 L10.7898783,26.7130435 C9.71958261,26.7130435 8.76928696,26.1547826 8.2478087,25.2197739 C7.76065739,24.3464174 7.74958725,23.3274868 8.20798085,22.4543606 L8.3133913,22.2696 L13.4485565,13.9553739 C13.9828174,13.0903304 14.9086435,12.573913 15.9249391,12.573913 Z M15.8872174,17.5826087 C16.4251096,17.5826087 16.8679219,17.9895615 16.9245729,18.5123857 L16.9306957,18.626087 L16.9306957,22.5391304 C16.9306957,23.1154435 16.4635304,23.5826087 15.8872174,23.5826087 C15.3493252,23.5826087 14.9065129,23.1756559 14.8498619,22.6528317 L14.8437391,22.5391304 L14.8437391,18.626087 C14.8437391,18.0497739 15.3109043,17.5826087 15.8872174,17.5826087 Z M8.94803478,14.6086957 C9.52434783,14.6086957 9.99151304,15.0758609 9.99151304,15.6521739 C9.99151304,16.1900661 9.58456023,16.6328784 9.06173601,16.6895294 L8.94803478,16.6956522 L5.23789565,16.6956522 C4.66158261,16.6956522 4.19441739,16.228487 4.19441739,15.6521739 C4.19441739,15.1142817 4.6013702,14.6714694 5.12419443,14.6148184 L5.23789565,14.6086957 L8.94803478,14.6086957 Z M11.8118087,10.4347826 C12.3881217,10.4347826 12.855287,10.9019478 12.855287,11.4782609 C12.855287,12.016153 12.4483341,12.4589653 11.9255099,12.5156163 L11.8118087,12.5217391 L5.23789565,12.5217391 C4.66158261,12.5217391 4.19441739,12.0545739 4.19441739,11.4782609 C4.19441739,10.9403687 4.6013702,10.4975564 5.12419443,10.4409054 L5.23789565,10.4347826 L11.8118087,10.4347826 Z M15.9857217,6.26086957 C16.5620348,6.26086957 17.0292,6.72803478 17.0292,7.30434783 C17.0292,7.84224 16.6222472,8.28505229 16.099423,8.3417033 L15.9857217,8.34782609 L5.23789565,8.34782609 C4.66158261,8.34782609 4.19441739,7.88066087 4.19441739,7.30434783 C4.19441739,6.76645565 4.6013702,6.32364336 5.12419443,6.26699236 L5.23789565,6.26086957 L15.9857217,6.26086957 Z" id="Shape"></path>
        </g>
    </g>
</svg>