<!-- Generated by IcoMoon.io -->
<svg version="1.1" xmlns="http://www.w3.org/2000/svg" width="32" height="32" viewBox="0 0 32 32">
<title>alert</title>
<path fill="#ffa600" d="M16.471 31.624c-8.369 0-15.153-6.784-15.153-15.153s6.784-15.153 15.153-15.153c8.369 0 15.153 6.784 15.153 15.153s-6.784 15.153-15.153 15.153zM16.471 30.494c7.745 0 14.024-6.279 14.024-14.024s-6.279-14.024-14.024-14.024c-7.745 0-14.024 6.279-14.024 14.024s6.279 14.024 14.024 14.024z"></path>
<path fill="#ffa600" d="M14.927 7.529l0.612 12.456h2.080l0.612-12.456h-3.304zM16.567 21.306c-0.538 0-0.979 0.171-1.321 0.514-0.392 0.343-0.563 0.783-0.563 1.321s0.171 0.979 0.563 1.321c0.343 0.343 0.783 0.538 1.321 0.538s0.979-0.171 1.37-0.514c0.343-0.343 0.538-0.808 0.538-1.346s-0.196-0.979-0.538-1.321c-0.367-0.343-0.832-0.514-1.37-0.514z"></path>
</svg>
