<svg xmlns="http://www.w3.org/2000/svg" width="24" height="24" viewBox="0 0 24 24">
    <g fill="none" fill-rule="evenodd">
        <g fill="#DD1D21" fill-rule="nonzero">
            <g>
                <g>
                    <path d="M12 1c6.075 0 11 4.925 11 11s-4.925 11-11 11S1 18.075 1 12 5.925 1 12 1zm1.56 16.44c-.585-.586-1.535-.586-2.12 0-.586.585-.586 1.535 0 2.12.585.586 1.535.586 2.12 0 .586-.585.586-1.535 0-2.12zM12.5 5c-.782 0-1.425.666-1.494 1.515L11 6.667v6.666l.006.152c.07.85.712 1.515 1.494 1.515s1.425-.666 1.494-1.515l.006-.152V6.667l-.006-.152C13.924 5.665 13.282 5 12.5 5z" transform="translate(-155 -2351) translate(140 2341) translate(15 10)"/>
                </g>
            </g>
        </g>
    </g>
</svg>
