<?xml version="1.0" encoding="UTF-8"?>
<svg width="24px" height="24px" viewBox="0 0 24 24" version="1.1" xmlns="http://www.w3.org/2000/svg" xmlns:xlink="http://www.w3.org/1999/xlink">
    <title>icon / group / arrow-left</title>
    <g id="icon-/-group-/-arrow-left" stroke="none" stroke-width="1" fill="none" fill-rule="evenodd">
        <path d="M9.29289322,5.29289322 C9.68341751,4.90236893 10.3165825,4.90236893 10.7071068,5.29289322 C11.0675907,5.65337718 11.0953203,6.22060824 10.7902954,6.61289944 L10.7071068,6.70710678 L6.414,11 L20,11 C20.5128358,11 20.9355072,11.3860402 20.9932723,11.8833789 L21,12 C21,12.5128358 20.6139598,12.9355072 20.1166211,12.9932723 L20,13 L6.414,13 L10.7071068,17.2928932 C11.0675907,17.6533772 11.0953203,18.2206082 10.7902954,18.6128994 L10.7071068,18.7071068 C10.3466228,19.0675907 9.77939176,19.0953203 9.38710056,18.7902954 L9.29289322,18.7071068 L3.29289322,12.7071068 L3.19633458,12.5953066 L3.19633458,12.5953066 L3.12467117,12.4840621 L3.12467117,12.4840621 L3.07122549,12.371336 L3.07122549,12.371336 L3.03584514,12.265993 L3.03584514,12.265993 L3.0110178,12.1484669 L3.0110178,12.1484669 L3.00396641,12.0892501 L3.00018018,11.980824 L3.00018018,11.980824 L3.00396641,11.9107499 L3.00396641,11.9107499 L3.02024007,11.7992742 L3.02024007,11.7992742 L3.04973809,11.6878575 L3.04973809,11.6878575 L3.09367336,11.5767785 L3.09367336,11.5767785 L3.14599545,11.4792912 L3.14599545,11.4792912 L3.21278596,11.3832499 C3.23766884,11.3515341 3.26442691,11.3213595 3.29289322,11.2928932 L9.29289322,5.29289322 Z" id="Path" fill="#000000" fill-rule="nonzero"></path>
    </g>
</svg>