<?xml version="1.0" encoding="UTF-8"?>
<svg id="Layer_1" data-name="Layer 1" xmlns="http://www.w3.org/2000/svg" viewBox="0 0 24 24">
  <defs>
    <style>
      .cls-1 {
        fill: #343434;
      }
    </style>
  </defs>
  <path class="cls-1" d="M18.46,17.81H5.44V3.66h13.02v14.15Zm-12.08-.94h11.13V4.6H6.38v12.26Z"/>
  <path class="cls-1" d="M4.5,16.68H.91V5.17h3.58v11.51Zm-2.64-.94h1.7V6.11H1.86V15.74Z"/>
  <path class="cls-1" d="M22.99,16.68h-3.58V5.17h3.58v11.51Zm-2.64-.94h1.7V6.11h-1.7V15.74Z"/>
  <path class="cls-1" d="M16.95,21.96H7.33v-2.83h9.62v2.83Zm-8.68-.94h7.74v-.94h-7.74v.94Z"/>
  <path class="cls-1" d="M16.35,4.6H7.55l.58-.76c.92-1.2,2.31-1.88,3.81-1.88s2.89,.69,3.81,1.88l.58,.76Zm-6.69-.94h4.59c-.66-.49-1.45-.75-2.29-.75s-1.64,.27-2.29,.75Z"/>
  <path class="cls-1" d="M9.38,17.12l.98-5.53h-1.12l1.8-5.85h3.25l-1.04,3.4h1.27l-5.13,7.99Zm1.14-6.48h.97l-.36,2.01,1.66-2.58h-.82l1.04-3.4h-1.28l-1.22,3.96Z"/>
</svg>