<?xml version="1.0" encoding="UTF-8"?>
<svg width="22px" height="22px" viewBox="0 0 22 22" version="1.1" xmlns="http://www.w3.org/2000/svg" xmlns:xlink="http://www.w3.org/1999/xlink">
    <!-- Generator: Sketch 49.3 (51167) - http://www.bohemiancoding.com/sketch -->
    <title>Combined Shape</title>
    <desc>Created with Sketch.</desc>
    <defs></defs>
    <g id="iteration4" stroke="none" stroke-width="1" fill="none" fill-rule="evenodd">
        <g id="shell端活跃度报表下载normal" transform="translate(-1260.000000, -21.000000)" fill="#333333" fill-rule="nonzero">
            <g id="Group-23" transform="translate(1253.000000, 14.000000)">
                <path d="M26.9551332,10.5390537 L27.0820539,9.51034825 C27.150432,8.95613656 27.6333971,8.56510979 28.1607867,8.6369655 C28.6881762,8.70882121 29.0602784,9.21634912 28.9919003,9.77056081 L28.5405396,13.4288862 C28.4721377,13.9832907 27.9888764,14.3743582 27.4613372,14.3022048 L23.809367,13.8027122 C23.2820112,13.7305839 22.9101465,13.2228637 22.978784,12.6686875 C23.0474215,12.1145112 23.5305696,11.7237341 24.0579254,11.7958624 L25.8632346,12.0427808 L23.5303146,9.31942321 L18.2546176,14.8168257 C17.909747,15.176189 17.3526153,15.1770705 17.0067091,14.8188001 L11.8949181,9.52429086 C11.5470865,9.1640262 11.5440416,8.57673366 11.8881172,8.21253625 C12.2321928,7.84833885 12.7930944,7.84515074 13.140926,8.2054154 L17.6278273,12.8526986 L22.9418702,7.31533889 C23.3014493,6.94064883 23.8875205,6.95804516 24.2262488,7.35346306 L26.9551332,10.5390537 Z M11.7121232,15.7629695 C11.7121232,15.2506899 12.1087464,14.8354053 12.5980059,14.8354053 C13.0872654,14.8354053 13.4838885,15.2506899 13.4838885,15.7629695 L13.4838885,23.4168185 C13.4838885,23.9290981 13.0872654,24.3443828 12.5980059,24.3443828 C12.1087464,24.3443828 11.7121232,23.9290981 11.7121232,23.4168185 L11.7121232,15.7629695 Z M21.4568326,15.7629695 C21.4568326,15.2506899 21.8534557,14.8354053 22.3427152,14.8354053 C22.8319747,14.8354053 23.2285979,15.2506899 23.2285979,15.7629695 L23.2285979,23.4168185 C23.2285979,23.9290981 22.8319747,24.3443828 22.3427152,24.3443828 C21.8534557,24.3443828 21.4568326,23.9290981 21.4568326,23.4168185 L21.4568326,15.7629695 Z M26.7721286,19.4732265 C26.7721286,18.9609469 27.1687517,18.5456623 27.6580112,18.5456623 C28.1472707,18.5456623 28.5438939,18.9609469 28.5438939,19.4732265 L28.5438939,23.300151 C28.5438939,23.8124306 28.1472707,24.2277153 27.6580112,24.2277153 C27.1687517,24.2277153 26.7721286,23.8124306 26.7721286,23.300151 L26.7721286,19.4732265 Z M16.1415365,19.4732265 C16.1415365,18.9609469 16.5381597,18.5456623 17.0274192,18.5456623 C17.5166787,18.5456623 17.9133019,18.9609469 17.9133019,19.4732265 L17.9133019,23.300151 C17.9133019,23.8124306 17.5166787,24.2277153 17.0274192,24.2277153 C16.5381597,24.2277153 16.1415365,23.8124306 16.1415365,23.300151 L16.1415365,19.4732265 Z M27.2887088,27.1448715 C27.7779683,27.1448715 28.1745915,27.5601562 28.1745915,28.0724358 C28.1745915,28.5847153 27.7779683,29 27.2887088,29 L7.88588267,29 C7.39662318,29 7,28.5847153 7,28.0724358 L7,7.92756425 C7,7.41528466 7.39662318,7 7.88588267,7 C8.37514216,7 8.77176534,7.41528466 8.77176534,7.92756425 L8.77176534,27.1448715 L27.2887088,27.1448715 Z" id="Combined-Shape"></path>
            </g>
        </g>
    </g>
</svg>