<?xml version="1.0" encoding="UTF-8"?>
<svg width="19px" height="19px" viewBox="0 0 19 19" version="1.1" xmlns="http://www.w3.org/2000/svg" xmlns:xlink="http://www.w3.org/1999/xlink">
    <!-- Generator: Sketch 49.3 (51167) - http://www.bohemiancoding.com/sketch -->
    <title>Artboard</title>
    <desc>Created with Sketch.</desc>
    <defs>
        <path d="M11.6590909,1.65217391 C11.6590909,3.85507246 8.20454545,3.85507246 8.20454545,1.65217391 C8.20454545,-0.550724638 11.6590909,-0.550724638 11.6590909,1.65217391 Z M10.7954545,18.173913 C10.7954545,19.2753623 9.06818182,19.2753623 9.06818182,18.173913 C9.06818182,17.0724638 10.7954545,17.0724638 10.7954545,18.173913 Z M6.98125253,1.99619324 C8.03680808,3.74602899 5.29428283,5.26052174 4.23872727,3.51105314 C3.18317172,1.76268599 5.92569697,0.248193237 6.98125253,1.99619324 Z M14.8752727,16.7269758 C15.3550707,17.5229565 14.1091313,18.2113623 13.6293333,17.4153816 C13.1495354,16.6208696 14.3954747,15.9324638 14.8752727,16.7269758 Z M3.16973737,4.59524638 C4.8309899,5.51312077 3.39159596,7.8981256 1.73034343,6.98025121 C0.0675555556,6.06237681 1.50694949,3.67737198 3.16973737,4.59524638 Z M17.7014747,13.5628792 C18.365899,13.930029 17.7901414,14.8838841 17.1257172,14.5167343 C16.4601414,14.1495845 17.035899,13.1957295 17.7014747,13.5628792 Z M2.59090909,9.91304348 C2.59090909,11.5652174 0,11.5652174 0,9.91304348 C0,8.26086957 2.59090909,8.26086957 2.59090909,9.91304348 Z M19,9.91304348 C19,10.4637681 18.1363636,10.4637681 18.1363636,9.91304348 C18.1363636,9.36231884 19,9.36231884 19,9.91304348 Z M3.44418182,13.4956908 C4.21185859,14.7663961 2.21743434,15.8678454 1.44975758,14.5971401 C0.682080808,13.3249662 2.67650505,12.2235169 3.44418182,13.4956908 Z M17.6642424,5.64199034 C17.8561616,5.96030918 17.3583232,6.2356715 17.166404,5.91735266 C16.9744848,5.59903382 17.4723232,5.3236715 17.6642424,5.64199034 Z M6.12183838,16.2349952 C7.28525253,16.8775072 6.27767677,18.5469372 5.11426263,17.9044251 C3.95084848,17.261913 4.95842424,15.5924831 6.12183838,16.2349952 Z" id="path-1"></path>
    </defs>
    <g id="Artboard" stroke="none" stroke-width="1" fill="none" fill-rule="evenodd">
        <mask id="mask-2" fill="white">
            <use xlink:href="#path-1"></use>
        </mask>
        <use id="Mask" fill="#4B7FF0" xlink:href="#path-1"></use>
    </g>
</svg>