<?xml version="1.0" encoding="UTF-8"?>
<svg width="10px" height="10px" viewBox="0 0 10 10" version="1.1" xmlns="http://www.w3.org/2000/svg" xmlns:xlink="http://www.w3.org/1999/xlink">
    <title>icon / group / calulated</title>
    <defs>
        <path d="M0.625,9.0625 L0.625,0.9375 C0.625,0.419726562 1.04472656,0 1.5625,0 L8.4375,0 C8.95527344,0 9.375,0.419726562 9.375,0.9375 L9.375,9.0625 C9.375,9.58027344 8.95527344,10 8.4375,10 L1.5625,10 C1.04472656,10 0.625,9.58027344 0.625,9.0625 Z M8.125,3.515625 L8.125,1.484375 C8.125,1.35494141 8.02005859,1.25 7.890625,1.25 L2.109375,1.25 C1.97994141,1.25 1.875,1.35494141 1.875,1.484375 L1.875,3.515625 C1.875,3.64505859 1.97994141,3.75 2.109375,3.75 L7.890625,3.75 C8.02005859,3.75 8.125,3.64505859 8.125,3.515625 Z M3.125,6.015625 L3.125,5.234375 C3.125,5.10494141 3.02005859,5 2.890625,5 L2.109375,5 C1.97994141,5 1.875,5.10494141 1.875,5.234375 L1.875,6.015625 C1.875,6.14505859 1.97994141,6.25 2.109375,6.25 L2.890625,6.25 C3.02005859,6.25 3.125,6.14505859 3.125,6.015625 Z M8.125,8.515625 L8.125,5.234375 C8.125,5.10494141 8.02005859,5 7.890625,5 L7.109375,5 C6.97994141,5 6.875,5.10494141 6.875,5.234375 L6.875,8.515625 C6.875,8.64505859 6.97994141,8.75 7.109375,8.75 L7.890625,8.75 C8.02005859,8.75 8.125,8.64505859 8.125,8.515625 Z M3.125,8.515625 L3.125,7.734375 C3.125,7.60494141 3.02005859,7.5 2.890625,7.5 L2.109375,7.5 C1.97994141,7.5 1.875,7.60494141 1.875,7.734375 L1.875,8.515625 C1.875,8.64505859 1.97994141,8.75 2.109375,8.75 L2.890625,8.75 C3.02005859,8.75 3.125,8.64505859 3.125,8.515625 Z M5.625,6.015625 L5.625,5.234375 C5.625,5.10494141 5.52005859,5 5.390625,5 L4.609375,5 C4.47994141,5 4.375,5.10494141 4.375,5.234375 L4.375,6.015625 C4.375,6.14505859 4.47994141,6.25 4.609375,6.25 L5.390625,6.25 C5.52005859,6.25 5.625,6.14505859 5.625,6.015625 Z M5.625,8.515625 L5.625,7.734375 C5.625,7.60494141 5.52005859,7.5 5.390625,7.5 L4.609375,7.5 C4.47994141,7.5 4.375,7.60494141 4.375,7.734375 L4.375,8.515625 C4.375,8.64505859 4.47994141,8.75 4.609375,8.75 L5.390625,8.75 C5.52005859,8.75 5.625,8.64505859 5.625,8.515625 Z" id="path-1"></path>
    </defs>
    <g id="icon-/-group-/-calulated" stroke="none" stroke-width="1" fill="none" fill-rule="evenodd">
        <g id="🎨-color">
            <mask id="mask-2" fill="white">
                <use xlink:href="#path-1"></use>
            </mask>
            <use id="Mask" fill="#404040" xlink:href="#path-1"></use>
        </g>
    </g>
</svg>