<?xml version="1.0" encoding="UTF-8"?>
<svg width="24px" height="24px" viewBox="0 0 24 24" version="1.1" xmlns="http://www.w3.org/2000/svg" xmlns:xlink="http://www.w3.org/1999/xlink">
    <title>icon / group / chevrons-right</title>
    <g id="icon-/-group-/-chevrons-right" stroke="none" stroke-width="1" fill="none" fill-rule="evenodd">
        <path d="M12.2928932,6.29289322 C12.6533772,5.93240926 13.2206082,5.90467972 13.6128994,6.20970461 L13.7071068,6.29289322 L18.7071068,11.2928932 C19.0675907,11.6533772 19.0953203,12.2206082 18.7902954,12.6128994 L18.7071068,12.7071068 L13.7071068,17.7071068 C13.3165825,18.0976311 12.6834175,18.0976311 12.2928932,17.7071068 C11.9324093,17.3466228 11.9046797,16.7793918 12.2097046,16.3871006 L12.2928932,16.2928932 L16.5857864,12 L12.2928932,7.70710678 C11.9023689,7.31658249 11.9023689,6.68341751 12.2928932,6.29289322 Z M5.29289322,6.29289322 C5.65337718,5.93240926 6.22060824,5.90467972 6.61289944,6.20970461 L6.70710678,6.29289322 L11.7071068,11.2928932 C12.0675907,11.6533772 12.0953203,12.2206082 11.7902954,12.6128994 L11.7071068,12.7071068 L6.70710678,17.7071068 C6.31658249,18.0976311 5.68341751,18.0976311 5.29289322,17.7071068 C4.93240926,17.3466228 4.90467972,16.7793918 5.20970461,16.3871006 L5.29289322,16.2928932 L9.58578644,12 L5.29289322,7.70710678 C4.90236893,7.31658249 4.90236893,6.68341751 5.29289322,6.29289322 Z" id="Shape" fill="#000000" fill-rule="nonzero"></path>
    </g>
</svg>