<svg xmlns="http://www.w3.org/2000/svg" width="20" height="20" viewBox="0 0 20 20">
    <path fill="#7BD6C7" fill-rule="evenodd" d="M10 0c5.523 0 10 4.477 10 10s-4.477 10-10 10S0 15.523 0 10 4.477 0 10 0zm.62 7.519l-1.24 1.24.974.887c.266.354.443.797.443 1.24 0 .443-.177.886-.531 1.24l-2.481 2.482c-.71.708-1.772.708-2.481 0-.71-.71-.71-1.773 0-2.481l1.86-1.861-1.24-1.24-1.86 1.86a3.53 3.53 0 0 0 0 5.05c.708.71 1.594 1.064 2.48 1.064.886 0 1.861-.354 2.481-1.063l2.481-2.481c.71-.62 1.064-1.507 1.064-2.481 0-.975-.355-1.861-.975-2.481l-.975-.975zm5.317-3.456a3.53 3.53 0 0 0-5.05 0L8.404 6.544a3.53 3.53 0 0 0 0 5.05l.975.887 1.24-1.24-.974-.975c-.71-.709-.71-1.772 0-2.481l2.57-2.393c.62-.708 1.771-.708 2.48 0 .71.71.71 1.773 0 2.481l-1.86 1.861 1.24 1.24 1.86-1.86a3.53 3.53 0 0 0 0-5.05z" opacity=".8"/>
</svg>
