<?xml version="1.0" encoding="UTF-8"?>
<svg id="Layer_1" data-name="Layer 1" xmlns="http://www.w3.org/2000/svg" viewBox="0 0 24 24">
  <defs>
    <style>
      .cls-1 {
        fill: #343434;
      }
    </style>
  </defs>
  <path class="cls-1" d="M18.97,18.4H5.55c-.93,0-1.69-.76-1.69-1.69V7.29c0-.93,.76-1.69,1.69-1.69h13.42c.93,0,1.69,.76,1.69,1.69v9.42c0,.93-.76,1.69-1.69,1.69ZM5.55,6.4c-.49,0-.89,.4-.89,.89v9.42c0,.49,.4,.89,.89,.89h13.42c.49,0,.89-.4,.89-.89V7.29c0-.49-.4-.89-.89-.89H5.55Z"/>
  <path class="cls-1" d="M6.44,16.9c-.63,0-1.14-.51-1.14-1.14v-7.58c0-.63,.51-1.14,1.14-1.14s1.14,.51,1.14,1.14v7.58c0,.63-.51,1.14-1.14,1.14Zm0-9.06c-.19,0-.34,.15-.34,.34v7.58c0,.19,.15,.34,.34,.34s.34-.15,.34-.34v-7.58c0-.19-.15-.34-.34-.34Z"/>
  <path class="cls-1" d="M9.35,16.9c-.63,0-1.14-.51-1.14-1.14v-7.58c0-.63,.51-1.14,1.14-1.14s1.14,.51,1.14,1.14v7.58c0,.63-.51,1.14-1.14,1.14Zm0-9.06c-.19,0-.34,.15-.34,.34v7.58c0,.19,.15,.34,.34,.34s.34-.15,.34-.34v-7.58c0-.19-.15-.34-.34-.34Z"/>
  <path class="cls-1" d="M12.27,16.9c-.63,0-1.14-.51-1.14-1.14v-7.58c0-.63,.51-1.14,1.14-1.14s1.14,.51,1.14,1.14v7.58c0,.63-.51,1.14-1.14,1.14Zm0-9.06c-.19,0-.34,.15-.34,.34v7.58c0,.19,.15,.34,.34,.34s.34-.15,.34-.34v-7.58c0-.19-.15-.34-.34-.34Z"/>
  <path class="cls-1" d="M15.19,16.9c-.63,0-1.14-.51-1.14-1.14v-7.58c0-.63,.51-1.14,1.14-1.14s1.14,.51,1.14,1.14v7.58c0,.63-.51,1.14-1.14,1.14Zm0-9.06c-.19,0-.34,.15-.34,.34v7.58c0,.19,.15,.34,.34,.34s.34-.15,.34-.34v-7.58c0-.19-.15-.34-.34-.34Z"/>
  <path class="cls-1" d="M18.1,16.9c-.63,0-1.14-.51-1.14-1.14v-7.58c0-.63,.51-1.14,1.14-1.14s1.14,.51,1.14,1.14v7.58c0,.63-.51,1.14-1.14,1.14Zm0-9.06c-.19,0-.34,.15-.34,.34v7.58c0,.19,.15,.34,.34,.34s.34-.15,.34-.34v-7.58c0-.19-.15-.34-.34-.34Z"/>
  <path class="cls-1" d="M22.8,17.4h-.76c-.35,0-.64-.29-.64-.64v-2.52c0-.35,.29-.64,.64-.64h.76c.35,0,.64,.29,.64,.64v2.52c0,.35-.29,.64-.64,.64Zm-.6-.8h.44v-2.2h-.44v2.2Z"/>
  <g>
    <rect class="cls-1" x="20.04" y="14.36" width="1.76" height=".8"/>
    <rect class="cls-1" x="20.04" y="15.84" width="2" height=".8"/>
  </g>
  <g>
    <rect class="cls-1" x="2.67" y="8.3" width="1.35" height=".8"/>
    <rect class="cls-1" x="2.67" y="9.78" width="1.59" height=".8"/>
  </g>
  <path class="cls-1" d="M2,10.86c-.78,0-1.42-.64-1.42-1.42s.64-1.42,1.42-1.42,1.42,.64,1.42,1.42-.64,1.42-1.42,1.42Zm0-2.04c-.34,0-.62,.28-.62,.62s.28,.62,.62,.62,.62-.28,.62-.62-.28-.62-.62-.62Z"/>
</svg>