<?xml version="1.0" encoding="UTF-8"?>
<svg width="30px" height="30px" viewBox="0 0 30 30" version="1.1" xmlns="http://www.w3.org/2000/svg" xmlns:xlink="http://www.w3.org/1999/xlink">
    <title>icon / Menu  / manage Copy 5</title>
    <g id="icon-/-Menu--/-manage-Copy-5" stroke="none" stroke-width="1" fill="none" fill-rule="evenodd">
        <g id="002-business-report" transform="translate(0.000000, 1.000000)" fill="#000000" fill-rule="nonzero">
            <path d="M27.3632812,0 L2.63671875,0 C1.18283203,0 0,1.18283203 0,2.63671875 L0,19.7460938 C0,21.1999805 1.18283203,22.3828125 2.63671875,22.3828125 L11.1499805,22.3828125 L10.5054492,26.25 L9.375,26.25 C8.88960938,26.25 8.49609375,26.6435156 8.49609375,27.1289062 C8.49609375,27.6142969 8.88960938,28.0078125 9.375,28.0078125 L20.625,28.0078125 C21.1103906,28.0078125 21.5039062,27.6142969 21.5039062,27.1289062 C21.5039062,26.6435156 21.1103906,26.25 20.625,26.25 L19.4945508,26.25 L18.8500195,22.3828125 L27.3632812,22.3828125 C28.817168,22.3828125 30,21.1999805 30,19.7460938 L30,2.63671875 C30,1.18283203 28.817168,0 27.3632812,0 Z M17.7124805,26.25 L12.2875195,26.25 L12.9320508,22.3828125 L17.0679492,22.3828125 L17.7124805,26.25 Z M28.2421875,19.7460938 C28.2421875,20.2307227 27.8479102,20.625 27.3632812,20.625 C26.7362109,20.625 3.37224609,20.625 2.63671875,20.625 C2.15208984,20.625 1.7578125,20.2307227 1.7578125,19.7460938 L1.7578125,2.63671875 C1.7578125,2.15208984 2.15208984,1.7578125 2.63671875,1.7578125 L14.1210938,1.7578125 L14.1210938,2.75390625 C14.1210938,3.23929687 14.5146094,3.6328125 15,3.6328125 C15.4853906,3.6328125 15.8789062,3.23929687 15.8789062,2.75390625 L15.8789062,1.7578125 L27.3632812,1.7578125 C27.8479102,1.7578125 28.2421875,2.15208984 28.2421875,2.63671875 L28.2421875,19.7460938 Z" id="Shape"></path>
            <path d="M12.1875,11.25 C11.7021094,11.25 11.3085938,11.6435156 11.3085938,12.1289062 L11.3085938,15 L9.31640625,15 L9.31640625,9.31640625 C9.31640625,8.83101563 8.92289063,8.4375 8.4375,8.4375 C7.95210938,8.4375 7.55859375,8.83101563 7.55859375,9.31640625 L7.55859375,15 L5.56640625,15 L5.56640625,6.50390625 C5.56640625,6.01851563 5.17289063,5.625 4.6875,5.625 C4.20210938,5.625 3.80859375,6.01851563 3.80859375,6.50390625 L3.80859375,15.8789062 C3.80859375,16.3642969 4.20210938,16.7578125 4.6875,16.7578125 L12.1875,16.7578125 C12.6728906,16.7578125 13.0664062,16.3642969 13.0664062,15.8789062 L13.0664062,12.1289062 C13.0664062,11.6435156 12.6728906,11.25 12.1875,11.25 Z" id="Path"></path>
            <path d="M21.09375,6.09375 C18.2828906,6.09375 15.9960938,8.38054688 15.9960938,11.1914062 C15.9960938,12.5758008 16.5510937,13.8328711 17.4499805,14.7524414 C17.4903516,14.7985547 17.488418,14.7963281 17.5326562,14.8351172 C18.4522266,15.7340039 19.7092969,16.2890625 21.09375,16.2890625 C23.9046094,16.2890625 26.1914062,14.0022656 26.1914062,11.1914062 C26.1914062,8.38054688 23.9046094,6.09375 21.09375,6.09375 Z M24.3154102,10.3125 L21.9726562,10.3125 L21.9726562,7.96974609 C23.1088477,8.28005859 24.0050977,9.17630859 24.3154102,10.3125 Z M20.2148438,7.96974609 L20.2148438,10.8273633 L18.1950586,12.8471484 C17.1084375,10.9522852 18.1179492,8.5425 20.2148438,7.96974609 Z M19.4380078,14.0900977 L21.457793,12.0703125 L24.3154102,12.0703125 C23.7417773,14.1702539 21.330293,15.1751953 19.4380078,14.0900977 Z" id="Shape"></path>
        </g>
    </g>
</svg>