<!-- Generated by IcoMoon.io -->
<svg version="1.1" xmlns="http://www.w3.org/2000/svg" width="32" height="32" viewBox="0 0 32 32">
<title>delete_pic</title>
<path fill="#c7c7cc" d="M26.56 9.136v19.024c0 1.737-1.254 3.2-2.88 3.2h-15.36c-1.626 0-2.88-1.463-2.88-3.2v-19.024h-3.84v-1.536h28v1.536h-3.040zM24.64 9.136h-17.28v19.024c0 0.737 0.465 1.28 0.96 1.28h15.36c0.495 0 0.96-0.543 0.96-1.28v-19.024zM10.56 7.6h-1.92v-2.4c0-1.694 1.621-2.96 3.52-2.96h7.68c1.899 0 3.52 1.266 3.52 2.96v2.4h-1.92v-2.4c0-0.515-0.672-1.040-1.6-1.040h-7.68c-0.928 0-1.6 0.525-1.6 1.040v2.4z"></path>
<path fill="#c7c7cc" d="M12.72 15.6v0c0.619 0 1.12 0.501 1.12 1.12v4.107c0 0.619-0.501 1.12-1.12 1.12v0c-0.619 0-1.12-0.501-1.12-1.12v-4.107c0-0.619 0.501-1.12 1.12-1.12z"></path>
<path fill="#c7c7cc" d="M18.987 15.6v0c0.619 0 1.12 0.501 1.12 1.12v4.16c0 0.619-0.501 1.12-1.12 1.12v0c-0.619 0-1.12-0.501-1.12-1.12v-4.16c0-0.619 0.501-1.12 1.12-1.12z"></path>
</svg>
