<svg xmlns="http://www.w3.org/2000/svg" width="24" height="24" viewBox="0 0 24 24">
    <g fill="none" fill-rule="evenodd">
        <g fill="#000" fill-rule="nonzero">
            <g>
                <path d="M5.293 5.293c.36-.36.928-.388 1.32-.083l.094.083L12 10.585l5.293-5.292c.36-.36.928-.388 1.32-.083l.094.083c.36.36.388.928.083 1.32l-.083.094L13.415 12l5.292 5.293c.36.36.388.928.083 1.32l-.083.094c-.36.36-.928.388-1.32.083l-.094-.083L12 13.415l-5.293 5.292c-.36.36-.928.388-1.32.083l-.094-.083c-.36-.36-.388-.928-.083-1.32l.083-.094L10.585 12 5.293 6.707c-.36-.36-.388-.928-.083-1.32l.083-.094z" transform="translate(-1383 -174) translate(1383 174)"/>
            </g>
        </g>
    </g>
</svg>
