<?xml version="1.0" encoding="UTF-8"?>
<svg width="10px" height="12px" viewBox="0 0 10 12" version="1.1" xmlns="http://www.w3.org/2000/svg" xmlns:xlink="http://www.w3.org/1999/xlink">
    <!-- Generator: Sketch 49.3 (51167) - http://www.bohemiancoding.com/sketch -->
    <title>doc</title>
    <desc>Created with Sketch.</desc>
    <defs></defs>
    <g id="Symbols" stroke="none" stroke-width="1" fill="none" fill-rule="evenodd">
        <g id="distributor_list2" transform="translate(-1365.000000, -4.000000)" fill="#000000" fill-rule="nonzero">
            <g id="doc" transform="translate(1365.000000, 4.000000)">
                <path d="M7.6388188,0 L0.82951955,0 C0.372387631,0 0,0.33044798 0,0.735906571 L0,11.2640934 C0,11.670015 0.372387631,12 0.82951955,12 L9.17030644,12 C9.62796039,12 10,11.670015 10,11.2640934 L10,2.27547621 L7.6388188,0 Z M7.83458333,1.10123603 L8.86961213,2.09875368 L7.83458333,2.09875368 L7.83458333,1.10123603 Z M9.3032523,11.2639391 C9.3032523,11.3289174 9.24339186,11.3820113 9.17013242,11.3820113 L0.82951955,11.3820113 C0.756260115,11.3820113 0.696747699,11.3289174 0.696747699,11.2639391 L0.696747699,0.735906571 C0.696747699,0.670928243 0.756260115,0.618297341 0.82951955,0.618297341 L7.13766161,0.618297341 L7.13766161,2.40790235 C7.13766161,2.57829683 7.29409922,2.71643365 7.48620948,2.71643365 L9.3032523,2.71643365 L9.3032523,11.2639391 Z M1.92580089,3.28673038 L7.84223989,3.28673038 C7.98632259,3.28673038 8.10325926,3.39044875 8.10325926,3.51824461 C8.10325926,3.64604046 7.98632259,3.74975884 7.84223989,3.74975884 L1.92580089,3.74975884 C1.7817182,3.74975884 1.66478153,3.64604046 1.66478153,3.51824461 C1.66478153,3.39044875 1.7817182,3.28673038 1.92580089,3.28673038 Z M8.10325926,5.07402024 C8.10325926,5.2018161 7.98632259,5.30553448 7.84223989,5.30553448 L1.92580089,5.30553448 C1.7817182,5.30553448 1.66478153,5.2018161 1.66478153,5.07402024 C1.66478153,4.94622439 1.7817182,4.84250601 1.92580089,4.84250601 L7.84223989,4.84250601 C7.98632259,4.84250601 8.10325926,4.94622439 8.10325926,5.07402024 Z M8.10325926,6.57886275 C8.10325926,6.70665861 7.98632259,6.81037698 7.84223989,6.81037698 L1.92580089,6.81037698 C1.7817182,6.81037698 1.66478153,6.70665861 1.66478153,6.57886275 C1.66478153,6.45106689 1.7817182,6.34734852 1.92580089,6.34734852 L7.84223989,6.34734852 C7.98632259,6.34734852 8.10325926,6.45106689 8.10325926,6.57886275 Z M8.10325926,8.10932616 C8.10325926,8.23712202 7.98632259,8.3408404 7.84223989,8.3408404 L1.92580089,8.3408404 C1.7817182,8.3408404 1.66478153,8.23712202 1.66478153,8.10932616 C1.66478153,7.98153031 1.7817182,7.87781193 1.92580089,7.87781193 L7.84223989,7.87781193 C7.98632259,7.87781193 8.10325926,7.98153031 8.10325926,8.10932616 Z" id="Shape"></path>
            </g>
        </g>
    </g>
</svg>