<svg xmlns="http://www.w3.org/2000/svg" width="20" height="20" viewBox="0 0 20 20">
    <defs>
        <filter id="k66veumyaa">
            <feColorMatrix in="SourceGraphic" values="0 0 0 0 0.984314 0 0 0 0 0.807843 0 0 0 0 0.027451 0 0 0 1.000000 0"/>
        </filter>
    </defs>
    <g fill="none" fill-rule="evenodd">
        <g>
            <g>
                <g filter="url(#k66veumyaa)" transform="translate(-1293 -99) translate(25 15) translate(1253 74)">
                    <g>
                        <path fill="#000" fill-rule="nonzero" d="M10.008 9.177c.427 0 .78.321.827.736l.006.097v5.488l1.91-1.91c.301-.301.774-.324 1.1-.07l.08.07c.3.3.323.772.068 1.1l-.069.078-3.333 3.333-.037.035-.056.046-.09.058-.09.043-.095.032-.098.021-.078.008h-.09l-.101-.011-.076-.018-.123-.044-.092-.049-.052-.035-.052-.04-.049-.046-3.333-3.333c-.325-.326-.325-.853 0-1.179.3-.3.773-.323 1.1-.069l.079.07 1.91 1.91V10.01c0-.427.322-.78.736-.828l.098-.005zM.849 5.7c1.437-2.755 4.423-4.34 7.51-3.984 2.783.32 5.129 2.16 6.129 4.725l.087.236h.432c2.181-.002 4.112 1.41 4.77 3.49.66 2.079-.106 4.345-1.89 5.6-.377.264-.896.174-1.161-.203-.265-.376-.174-.896.202-1.16 1.19-.837 1.7-2.348 1.26-3.734-.421-1.33-1.624-2.252-3.007-2.322l-.173-.005h-1.05c-.38 0-.713-.257-.808-.626-.6-2.34-2.582-4.069-4.982-4.345-2.401-.277-4.724.956-5.84 3.098-1.118 2.143-.798 4.753.804 6.563.305.344.272.871-.072 1.176-.345.305-.871.273-1.176-.072C-.176 11.81-.586 8.455.849 5.7z" transform="translate(15 10)"/>
                    </g>
                </g>
            </g>
        </g>
    </g>
</svg>
