<svg xmlns="http://www.w3.org/2000/svg" xmlns:xlink="http://www.w3.org/1999/xlink" width="20" height="20" viewBox="0 0 20 20">
    <defs>
        <path id="a" d="M9.783 17.217c0 1.044-1.566 1.044-1.566 0 0-1.043 1.566-1.043 1.566 0zm-4.236-1.836c1.055.608.142 2.19-.913 1.581-1.054-.609-.14-2.19.913-1.581zm7.933.466c.434.754-.695 1.406-1.13.652-.434-.753.695-1.405 1.13-.652zM3.12 12.785c.696 1.204-1.112 2.248-1.807 1.044-.696-1.205 1.111-2.249 1.807-1.044zm12.92.064c.602.348.08 1.252-.522.904-.603-.348-.081-1.252.522-.904zM2.348 9.391c0 1.566-2.348 1.566-2.348 0 0-1.565 2.348-1.565 2.348 0zm14.87 0c0 .522-.783.522-.783 0 0-.521.782-.521.782 0zM2.871 4.353c1.506.87.201 3.13-1.304 2.26-1.507-.87-.202-3.13 1.304-2.26zm13.135.992c.174.302-.277.562-.451.26-.174-.3.277-.562.451-.26zm-9.68-3.454c.956 1.658-1.53 3.093-2.486 1.435C2.885 1.67 5.37.236 6.326 1.891zm4.238-.326c0 2.087-3.13 2.087-3.13 0s3.13-2.087 3.13 0z"/>
    </defs>
    <use fill="#C8E4FF" fill-rule="evenodd" transform="translate(1 1)" xlink:href="#a"/>
</svg>
