<svg xmlns="http://www.w3.org/2000/svg" width="20" height="20" viewBox="0 0 20 20">
    <defs>
        <filter id="ciyqh9gzoa">
            <feColorMatrix in="SourceGraphic" values="0 0 0 0 0.250980 0 0 0 0 0.250980 0 0 0 0 0.250980 0 0 0 1.000000 0"/>
        </filter>
    </defs>
    <g fill="none" fill-rule="evenodd">
        <g filter="url(#ciyqh9gzoa)" transform="translate(-1352 -150)">
            <g>
                <path fill="#000" fill-rule="nonzero" d="M7.783 2.5c.46 0 .834.373.834.833 0 .428-.322.78-.736.828l-.098.006h-4.45c-.427 0-.78.321-.827.736L2.5 5v11.667c0 .427.322.78.736.827l.097.006H15c.427 0 .78-.322.828-.736l.005-.097v-4.45c0-.46.373-.834.834-.834.427 0 .78.322.827.736l.006.098v4.45c0 1.331-1.04 2.42-2.353 2.495l-.147.005H3.333c-1.331 0-2.42-1.041-2.495-2.353l-.005-.147V5c0-1.331 1.041-2.42 2.353-2.496l.147-.004h4.45zm7.806-1.423l3.334 3.334c.325.325.325.853 0 1.178l-8.334 8.334c-.156.156-.368.244-.589.244H6.667c-.46 0-.834-.373-.834-.834V10c0-.221.088-.433.244-.59l8.334-8.333c.325-.325.853-.325 1.178 0zM15 2.845l-7.5 7.5V12.5h2.155l7.5-7.5L15 2.845z" transform="translate(1352 150)"/>
            </g>
        </g>
    </g>
</svg>
