<?xml version="1.0" encoding="UTF-8"?>
<svg width="30px" height="30px" viewBox="0 0 30 30" version="1.1" xmlns="http://www.w3.org/2000/svg" xmlns:xlink="http://www.w3.org/1999/xlink">
    <title>icon / Menu  / manage Copy 3</title>
    <g id="icon-/-Menu--/-manage-Copy-3" stroke="none" stroke-width="1" fill="none" fill-rule="evenodd">
        <g id="005-process" fill="#000000" fill-rule="nonzero">
            <path d="M23.9394727,14.4001758 C23.3885156,14.2535742 22.9918945,13.8938086 22.7923828,13.3597852 C22.7061914,13.1289258 22.6103906,12.8979492 22.5077344,12.6733594 C22.2704297,12.1543359 22.2963281,11.6189062 22.5826172,11.1251367 C23.1992578,10.0616016 23.0237109,8.71253906 22.1557031,7.84458984 C21.2876953,6.97652344 19.9386328,6.80097656 18.8750977,7.41767578 C18.3813281,7.70396484 17.8460156,7.72986328 17.3269336,7.49261719 C17.1026367,7.39007812 16.8716602,7.29433594 16.6405664,7.20802734 C16.1064844,7.00863281 15.7467188,6.61195312 15.6000586,6.06087891 C15.2840039,4.87294922 14.2059961,4.04326172 12.9785156,4.04326172 C11.7510352,4.04326172 10.6729688,4.87294922 10.3569727,6.06087891 C10.2103711,6.61189453 9.85054688,7.00851562 9.31652344,7.20796875 C9.08560547,7.29421875 8.85462891,7.38990234 8.63009766,7.49255859 C8.11113281,7.72986328 7.57576172,7.70396484 7.08193359,7.41761719 C6.01839844,6.80091797 4.66933594,6.97652344 3.80132813,7.84458984 C2.74382813,8.90203125 2.74382813,10.6226953 3.80132813,11.6801367 L3.90714844,11.785957 C3.44695313,12.5800781 3.09673828,13.424707 2.86066406,14.3095312 L2.7121875,14.3095312 C1.21669922,14.3095312 3.33066907e-15,15.5261719 3.33066907e-15,17.0217188 C3.33066907e-15,18.2491992 0.8296875,19.327207 2.01755859,19.6432617 C2.56851563,19.7898633 2.96519531,20.1496875 3.16464844,20.6837109 C3.25089844,20.9145703 3.34664063,21.1455469 3.44929688,21.3701367 C3.68660156,21.8891602 3.66070313,22.4245312 3.37441406,22.9183008 C2.75777344,23.9818359 2.93332031,25.3308398 3.80138672,26.1988477 C4.66939453,27.0668555 6.01851563,27.2424609 7.08199219,26.6257617 C7.57582031,26.3394141 8.11113281,26.3135156 8.63021484,26.5508203 C8.8546875,26.653418 9.08560547,26.7491602 9.31658203,26.8354102 C9.85066406,27.0348047 10.2104297,27.4314844 10.3570313,27.9825 C10.6730859,29.1704297 11.7510938,30.0001758 12.9785742,30.0001758 C14.2060547,30.0001758 15.2841211,29.1704883 15.6001172,27.9825586 C15.7467188,27.431543 16.106543,27.0348633 16.6406836,26.8354102 C16.8721289,26.7489258 17.1031055,26.6531836 17.3269336,26.5508203 C17.845957,26.3136328 18.3813281,26.3394727 18.8750977,26.6257617 C19.9386914,27.2423438 21.2876367,27.0668555 22.1556445,26.1988477 C23.0237109,25.3308984 23.1993164,23.9818359 22.5826172,22.9183008 C22.2963281,22.4244727 22.2704297,21.8891016 22.5077344,21.3700781 C22.6103906,21.1454883 22.7061914,20.9145703 22.7923828,20.6835938 C22.9918359,20.1495703 23.388457,19.7898047 23.9394141,19.6432031 C25.1273438,19.3271484 25.9570313,18.2491406 25.9570313,17.0217773 C25.9570313,15.7942383 25.1273438,14.7162305 23.9394727,14.4001758 L23.9394727,14.4001758 Z M23.4874805,17.9445703 C22.3787695,18.2396484 21.5471484,18.9939844 21.1457227,20.0686523 C21.0740625,20.2606055 20.9944336,20.4526172 20.9091211,20.6392383 C20.431582,21.6837891 20.4858398,22.8062695 21.0619922,23.8000195 C21.2795508,24.1751953 21.2182031,24.6505664 20.9128125,24.955957 C20.6074805,25.2613477 20.1321094,25.3226367 19.756875,25.1051367 C18.7632422,24.5289844 17.6407617,24.474668 16.5960938,24.9522656 C16.41,25.0373438 16.2180469,25.1169727 16.0256836,25.1888086 C14.9508398,25.5901758 14.1964453,26.4218555 13.9014258,27.5307422 C13.7899219,27.9498047 13.4104688,28.2424805 12.9785742,28.2424805 C12.5467383,28.2424805 12.1672266,27.9498047 12.0557227,27.5306836 C11.7606445,26.4218555 11.00625,25.5901172 9.93146484,25.1888086 C9.73951172,25.1170898 9.54755859,25.0375195 9.36099609,24.9522656 C8.89001953,24.7369336 8.40328125,24.6297656 7.91958984,24.6297656 C7.33042969,24.6297656 6.74589844,24.7887891 6.20021484,25.1051953 C5.82498047,25.3226953 5.34966797,25.2614062 5.04421875,24.955957 C4.73882812,24.650625 4.67748047,24.1753125 4.89503906,23.8000781 C5.47119141,22.8063867 5.52544922,21.6838477 5.04796875,20.6393555 C4.96259766,20.4526172 4.88302734,20.2606641 4.81130859,20.0687695 C4.40994141,18.994043 3.57832031,18.2396484 2.46949219,17.9445703 C2.05048828,17.8330664 1.7578125,17.4535547 1.7578125,17.0217187 C1.7578125,16.4954883 2.18595703,16.0673437 2.7121875,16.0673437 L3.55998047,16.0673437 C3.98097656,16.0673437 4.34285156,15.7688086 4.42289062,15.3554297 C4.64566406,14.2044727 5.09267578,13.1264062 5.7515625,12.1510547 C5.98716797,11.8022461 5.94240234,11.3353125 5.64474609,11.0375977 L5.04433594,10.4371875 C4.67220703,10.0650586 4.67220703,9.45960937 5.04433594,9.08748047 C5.34972656,8.78214844 5.82503906,8.72074219 6.20027344,8.93830078 C7.19396484,9.51445312 8.31650391,9.56882812 9.3609375,9.09123047 C9.54755859,9.00591797 9.73951172,8.92634766 9.93146484,8.8546875 C11.00625,8.45332031 11.7606445,7.62164062 12.0556641,6.5128125 C12.167168,6.09375 12.5466211,5.80107422 12.9785156,5.80107422 C13.4103516,5.80107422 13.7898633,6.09375 13.9013672,6.5128125 C14.1964453,7.62164062 14.9508398,8.45337891 16.025625,8.8546875 C16.2177539,8.92640625 16.4096484,9.00603516 16.5960938,9.09123047 C17.6406445,9.56871094 18.763125,9.51439453 19.7567578,8.93830078 C20.131875,8.72068359 20.6073047,8.78208984 20.9126953,9.08753906 C21.2180859,9.39287109 21.2794336,9.86824219 21.061875,10.243418 C20.4857227,11.2371094 20.4314648,12.3596484 20.9090039,13.4041992 C20.994375,13.5909375 21.0740039,13.7828906 21.1456641,13.9747852 C21.5470898,15.0495117 22.3787109,15.8038477 23.4874219,16.0988672 C23.9064844,16.2103711 24.1991602,16.5898828 24.1991602,17.0217187 C24.1991602,17.4535547 23.906543,17.8330664 23.4874805,17.9445703 Z" id="Shape"></path>
            <path d="M29.3053125,5.04451172 L28.9968164,4.88660156 C29.05125,4.62375 29.0728711,4.35585937 29.0612695,4.08773437 L29.3910352,3.98126953 C29.8529883,3.83214844 30.106582,3.33679688 29.9574609,2.87490234 C29.8083398,2.41294922 29.3128125,2.15947266 28.8510938,2.30847656 L28.5212695,2.41494141 C28.3739063,2.19058594 28.1997656,1.98591797 28.0018945,1.80451172 L28.1598633,1.49601563 C28.3810547,1.06394531 28.2100781,0.534375 27.7780078,0.313125 C27.3459375,0.091875 26.8163672,0.262851563 26.5951172,0.694980469 L26.4366797,1.00447266 C26.171543,0.95015625 25.9038281,0.929589844 25.6389258,0.941074219 L25.5318164,0.609257813 C25.3827539,0.147304688 24.8873437,-0.106289062 24.4254492,0.0428320313 C23.9634961,0.191953125 23.7099609,0.687304688 23.8590234,1.14919922 L23.9661328,1.48095703 C23.7445312,1.62650391 23.5393359,1.79976563 23.3559961,1.99886719 L23.0465039,1.84042969 C22.6144336,1.61929688 22.0848633,1.79015625 21.8636133,2.22228516 C21.6424219,2.65435547 21.8133984,3.18392578 22.2454687,3.40517578 L22.5539648,3.56308594 C22.4995312,3.8259375 22.4779687,4.09376953 22.4895703,4.36195313 L22.1597461,4.46841797 C21.6978516,4.61748047 21.4442578,5.11289062 21.5933203,5.57478516 C21.7134961,5.94703125 22.0584375,6.18392578 22.4295117,6.18392578 C22.5189844,6.18392578 22.6099805,6.17015625 22.6996875,6.14121094 L23.0294531,6.03474609 C23.1768164,6.25910156 23.350957,6.46376953 23.5487695,6.64517578 L23.3908008,6.95373047 C23.1696094,7.38580078 23.3405859,7.91537109 23.7726562,8.1365625 C23.9008594,8.20224609 24.0376172,8.23330078 24.1724414,8.23330078 C24.4918359,8.23330078 24.7999805,8.05857422 24.9554883,7.75470703 L25.1135742,7.44585938 C25.3304297,7.49074219 25.5505664,7.51470703 25.7716406,7.51470703 C25.8185742,7.51470703 25.8655078,7.51347656 25.9124414,7.51142578 L26.0186719,7.84048828 C26.1388477,8.21273438 26.4837891,8.44962891 26.8548633,8.44962891 C26.9443359,8.44962891 27.035332,8.43585937 27.1250391,8.40691406 C27.5869922,8.25779297 27.8405273,7.76244141 27.6914648,7.30048828 L27.585,6.97072266 C27.8093555,6.82335938 28.0140234,6.64921875 28.1954297,6.45140625 L28.5039844,6.609375 C28.6321875,6.67505859 28.7689453,6.70611328 28.9037695,6.70611328 C29.2231641,6.70611328 29.5313086,6.53138672 29.6868164,6.22751953 C29.9083594,5.79527344 29.7373828,5.26570313 29.3053125,5.04451172 L29.3053125,5.04451172 Z M27.1376953,4.92222656 C26.7531445,5.67333984 25.8292969,5.97169922 25.0780664,5.58703125 C24.3269531,5.20248047 24.0287109,4.27851562 24.4132617,3.52740234 C24.6838477,2.99888672 25.2214453,2.69460937 25.7780273,2.69460937 C26.0124609,2.69460937 26.250293,2.74863281 26.4729492,2.86259766 C27.2240625,3.24708984 27.5222461,4.17105469 27.1376953,4.92222656 Z" id="Shape"></path>
            <path d="M12.9785742,10.1541211 C16.7653711,10.1541211 19.8461719,13.2349219 19.8461719,17.0217188 C19.8461719,20.8085156 16.7653711,23.8893164 12.9785742,23.8893164 C9.19177734,23.8893164 6.11097656,20.8085156 6.11097656,17.0217188 C6.11097656,13.2349219 9.19177734,10.1541211 12.9785742,10.1541211 Z M12.9785742,20.2228125 C12.0036328,20.2228125 11.1134766,20.7312305 10.6086914,21.5475586 C11.3174414,21.9202148 12.12375,22.1315039 12.9785742,22.1315039 C13.8327539,22.1315039 14.6385352,21.9205078 15.3469922,21.5483789 C14.8443164,20.7441211 13.9476563,20.2228125 12.9785742,20.2228125 Z M12.9786328,11.9118164 C10.1610937,11.9118164 7.86884766,14.2040625 7.86884766,17.0216016 C7.86884766,18.3498047 8.37837891,19.5611133 9.21199219,20.4707227 C9.58728516,19.9139648 10.0763086,19.4530078 10.6398633,19.1139844 C10.1420508,18.5581641 9.83859375,17.8248047 9.83859375,17.0216602 C9.83859375,15.290332 11.2472461,13.8817383 12.9785742,13.8817383 C14.7099023,13.8817383 16.1184961,15.2902734 16.1184961,17.0216602 C16.1184961,17.8256836 15.8143945,18.5598633 15.3155859,19.115918 C15.4457227,19.194668 15.5730469,19.2794531 15.6963867,19.3719141 C16.1043164,19.6776563 16.4581055,20.0527148 16.7428711,20.4732422 C17.5778906,19.5633398 18.088418,18.3510938 18.088418,17.0216016 C18.088418,14.2040625 15.7961719,11.9118164 12.9786328,11.9118164 Z M12.9785742,15.6396094 C12.2164453,15.6396094 11.5964063,16.2595898 11.5964063,17.0217188 C11.5964063,17.7838477 12.2165039,18.4038867 12.9785742,18.4038867 C13.7406445,18.4038867 14.3606836,17.7837891 14.3606836,17.0217188 C14.3606836,16.2596484 13.7407031,15.6396094 12.9785742,15.6396094 Z" id="Shape"></path>
        </g>
    </g>
</svg>