<?xml version="1.0" encoding="UTF-8"?>
<svg width="24px" height="24px" viewBox="0 0 24 24" version="1.1" xmlns="http://www.w3.org/2000/svg" xmlns:xlink="http://www.w3.org/1999/xlink">
    <title>icon / group / factory</title>
    <g id="icon-/-group-/-factory" stroke="none" stroke-width="1" fill="none" fill-rule="evenodd">
        <g id="factory-(1)" transform="translate(0.000000, 2.000000)" fill="#000000" fill-rule="nonzero">
            <rect id="Rectangle" x="17.0810811" y="4" width="5.08108108" height="1.51351351"></rect>
            <path d="M11.8826267,14.9189189 L5.09034631,14.9189189 C4.66725277,14.9189189 4.32432432,15.2618266 4.32432432,15.6848946 L4.32432432,20 L5.85641517,20 L5.85641517,16.4508702 L11.1165578,16.4508702 L11.1165578,20 L12.6486486,20 L12.6486486,15.6848946 C12.6486486,15.2618266 12.3057202,14.9189189 11.8826267,14.9189189 Z" id="Path"></path>
            <path d="M23.9984291,19.9390763 L22.7729303,0.71982225 C22.7471491,0.314933996 22.4124151,0 22.0084936,0 L17.3616857,0 C16.9580455,0 16.6235459,0.314416477 16.5977646,0.718551975 L15.9870309,10.0965186 L12.1023629,10.0965186 L12.1023629,7.12369972 C12.1023629,6.83642948 11.9428005,6.57324742 11.6887383,6.44104477 C11.4346761,6.30907735 11.128817,6.33010746 10.8946766,6.49538429 L6.81697755,9.38210675 L6.81697755,7.12369972 C6.81697755,6.83642948 6.65764958,6.57324742 6.40363421,6.44104477 C6.14933759,6.30907735 5.84347852,6.33010746 5.60957251,6.49538429 L0.3245153,10.2369545 C0.121031129,10.380966 0,10.615167 0,10.8652699 L0,19.9880054 C0,20.4126064 0.342890282,20.7567568 0.765936733,20.7567568 L23.2340392,20.7567568 C23.4456797,20.7567568 23.6478982,20.6688726 23.7926949,20.5140873 C23.9374448,20.359349 24.011976,20.151024 23.9984291,19.9390763 Z M15.3929377,19.2192541 L1.53192034,19.2192541 L1.53192034,11.2637597 L5.28510408,8.60714517 L5.28510408,10.8655522 C5.28510408,11.1525402 5.44443205,11.4157222 5.69844742,11.5479719 C5.95297841,11.6804568 6.25888436,11.6591915 6.49250912,11.4936324 L10.5702082,8.60690994 L10.5702082,10.865317 C10.5702082,11.289918 10.9130984,11.6340683 11.3361449,11.6340683 L15.8869528,11.6340683 L15.3929377,19.2192541 Z M16.9281393,19.2192541 L18.0793881,1.53750269 L21.2900412,1.53750269 L22.4175244,19.2192541 L16.9281393,19.2192541 Z" id="Shape"></path>
        </g>
    </g>
</svg>