<?xml version="1.0" encoding="UTF-8"?>
<svg width="28px" height="25px" viewBox="0 0 28 25" version="1.1" xmlns="http://www.w3.org/2000/svg" xmlns:xlink="http://www.w3.org/1999/xlink">
    <!-- Generator: Sketch 60 (88103) - https://sketch.com -->
    <title>形状结合</title>
    <desc>Created with Sketch.</desc>
    <g id="页面-1" stroke="none" stroke-width="1" fill="none" fill-rule="evenodd">
        <path d="M26.25,17.5 C27.215625,17.5 28,18.284375 28,19.25 L28,19.25 L28,22.75 C28,23.715625 27.215625,24.5 26.25,24.5 L26.25,24.5 L1.75,24.5 C0.784375,24.5 0,23.715625 0,22.75 L0,22.75 L0,19.25 C0,18.284375 0.784375,17.5 1.75,17.5 L1.75,17.5 Z M26.25,19.25 L1.75,19.25 L1.75,22.75 L26.25,22.75 L26.25,19.25 Z M16.625,20.125 C17.1082492,20.125 17.5,20.5167508 17.5,21 C17.5,21.4832492 17.1082492,21.875 16.625,21.875 C16.1417508,21.875 15.75,21.4832492 15.75,21 C15.75,20.5167508 16.1417508,20.125 16.625,20.125 Z M23.625,20.125 C24.1082492,20.125 24.5,20.5167508 24.5,21 C24.5,21.4832492 24.1082492,21.875 23.625,21.875 C23.1417508,21.875 22.75,21.4832492 22.75,21 C22.75,20.5167508 23.1417508,20.125 23.625,20.125 Z M20.125,20.125 C20.6082492,20.125 21,20.5167508 21,21 C21,21.4832492 20.6082492,21.875 20.125,21.875 C19.6417508,21.875 19.25,21.4832492 19.25,21 C19.25,20.5167508 19.6417508,20.125 20.125,20.125 Z M26.25,8.75 C27.215625,8.75 28,9.534375 28,10.5 L28,10.5 L28,14 C28,14.965625 27.215625,15.75 26.25,15.75 L26.25,15.75 L1.75,15.75 C0.784375,15.75 0,14.965625 0,14 L0,14 L0,10.5 C0,9.534375 0.784375,8.75 1.75,8.75 L1.75,8.75 Z M26.25,10.5 L1.75,10.5 L1.75,14 L26.25,14 L26.25,10.5 Z M23.625,11.375 C24.1082492,11.375 24.5,11.7667508 24.5,12.25 C24.5,12.7332492 24.1082492,13.125 23.625,13.125 C23.1417508,13.125 22.75,12.7332492 22.75,12.25 C22.75,11.7667508 23.1417508,11.375 23.625,11.375 Z M20.125,11.375 C20.6082492,11.375 21,11.7667508 21,12.25 C21,12.7332492 20.6082492,13.125 20.125,13.125 C19.6417508,13.125 19.25,12.7332492 19.25,12.25 C19.25,11.7667508 19.6417508,11.375 20.125,11.375 Z M26.25,0 C27.215625,0 28,0.784375 28,1.75 L28,1.75 L28,5.25 C28,6.215625 27.215625,7 26.25,7 L26.25,7 L1.75,7 C0.784375,7 0,6.215625 0,5.25 L0,5.25 L0,1.75 C0,0.784375 0.784375,0 1.75,0 L1.75,0 Z M26.25,1.75 L1.75,1.75 L1.75,5.25 L26.25,5.25 L26.25,1.75 Z M23.625,2.625 C24.1082492,2.625 24.5,3.01675084 24.5,3.5 C24.5,3.98324916 24.1082492,4.375 23.625,4.375 C23.1417508,4.375 22.75,3.98324916 22.75,3.5 L22.75,3.5 C22.75,3.01675084 23.1417508,2.625 23.625,2.625 Z M20.125,2.625 C20.6082492,2.625 21,3.01675084 21,3.5 C21,3.98324916 20.6082492,4.375 20.125,4.375 C19.6417508,4.375 19.25,3.98324916 19.25,3.5 L19.25,3.5 C19.25,3.01675084 19.6417508,2.625 20.125,2.625 Z M16.625,2.625 C17.1082492,2.625 17.5,3.01675084 17.5,3.5 C17.5,3.98324916 17.1082492,4.375 16.625,4.375 C16.1417508,4.375 15.75,3.98324916 15.75,3.5 L15.75,3.5 C15.75,3.01675084 16.1417508,2.625 16.625,2.625 Z" id="形状结合" fill="#2C2C2C" fill-rule="nonzero"></path>
    </g>
</svg>