<svg xmlns="http://www.w3.org/2000/svg" width="24" height="24" viewBox="0 0 24 24">
    <defs>
        <filter id="l8944lay8a">
            <feColorMatrix in="SourceGraphic" values="0 0 0 0 0.984314 0 0 0 0 0.807843 0 0 0 0 0.027451 0 0 0 1.000000 0"/>
        </filter>
    </defs>
    <g fill="none" fill-rule="evenodd">
        <g>
            <g filter="url(#l8944lay8a)" transform="translate(-135 -171) translate(120 163)">
                <g>
                    <path fill="#000" fill-rule="nonzero" d="M10.5 1.951c4.694 0 8.5 3.713 8.5 8.293 0 1.938-.682 3.721-1.824 5.133l4.531 4.42c.39.382.39 1 0 1.38-.39.382-1.024.382-1.414 0l-4.532-4.42c-1.447 1.115-3.274 1.78-5.261 1.78-4.694 0-8.5-3.713-8.5-8.293 0-4.58 3.806-8.293 8.5-8.293zm0 1.951c-3.59 0-6.5 2.84-6.5 6.342s2.91 6.341 6.5 6.341c1.772 0 3.38-.692 4.552-1.814l.04-.046.046-.041C16.29 13.542 17 11.974 17 10.244c0-3.502-2.91-6.342-6.5-6.342z" transform="translate(15 8.293)"/>
                </g>
            </g>
        </g>
    </g>
</svg>
