<svg xmlns="http://www.w3.org/2000/svg" width="15" height="15" viewBox="0 0 15 15">
    <defs>
        <filter id="408kfbh9na">
            <feColorMatrix in="SourceGraphic" values="0 0 0 0 1.000000 0 0 0 0 1.000000 0 0 0 0 1.000000 0 0 0 1.000000 0"/>
        </filter>
    </defs>
    <g fill="none" fill-rule="evenodd">
        <g>
            <g filter="url(#408kfbh9na)" transform="translate(-553 -483) translate(449 445)">
                <g>
                    <path fill="#000" fill-rule="nonzero" d="M8.75 2.134L2.5 8.384V10h1.616l6.25-6.25L8.75 2.134zm4.375 10.991c.345 0 .625.28.625.625 0 .32-.241.585-.552.62l-.073.005H1.875c-.345 0-.625-.28-.625-.625 0-.32.241-.585.552-.62l.073-.005h11.25zM9.192.808l2.5 2.5c.244.244.244.64 0 .884l-6.875 6.875c-.117.117-.276.183-.442.183h-2.5c-.345 0-.625-.28-.625-.625v-2.5c0-.166.066-.325.183-.442L8.308.808c.244-.244.64-.244.884 0z" transform="translate(104 38)"/>
                </g>
            </g>
        </g>
    </g>
</svg>
