<svg xmlns="http://www.w3.org/2000/svg" width="21" height="20" viewBox="0 0 21 20">
    <defs>
        <filter id="jpezbi8m0a">
            <feColorMatrix in="SourceGraphic" values="0 0 0 0 0.984314 0 0 0 0 0.807843 0 0 0 0 0.027451 0 0 0 1.000000 0"/>
        </filter>
    </defs>
    <g fill="none" fill-rule="evenodd">
        <g>
            <g filter="url(#jpezbi8m0a)" transform="translate(-157 -233) translate(142.5 223)">
                <g>
                    <path fill="#000" d="M18.333 11.667c.35 0 .65.215.773.52l.004.011c.038.098.057.2.057.304V17.5c0 .46-.373.833-.834.833-.46 0-.833-.373-.833-.833v-3.074l-2.444 2.296c-2.023 2.024-4.942 2.869-7.733 2.237-2.79-.631-5.062-2.65-6.017-5.348-.153-.434.074-.91.508-1.063.434-.154.91.073 1.063.507.764 2.158 2.581 3.774 4.814 4.279 2.232.505 4.568-.17 6.205-1.808l2.334-2.193h-2.897c-.46 0-.833-.373-.833-.833 0-.46.373-.833.833-.833h5zm-6.49-10.628c2.791.631 5.063 2.65 6.018 5.348.153.434-.074.91-.508 1.063-.434.154-.91-.073-1.064-.507-.763-2.158-2.58-3.773-4.813-4.278-2.233-.506-4.568.17-6.205 1.807L2.937 6.665h2.896c.46 0 .834.373.834.833 0 .46-.373.834-.834.834h-5c-.35 0-.649-.216-.773-.522L.056 7.8C.018 7.702 0 7.6 0 7.496V2.498c0-.46.373-.833.833-.833.46 0 .834.373.834.833v3.074L4.11 3.276C6.133 1.252 9.053.408 11.844 1.039z" transform="translate(15 10) matrix(-1 0 0 1 19.167 0)"/>
                </g>
            </g>
        </g>
    </g>
</svg>
