<svg xmlns="http://www.w3.org/2000/svg" width="20" height="20" viewBox="0 0 20 20">
    <defs>
        <filter id="rrmm2kwjba">
            <feColorMatrix in="SourceGraphic" values="0 0 0 0 1.000000 0 0 0 0 1.000000 0 0 0 0 1.000000 0 0 0 1.000000 0"/>
        </filter>
    </defs>
    <g fill="none" fill-rule="evenodd">
        <g>
            <g>
                <g filter="url(#rrmm2kwjba)" transform="translate(-490 -480) translate(449 445) translate(36 30)">
                    <g>
                        <path fill="#000" fill-rule="nonzero" d="M10 .833c5.063 0 9.167 4.104 9.167 9.167S15.063 19.167 10 19.167.833 15.063.833 10 4.937.833 10 .833zM10 2.5c-4.142 0-7.5 3.358-7.5 7.5 0 4.142 3.358 7.5 7.5 7.5 4.142 0 7.5-3.358 7.5-7.5 0-4.142-3.358-7.5-7.5-7.5zm4.324 4.23l-1.767 5.3c-.083.249-.278.444-.527.527l-5.3 1.767c-.651.217-1.271-.403-1.054-1.054l1.767-5.3c.083-.249.278-.444.527-.527l5.3-1.767c.651-.217 1.271.403 1.054 1.054zm-2.108 1.054L8.892 8.892l-1.108 3.324 3.324-1.108 1.108-3.324z" transform="translate(5 5)"/>
                    </g>
                </g>
            </g>
        </g>
    </g>
</svg>
