<svg xmlns="http://www.w3.org/2000/svg" width="24" height="24" viewBox="0 0 24 24">
    <defs>
        <filter id="4pyqiq80ka">
            <feColorMatrix in="SourceGraphic" values="0 0 0 0 1.000000 0 0 0 0 1.000000 0 0 0 0 1.000000 0 0 0 1.000000 0"/>
        </filter>
    </defs>
    <g fill="none" fill-rule="evenodd">
        <g>
            <g>
                <g filter="url(#4pyqiq80ka)" transform="translate(-479 -182) translate(446 156) translate(22 15)">
                    <g>
                        <g fill="#000" fill-rule="nonzero">
                            <path d="M4 17.75V19H2.75C1.233 19 0 20.233 0 21.75v1.5c0 .414.336.75.75.75h14.5c.414 0 .75-.336.75-.75v-1.5c0-1.517-1.233-2.75-2.75-2.75H12v-1.25c0-.965-.785-1.75-1.75-1.75H8.87L5.644 9.135c.16-.231.27-.498.321-.786l7.761-2.821c.293.245.654.405 1.053.449l.849 1.512c.178.316.511.511.872.511H21c.553 0 1-.448 1-1s-.447-1-1-1h-3.915l-.468-.833C16.855 4.838 17 4.437 17 4c0-.432-.141-.831-.375-1.158L17.09 2H21c.553 0 1-.448 1-1s-.447-1-1-1h-4.5c-.364 0-.699.198-.875.517l-.831 1.504c-.888.093-1.604.761-1.759 1.63l-7.76 2.821C4.927 6.182 4.487 6 4 6c-1.103 0-2 .897-2 2 0 1.045.809 1.896 1.832 1.983L6.66 16h-.91C4.785 16 4 16.785 4 17.75z" transform="translate(11 11) translate(1)"/>
                        </g>
                    </g>
                </g>
            </g>
        </g>
    </g>
</svg>
