<?xml version="1.0" encoding="UTF-8"?>
<svg id="Layer_1" data-name="Layer 1" xmlns="http://www.w3.org/2000/svg" viewBox="0 0 24 24">
  <defs>
    <style>
      .cls-1 {
        fill: #343434;
      }

      .cls-2 {
        fill: #fff;
      }
    </style>
  </defs>
  <path class="cls-2" d="M8.04,17.73h1.5c.14,0,.25,.11,.25,.25v2.77c0,.55-.45,1-1,1h0c-.55,0-1-.45-1-1v-2.77c0-.14,.11-.25,.25-.25Z"/>
  <g>
    <path class="cls-1" d="M15.55,21.7c-.55,0-1-.45-1-1v-2.7c0-.14,.11-.25,.25-.25h1.5c.14,0,.25,.11,.25,.25v2.7c0,.55-.45,1-1,1Zm-.5-3.45v2.45c0,.28,.22,.5,.5,.5s.5-.22,.5-.5v-2.45h-1Z"/>
    <path class="cls-1" d="M8.29,8.85c-.26,0-.51-.1-.71-.29l-1.11-1.07s-.08-.11-.08-.18,.03-.13,.07-.18l1.08-1.08s.11-.07,.18-.07h0c.07,0,.13,.03,.18,.07l1.09,1.1c.39,.39,.39,1.02,0,1.41-.19,.19-.45,.29-.71,.29Zm-1.28-1.55l.93,.9c.2,.2,.51,.2,.71,0,.19-.2,.19-.51,0-.71l-.91-.92-.73,.73Z"/>
    <path class="cls-1" d="M6.4,10.75c-.27,0-.52-.1-.71-.29l-1.11-1.07s-.08-.11-.08-.18,.03-.13,.07-.18l1.08-1.08s.11-.07,.18-.07h0c.07,0,.13,.03,.18,.07l1.09,1.1c.39,.39,.39,1.02,0,1.41h0c-.19,.19-.44,.29-.71,.29Zm-1.28-1.55l.93,.9c.2,.19,.52,.19,.71,0h0c.19-.19,.19-.51,0-.71l-.91-.92-.73,.73Z"/>
    <path class="cls-1" d="M13.29,21.75c-.55,0-1-.45-1-1v-2.75c0-.14,.11-.25,.25-.25h1.5c.14,0,.25,.11,.25,.25v2.75c0,.55-.45,1-1,1Zm-.5-3.5v2.5c0,.28,.22,.5,.5,.5s.5-.22,.5-.5v-2.5h-1Z"/>
    <path class="cls-1" d="M10.21,20.75h-.67c-.14,0-.25-.11-.25-.25s.11-.25,.25-.25h.67c.14,0,.25,.11,.25,.25s-.11,.25-.25,.25Z"/>
    <path class="cls-1" d="M12.37,20.75h-.55c-.14,0-.25-.11-.25-.25s.11-.25,.25-.25h.55c.14,0,.25,.11,.25,.25s-.11,.25-.25,.25Z"/>
    <path class="cls-1" d="M14.54,20.75h-.45c-.14,0-.25-.11-.25-.25s.11-.25,.25-.25h.45c.14,0,.25,.11,.25,.25s-.11,.25-.25,.25Z"/>
    <g>
      <path class="cls-1" d="M18.36,15.88c.86-.12,1.56-1.04,1.56-2.14,0-.91-.47-1.73-1.18-2.04-.19-.08-.41,0-.49,.19-.08,.19,0,.41,.19,.49,.42,.18,.73,.75,.73,1.35,0,.68-.38,1.27-.85,1.39,.04,.16,.06,.33,.06,.51,0,.08-.02,.16-.02,.24Z"/>
      <path class="cls-1" d="M19.47,10.62c-.18-.1-.41-.03-.51,.15-.1,.18-.03,.41,.15,.51,.82,.44,1.35,1.41,1.35,2.47,0,1.47-1,2.66-2.24,2.7-.1,.27-.24,.51-.43,.72,.12,.02,.24,.04,.37,.04,1.68,0,3.05-1.55,3.05-3.46,0-1.33-.69-2.56-1.75-3.13Z"/>
    </g>
    <path class="cls-1" d="M16.04,17.98c-1.29,0-2.34-1.05-2.34-2.34s1.05-2.34,2.34-2.34,2.34,1.05,2.34,2.34-1.05,2.34-2.34,2.34Zm0-3.92c-.88,0-1.59,.71-1.59,1.59s.71,1.59,1.59,1.59,1.59-.71,1.59-1.59-.71-1.59-1.59-1.59Z"/>
    <path class="cls-1" d="M16.04,16.39c-.41,0-.75-.34-.75-.75s.34-.75,.75-.75,.75,.34,.75,.75-.34,.75-.75,.75Zm0-1c-.14,0-.25,.11-.25,.25s.11,.25,.25,.25,.25-.11,.25-.25-.11-.25-.25-.25Z"/>
    <path class="cls-1" d="M6.04,12.38c-.1,0-.19-.04-.27-.11l-2-2c-.15-.15-.15-.38,0-.53s.38-.15,.53,0l2,2c.15,.15,.15,.38,0,.53-.07,.07-.17,.11-.27,.11Z"/>
    <path class="cls-1" d="M11.04,8.38c-.1,0-.19-.04-.27-.11l-2.5-2.5c-.15-.15-.15-.38,0-.53s.38-.15,.53,0l2.5,2.5c.15,.15,.15,.38,0,.53-.07,.07-.17,.11-.27,.11Z"/>
    <path class="cls-1" d="M2.38,9.91c-.06,0-.13-.02-.18-.07-.1-.1-.1-.26,0-.35L7.86,3.82c.1-.1,.26-.1,.35,0s.1,.26,0,.35L2.56,9.84s-.11,.07-.18,.07Z"/>
    <g>
      <path class="cls-1" d="M3.09,11.04s-.06,0-.1,0c-.29-.03-.55-.18-.71-.43l-1.33-1.99c-.26-.38-.21-.9,.12-1.22L5.89,2.58c.33-.33,.84-.38,1.23-.12l1.99,1.33c.24,.16,.4,.42,.43,.71,.03,.29-.07,.58-.28,.78h0L3.78,10.75c-.18,.18-.43,.28-.69,.28ZM6.57,3.05c-.06,0-.11,.02-.16,.06L1.61,7.92c-.07,.07-.09,.19-.03,.28l1.33,1.99c.05,.08,.12,.09,.16,.1,.04,0,.11,0,.18-.06l5.47-5.47c.06-.06,.07-.14,.06-.18,0-.04-.02-.11-.1-.16l-1.99-1.33s-.08-.04-.12-.04Zm2.41,1.97h0Z"/>
      <g>
        <path class="cls-1" d="M15.83,8.85c-.27,0-.52-.1-.71-.29h0c-.39-.39-.39-1.02,0-1.41l1.08-1.1s.11-.07,.18-.07h0c.07,0,.13,.03,.18,.07l1.08,1.08s.07,.11,.07,.18-.03,.13-.08,.18l-1.11,1.08c-.19,.19-.44,.29-.7,.29Zm-.35-.65c.19,.19,.52,.19,.71,0l.93-.9-.73-.73-.91,.92c-.2,.2-.2,.51,0,.71Z"/>
        <path class="cls-1" d="M17.72,10.75c-.26,0-.51-.1-.71-.29-.39-.39-.39-1.02,0-1.41l1.08-1.1s.11-.07,.18-.07h0c.07,0,.13,.03,.18,.07l1.08,1.08s.07,.11,.07,.18-.03,.13-.08,.18l-1.11,1.08c-.19,.19-.45,.29-.7,.29Zm.56-2.28l-.91,.92c-.2,.2-.2,.51,0,.71,.19,.19,.52,.19,.71,0l.93-.9-.73-.73Z"/>
        <path class="cls-1" d="M18.08,12.38c-.1,0-.19-.04-.27-.11-.15-.15-.15-.38,0-.53l2-2c.15-.15,.38-.15,.53,0,.15,.15,.15,.38,0,.53l-2,2c-.07,.07-.17,.11-.27,.11Z"/>
        <path class="cls-1" d="M13.08,8.38c-.1,0-.19-.04-.27-.11-.15-.15-.15-.38,0-.53l2.5-2.5c.15-.15,.38-.15,.53,0,.15,.15,.15,.38,0,.53l-2.5,2.5c-.07,.07-.17,.11-.27,.11Z"/>
        <path class="cls-1" d="M20.99,11.04c-.26,0-.5-.1-.69-.28l-5.47-5.47c-.21-.21-.31-.49-.28-.78,.03-.29,.18-.55,.43-.71l1.99-1.33c.38-.26,.9-.2,1.22,.12l4.81,4.81c.33,.33,.38,.84,.12,1.22l-1.33,1.99c-.16,.24-.42,.4-.71,.43-.03,0-.07,0-.1,0Zm-3.48-7.99s-.08,.01-.12,.04l-1.99,1.33c-.08,.05-.09,.12-.1,.16,0,.04,0,.11,.06,.18t0,0l5.47,5.47c.06,.07,.14,.07,.18,.06,.04,0,.11-.02,.16-.1l1.33-1.99c.06-.09,.05-.2-.03-.28l-4.81-4.81s-.1-.06-.16-.06Z"/>
        <path class="cls-1" d="M21.74,9.91c-.06,0-.13-.02-.18-.07l-5.66-5.66c-.1-.1-.1-.26,0-.35,.1-.1,.26-.1,.35,0l5.66,5.66c.1,.1,.1,.26,0,.35-.05,.05-.11,.07-.18,.07Z"/>
      </g>
    </g>
    <path class="cls-1" d="M12.04,13.95c-1.01,0-1.83-.82-1.83-1.83s.82-1.83,1.83-1.83,1.83,.82,1.83,1.83-.82,1.83-1.83,1.83Zm0-2.92c-.6,0-1.08,.49-1.08,1.08s.49,1.08,1.08,1.08,1.08-.49,1.08-1.08-.49-1.08-1.08-1.08Z"/>
    <path class="cls-1" d="M7.54,14.88c-.1,0-.19-.04-.27-.11-.15-.15-.15-.38,0-.53l3.5-3.5c.15-.15,.38-.15,.53,0s.15,.38,0,.53l-3.5,3.5c-.07,.07-.17,.11-.27,.11Z"/>
    <path class="cls-1" d="M17.12,14.38c-.08,0-.16-.02-.22-.07l-4.08-3c-.17-.12-.2-.36-.08-.52,.12-.17,.36-.2,.52-.08l4.08,3c.17,.12,.2,.36,.08,.52-.07,.1-.19,.15-.3,.15Z"/>
    <path class="cls-1" d="M11.04,17.98c-.1,0-.2-.04-.28-.12-.14-.15-.13-.39,.02-.53l3.58-3.31c.15-.14,.39-.13,.53,.02s.13,.39-.02,.53l-3.58,3.31c-.07,.07-.16,.1-.25,.1Z"/>
    <g>
      <path class="cls-1" d="M6.11,15.16c-.53,0-1-.66-1-1.41,0-.63,.34-1.22,.79-1.37,.2-.07,.3-.28,.24-.48s-.28-.3-.48-.24c-.77,.26-1.3,1.11-1.3,2.08,0,1.07,.68,1.98,1.52,2.13,.08-.26,.19-.51,.34-.74-.04,0-.07,.02-.11,.02Z"/>
      <path class="cls-1" d="M5.77,16.41c-1.11-.2-1.96-1.31-1.96-2.67,0-1.06,.53-2.03,1.35-2.47,.18-.1,.25-.33,.15-.51-.1-.18-.32-.25-.51-.15-1.06,.57-1.75,1.8-1.75,3.13,0,1.78,1.2,3.23,2.72,3.42-.02-.15-.05-.3-.05-.45,0-.1,.02-.2,.03-.3Z"/>
    </g>
    <path class="cls-1" d="M8.54,19.51c-1.54,0-2.8-1.26-2.8-2.8s1.26-2.8,2.8-2.8,2.8,1.26,2.8,2.8-1.26,2.8-2.8,2.8Zm0-4.85c-1.13,0-2.05,.92-2.05,2.05s.92,2.05,2.05,2.05,2.05-.92,2.05-2.05-.92-2.05-2.05-2.05Z"/>
    <path class="cls-1" d="M9.29,20.75c0,.28-.22,.5-.5,.5s-.5-.22-.5-.5v-1.26c-.17-.02-.34-.04-.5-.09v1.35c0,.55,.45,1,1,1s1-.45,1-1v-1.54c-.16,.08-.33,.14-.5,.19v1.35Z"/>
    <path class="cls-1" d="M8.54,17.89c-.65,0-1.17-.53-1.17-1.17s.53-1.18,1.17-1.18,1.18,.53,1.18,1.18-.53,1.17-1.18,1.17Zm0-1.6c-.23,0-.42,.19-.42,.43s.19,.42,.42,.42,.43-.19,.43-.42-.19-.43-.43-.43Z"/>
    <g>
      <path class="cls-1" d="M14.77,17.6h-3.59c-.1,.29-.24,.56-.42,.8h5.28c.17,0,.32-.11,.38-.26l.07-.2c-.15,.03-.3,.05-.45,.05-.47,0-.9-.14-1.27-.38Z"/>
      <path class="cls-1" d="M18.32,12.22l-4.5-4.5c-.08-.08-.18-.12-.28-.12h-3c-.11,0-.21,.04-.28,.12l-4.5,4.5c-.11,.11-.15,.27-.09,.42l.8,2.21c.19-.21,.41-.39,.66-.54l-.62-1.71,4.2-4.2h2.67l4.2,4.2-.37,1.02c.25,.15,.47,.33,.65,.56l.56-1.54c.05-.15,.02-.31-.09-.42Z"/>
    </g>
    <path class="cls-1" d="M11.79,17.75h-.57c-.07,.18-.16,.34-.26,.5h.58v2.5c0,.28-.22,.5-.5,.5s-.5-.22-.5-.5v-2c-.15,.14-.32,.26-.5,.37v1.63c0,.55,.45,1,1,1s1-.45,1-1v-2.75c0-.14-.11-.25-.25-.25Z"/>
  </g>
</svg>