<?xml version="1.0" encoding="UTF-8"?>
<svg width="30px" height="30px" viewBox="0 0 30 30" version="1.1" xmlns="http://www.w3.org/2000/svg" xmlns:xlink="http://www.w3.org/1999/xlink">
    <title>icon / Menu  / health_report</title>
    <g id="icon-/-Menu--/-health_report" stroke="none" stroke-width="1" fill="none" fill-rule="evenodd">
        <g id="report" transform="translate(1.898961, 0.500000)" fill="#000000" fill-rule="nonzero">
            <path d="M23.1466779,0 C24.1152488,0 24.9120022,0.69728737 24.9931879,1.58350914 L25,1.732875 L24.9903831,22.138 L25,22.2439141 L25,27.267125 C25,28.1727705 24.2542241,28.9177234 23.3064223,28.9936308 L23.1466779,29 L3.43205686,29 C2.46348957,29 1.66678551,28.3027158 1.58560494,27.4164914 L1.57879328,27.267125 L1.57854262,25.487 L1.5114843,25.4633243 C0.723795342,25.1480977 0.15364349,24.4674369 0.0266595349,23.6630181 L0.00631409637,23.4888364 L0,23.3225703 C0,22.4323772 0.540323759,21.645102 1.34674919,21.254521 L1.51150105,21.1817811 L1.57854262,21.157 L1.57854262,21.076 L1.51151172,21.052044 C0.723812773,20.7368533 0.153647323,20.0561929 0.0266602092,19.2517647 L0.00631425875,19.0775808 L0,18.9113125 C0,18.0211194 0.540323759,17.2338442 1.34674919,16.8432632 L1.51150105,16.7705233 L1.57854262,16.746 L1.57854262,16.665 L1.51150822,16.6407848 C0.723805517,16.3255906 0.15364561,15.6449208 0.0266599,14.8404647 L0.00631418206,14.6662747 L0,14.5 C0,13.6098671 0.540302386,12.822615 1.34670288,12.4319724 L1.51144971,12.3592191 L1.57854262,12.334 L1.57854262,12.253 L1.51150822,12.2294176 C0.723805517,11.9142235 0.15364561,11.2335536 0.0266599,10.4290976 L0.00631418206,10.2549075 L0,10.0886328 C0,9.19847494 0.540330593,8.4112123 1.34675336,8.02063596 L1.51150455,7.94789689 L1.57854262,7.923 L1.57854262,7.842 L1.51150822,7.81815978 C0.723805517,7.50296565 0.15364561,6.82229575 0.0266599,6.01783975 L0.00631418206,5.84364971 L0,5.677375 C0,4.78721713 0.540330593,3.99995449 1.34675336,3.60937814 L1.51150455,3.53663908 L1.57854262,3.512 L1.57879328,1.732875 C1.57879328,0.877539964 2.2439632,0.165544425 3.11631216,0.0251280233 L3.27231353,0.00636917042 L3.43205686,0 L23.1466779,0 Z M23.1780078,1.821 L4.17800781,1.821 L4.17800781,3.562 L4.29057443,3.61406008 C5.02068889,3.98120825 5.52141258,4.6904995 5.58493079,5.5020041 L5.59177418,5.677375 C5.59177418,6.1804791 5.16731841,6.58835156 4.64367193,6.58835156 C4.49405865,6.58835156 4.35254257,6.55505585 4.22671004,6.49575634 L4.17800781,6.469 L4.17800781,7.973 L4.29057443,8.02531789 C5.02068889,8.39246606 5.52141258,9.10175732 5.58493079,9.91326192 L5.59177418,10.0886328 C5.59177418,10.5917369 5.16731841,10.9996094 4.64367193,10.9996094 C4.49405865,10.9996094 4.35254257,10.9663137 4.22671004,10.9070142 L4.17800781,10.881 L4.17800781,12.385 L4.29057443,12.4366851 C5.02068889,12.8038333 5.52141258,13.5131245 5.58493079,14.3246291 L5.59177418,14.5 C5.59177418,15.0031041 5.16731841,15.4109766 4.64367193,15.4109766 C4.49405865,15.4109766 4.35254257,15.3776809 4.22671004,15.3183813 L4.17800781,15.292 L4.17800781,16.796 L4.29054535,16.847964 C5.02066818,17.215087 5.52140995,17.9244131 5.58493053,18.7359376 L5.59177418,18.9113125 C5.59177418,19.4144166 5.16731841,19.8222891 4.64367193,19.8222891 C4.49405865,19.8222891 4.35254257,19.7889934 4.22671004,19.7296938 L4.17800781,19.703 L4.17800781,21.207 L4.29054535,21.2592765 C5.02066818,21.6263995 5.52140995,22.3357256 5.58493053,23.1472501 L5.59177418,23.322625 C5.59177418,23.8257291 5.16731841,24.2336016 4.64367193,24.2336016 C4.49405865,24.2336016 4.35254257,24.2003059 4.22671004,24.1410063 L4.17800781,24.115 L4.17800781,27.178 L23.1769671,27.178 L23.1780078,1.821 Z" id="Shape"></path>
            <path d="M15.5927161,3.15776823 C15.089566,3.15776823 14.6817396,3.5655946 14.6817396,4.06874479 L14.6817396,5.84204167 L14.6878681,5.94827812 C14.7242972,6.261931 14.9200449,6.52699912 15.2000078,6.663 C14.8898143,6.81568716 14.6817396,7.12644555 14.6817396,7.48583854 L14.6817396,9.25913542 C14.6817396,9.76223952 15.0895746,10.170112 15.5927161,10.170112 L20.7831615,10.170112 C21.2863116,10.170112 21.694138,9.7622856 21.694138,9.25913542 C21.694138,5.89437944 18.9574715,3.15776823 15.5927161,3.15776823 Z M16.5030078,5.078 L16.5673002,5.09161552 C18.1452967,5.46075855 19.3911452,6.70657746 19.7602909,8.2845563 L19.7730078,8.348 L16.5030078,8.348 L16.5036927,7.48583854 L16.4975642,7.37960208 C16.4611351,7.06594921 16.2653873,6.80088109 15.9850078,6.663 C16.2956136,6.51217424 16.5036927,6.20140174 16.5036927,5.84204167 L16.5030078,5.078 Z" id="Path"></path>
            <path d="M12.9611719,6.13444531 C13.4283748,6.13444531 13.8133529,6.48608411 13.8659661,6.93913153 L13.8720937,7.04536719 L13.8720078,10.915 L17.7422266,10.9155 C18.1704959,10.9155 18.5297132,11.2110139 18.6271394,11.6092333 L18.6470746,11.7202401 L18.6532031,11.8264766 C18.6532031,14.1175802 17.280247,16.156727 15.2408836,17.0420886 L14.9517226,17.1590251 C14.3196197,17.3956738 13.6481166,17.5184531 12.9611719,17.5184531 C10.5664748,17.5184531 8.41443274,16.0061809 7.60402491,13.753842 C7.48747558,13.4301399 7.56549072,13.0837581 7.7779268,12.8425652 L7.86377385,12.7572983 L7.93500781,12.702 L7.87287317,12.6843429 C7.58846357,12.5824721 7.36947176,12.3431851 7.29588995,12.0465029 L7.2752691,11.932713 L7.26914062,11.8264766 C7.26914062,8.68744356 9.82213888,6.13444531 12.9611719,6.13444531 Z M12.0500078,8.065 L12.0185731,8.07222842 C10.3302837,8.49570511 9.09109375,10.0282913 9.09109375,11.8264766 C9.09109375,12.0728949 8.99325412,12.2964672 8.83429759,12.4604574 L8.74989627,12.5373173 L8.70600781,12.568 L8.79998088,12.5997736 C8.95977705,12.6638645 9.10100715,12.7727915 9.20356217,12.9171031 L9.27291264,13.0318238 L9.31826581,13.1369213 C9.86893176,14.6672643 11.333752,15.6965547 12.9611719,15.6965547 L13.0911161,15.6943623 L13.2205665,15.6878044 L13.4390078,15.665 L12.1072059,12.1434605 L12.076552,12.0419129 L12.057514,11.9363428 L12.05025,11.8264766 L12.0500078,8.065 Z M16.7200078,12.737 L14.2790078,12.737 L15.1420078,15.019 L15.2312419,14.9581769 C15.9422946,14.4418331 16.4617215,13.6967131 16.6947233,12.8463451 L16.7200078,12.737 Z" id="Shape"></path>
            <path d="M19.8498281,19.0003359 L7.60584375,19.0003359 C7.10270216,19.0003359 6.69486719,19.4082084 6.69486719,19.9113125 C6.69486719,20.4144166 7.10270216,20.8222891 7.60584375,20.8222891 L19.8498281,20.8222891 C20.3529697,20.8222891 20.7608047,20.4144166 20.7608047,19.9113125 C20.7608047,19.408217 20.3529236,19.0003359 19.8498281,19.0003359 Z" id="Path"></path>
            <path d="M16.3235781,23.0216875 L7.60578906,23.0216875 C7.10264747,23.0216875 6.6948125,23.42956 6.6948125,23.9326641 C6.6948125,24.4357682 7.10264747,24.8436406 7.60578906,24.8436406 L16.3235781,24.8436406 C16.8267197,24.8436406 17.2345547,24.4357682 17.2345547,23.9326641 C17.2345547,23.42956 16.8267197,23.0216875 16.3235781,23.0216875 Z" id="Path"></path>
        </g>
    </g>
</svg>