<svg xmlns="http://www.w3.org/2000/svg" width="25" height="25" viewBox="0 0 25 25">
    <path fill="#000" fill-rule="nonzero" d="M10.75 16.357c0 1.587-1.22 2.893-2.75 2.893s-2.75-1.306-2.75-2.893c0-1.006.721-2.397 2.15-4.306a.75.75 0 0 1 1.2 0c1.428 1.909 2.15 3.3 2.15 4.306zm-1.5 0c0-.47-.414-1.352-1.25-2.572-.836 1.22-1.25 2.102-1.25 2.572 0 .78.572 1.393 1.25 1.393s1.25-.612 1.25-1.393zm15.386-2.49c.22.132.354.37.354.626v9.775a.732.732 0 0 1-.732.732h-8.102a.73.73 0 0 1-.214-.032.73.73 0 0 1-.177.022H.732a.732.732 0 0 1-.68-1.003c1.424-3.575 2.277-6.523 2.683-9.278.405-2.75.421-5.694.051-9.264a.732.732 0 0 1 .729-.808h9.466a.733.733 0 0 1 .728.808c-.244 2.345-.32 4.421-.228 6.353l2.315 1.398v-1.032a.732.732 0 0 1 1.11-.628l2.755 1.66v-1.033a.732.732 0 0 1 1.11-.627l3.865 2.33zM12.174 6.1H4.321c.045.5.082.987.111 1.464h7.63c.03-.477.067-.965.112-1.464zM1.804 23.526h12.89c-1.237-3.246-1.998-6.001-2.382-8.604-.272-1.85-.378-3.775-.316-5.892H4.499c.061 2.12-.043 4.045-.316 5.892-.384 2.606-1.145 5.362-2.38 8.604zm21.722.01v-8.63l-2.4-1.446v1.033a.732.732 0 0 1-1.11.627l-2.755-1.66v1.033a.732.732 0 0 1-1.111.627l-2.531-1.528c.04.376.088.748.142 1.117.388 2.634 1.187 5.45 2.506 8.827h7.259zM8.053 3.172a.732.732 0 0 1-.732-.732V2.1C7.321.94 8.263 0 9.42 0h9.078a.732.732 0 0 1 0 1.464H9.42a.635.635 0 0 0-.635.635v.341a.732.732 0 0 1-.732.732zM21.11 1.464a.732.732 0 1 1 0-1.464h.634a.732.732 0 1 1 0 1.464h-.634zm-4.523 2.197c0-.405.328-.732.732-.732h6.93a.732.732 0 0 1 0 1.464h-6.93a.732.732 0 0 1-.732-.732zm.789 14.593a.732.732 0 0 1 0 1.465H16.35a.732.732 0 0 1 0-1.465h1.025zm2.196.733c0-.405.328-.733.732-.733h1.025a.732.732 0 0 1 0 1.465h-1.025a.732.732 0 0 1-.732-.732z"/>
</svg>
