<?xml version="1.0" encoding="UTF-8"?>
<svg width="12px" height="12px" viewBox="0 0 12 12" version="1.1" xmlns="http://www.w3.org/2000/svg" xmlns:xlink="http://www.w3.org/1999/xlink">
    <!-- Generator: Sketch 49.3 (51167) - http://www.bohemiancoding.com/sketch -->
    <title>Path</title>
    <desc>Created with Sketch.</desc>
    <defs></defs>
    <g id="service-pal-i1定稿下订单前端" stroke="none" stroke-width="1" fill="none" fill-rule="evenodd">
        <g id="403" transform="translate(-681.000000, -683.000000)" fill="#000000">
            <g id="返回首页" transform="translate(669.000000, 673.000000)">
                <g id="首页" transform="translate(12.000000, 10.000000)">
                    <path d="M11.5499397,5.73116663 C11.5499397,6.02647092 11.4571298,6.30002057 11.0249478,6.30002057 L9.9749346,6.30002057 L9.9749346,9.97502277 L9.9749346,11.025036 C9.9749346,11.450574 9.71708354,11.5499985 9.44997208,11.5499985 L6.8249537,11.5499985 C6.8249537,11.5499985 6.8249537,8.25029292 6.8249537,7.87529029 C6.8249537,7.70633919 6.52347582,7.35026899 6.29996179,7.35026899 L5.24994858,7.35026899 C5.03925212,7.35026899 4.72495666,7.68531955 4.72495666,7.87529029 L4.72495666,11.5499985 C4.72495666,11.5499985 2.65929663,11.5499985 2.09996768,11.5499985 C1.80081224,11.5499985 1.57497577,11.3264551 1.57497577,11.025036 L1.57497574,6.29999118 L0.524991913,6.29999118 C0.202494359,6.29999118 0,6.19897919 0,5.7052669 L0,5.6009329 L5.43812602,0.0938094502 C5.50171418,0.0315147949 5.59193706,0 5.70576666,0 C5.83420712,0 5.93213232,0.0320439754 5.99648483,0.0948383931 C8.7319814,2.77342017 11.5499985,5.62553913 11.5499985,5.62553913 L11.5499985,5.73116663 L11.5499397,5.73116663 Z" id="Path"></path>
                </g>
            </g>
        </g>
    </g>
</svg>