<?xml version="1.0" encoding="UTF-8"?>
<svg width="30px" height="30px" viewBox="0 0 30 30" version="1.1" xmlns="http://www.w3.org/2000/svg" xmlns:xlink="http://www.w3.org/1999/xlink">
    <title>icon / Menu  / manage Copy 6</title>
    <g id="icon-/-Menu--/-manage-Copy-6" stroke="none" stroke-width="1" fill="none" fill-rule="evenodd">
        <g id="settings-(4)" fill="#000000" fill-rule="nonzero">
            <path d="M28.7500195,23.1639648 L25.42125,23.1639648 C24.8800195,21.3627344 23.2249805,20.0389844 21.2500195,20.0389844 C19.2750586,20.0389844 17.62125,21.3627344 17.0787891,23.1639648 L1.24998047,23.1639648 C0.559980469,23.1639648 3.55271368e-15,23.7240039 3.55271368e-15,24.4140039 C3.55271368e-15,25.1040039 0.559980469,25.6639844 1.24998047,25.6639844 L17.0787305,25.6639844 C17.6199609,27.4652148 19.275,28.7889648 21.2499609,28.7889648 C23.2249219,28.7889648 24.8787305,27.4652148 25.4211914,25.6639844 L28.7499609,25.6639844 C29.4411914,25.6639844 29.9999414,25.1040039 29.9999414,24.4140039 C29.9999414,23.7240039 29.44125,23.1639648 28.7500195,23.1639648 Z M21.2500195,26.2890039 C20.21625,26.2890039 19.3750195,25.4477734 19.3750195,24.4140039 C19.3750195,23.3802344 20.21625,22.5390039 21.2500195,22.5390039 C22.2837891,22.5390039 23.1250195,23.3802344 23.1250195,24.4140039 C23.1250195,25.4477734 22.2837305,26.2890039 21.2500195,26.2890039 Z" id="Shape"></path>
            <path d="M28.7500195,3.1640625 L25.42125,3.1640625 C24.8787305,1.36283203 23.2249805,0.0390820312 21.2500195,0.0390820312 C19.2750586,0.0390820312 17.62125,1.36283203 17.0787305,3.1640625 L1.24998047,3.1640625 C0.559980469,3.1640625 0,3.72404297 0,4.41404297 C0,5.10404297 0.559980469,5.66402344 1.24998047,5.66402344 L17.0787305,5.66402344 C17.62125,7.4653125 19.275,8.7890625 21.2500195,8.7890625 C23.2250391,8.7890625 24.8787891,7.4653125 25.42125,5.66408203 L28.7500195,5.66408203 C29.44125,5.66408203 30,5.10410156 30,4.41410156 C30,3.72410156 29.44125,3.1640625 28.7500195,3.1640625 Z M21.2500195,6.28904297 C20.21625,6.28904297 19.3750195,5.4478125 19.3750195,4.41404297 C19.3750195,3.38027344 20.21625,2.53904297 21.2500195,2.53904297 C22.2837891,2.53904297 23.1250195,3.38027344 23.1250195,4.41404297 C23.1250195,5.4478125 22.2837305,6.28904297 21.2500195,6.28904297 Z" id="Shape"></path>
            <path d="M28.7500195,13.164043 L12.9212695,13.164043 C12.37875,11.3628125 10.725,10.0390625 8.75003906,10.0390625 C6.77507813,10.0390625 5.12126953,11.3628125 4.57880859,13.164043 L1.24998047,13.164043 C0.559980469,13.164043 0,13.7240234 0,14.4140234 C0,15.1040234 0.559980469,15.6640039 1.24998047,15.6640039 L4.57875,15.6640039 C5.12126953,17.4652344 6.77501953,18.7889844 8.74998047,18.7889844 C10.7249414,18.7889844 12.37875,17.4652344 12.9212109,15.6640039 L28.7499609,15.6640039 C29.4411914,15.6640039 29.9999414,15.1040234 29.9999414,14.4140234 C29.9999414,13.7240234 29.44125,13.164043 28.7500195,13.164043 Z M8.74998047,16.2890234 C7.71621094,16.2890234 6.87498047,15.447793 6.87498047,14.4140234 C6.87498047,13.3802539 7.71621094,12.5390234 8.74998047,12.5390234 C9.78375,12.5390234 10.6249805,13.3802539 10.6249805,14.4140234 C10.6249805,15.447793 9.78375,16.2890234 8.74998047,16.2890234 Z" id="Shape"></path>
        </g>
    </g>
</svg>