<?xml version="1.0" encoding="UTF-8"?>
<svg width="18px" height="18px" viewBox="0 0 18 18" version="1.1" xmlns="http://www.w3.org/2000/svg" xmlns:xlink="http://www.w3.org/1999/xlink">
    <!-- Generator: Sketch 63.1 (92452) - https://sketch.com -->
    <title>IBC_management</title>
    <desc>Created with Sketch.</desc>
    <g id="IBC_management" stroke="none" stroke-width="1" fill="none" fill-rule="evenodd">
        <path d="M9.125,1 L16.25,5.125 L16.25,13.375 L9.125,17.5 L2,13.375 L2,5.125 L9.125,1 Z M9.125,2.73325 L3.5,5.98975 L3.5,12.51025 L9.125,15.76675 L14.75,12.51025 L14.75,5.98975 L9.125,2.73325 Z M9.125,12.25 C7.46814575,12.25 6.125,10.9068542 6.125,9.25 C6.125,7.59314575 7.46814575,6.25 9.125,6.25 C10.7818542,6.25 12.125,7.59314575 12.125,9.25 C12.125,10.9068542 10.7818542,12.25 9.125,12.25 Z M9.125,10.75 C9.95342712,10.75 10.625,10.0784271 10.625,9.25 C10.625,8.42157288 9.95342712,7.75 9.125,7.75 C8.29657288,7.75 7.625,8.42157288 7.625,9.25 C7.625,10.0784271 8.29657288,10.75 9.125,10.75 Z" id="形状" fill="#000000" fill-rule="nonzero"></path>
    </g>
</svg>