<?xml version="1.0" encoding="UTF-8"?>
<svg width="32px" height="30px" viewBox="0 0 32 30" version="1.1" xmlns="http://www.w3.org/2000/svg" xmlns:xlink="http://www.w3.org/1999/xlink">
    <!-- Generator: Sketch 49.3 (51167) - http://www.bohemiancoding.com/sketch -->
    <title>Shape</title>
    <desc>Created with Sketch.</desc>
    <defs></defs>
    <g id="二期上线HiFi" stroke="none" stroke-width="1" fill="none" fill-rule="evenodd">
        <g id="#168现场服务工单详情-现场调查-图片空页面" transform="translate(-672.000000, -2180.000000)" fill="#E5E5E5" fill-rule="nonzero">
            <g id="Group-6" transform="translate(58.000000, 2148.000000)">
                <g id="image" transform="translate(614.000000, 32.000000)">
                    <path d="M29.3352695,0 L2.55727076,0 C1.15063175,0 0,1.05867442 0,2.48540358 L0,27.405784 C0,28.8324781 1.1506003,30 2.55727076,30 L29.5486712,30 C30.9553102,30 32,28.8324781 32,27.405784 L32,2.48540065 C31.9999665,1.05867124 30.74194,0 29.3352695,0 Z M10.3090447,3.68833645 C12.4753878,3.68833645 14.2317997,5.46541164 14.2317997,7.65759808 C14.2317997,9.84978133 12.4754192,11.6268597 10.3090447,11.6268597 C8.14267019,11.6268597 6.38628969,9.84978452 6.38628969,7.65759808 C6.38628655,5.4653798 8.14267019,3.68833645 10.3090447,3.68833645 Z M3.60196181,26.8540761 C3.30783128,26.8540761 3.01141456,26.7514574 2.77064024,26.541523 C2.23419134,26.0754798 2.17171864,25.2568391 2.63194618,24.7127962 L8.51224847,15.7372845 C8.94890331,15.2203061 9.70477712,15.1338612 10.2450248,15.5389924 L15.4334386,19.4410464 L24.7298022,8.74712339 C25.1702244,8.18769001 27.5057558,5.55261124 28.8727526,8.54113451 C28.8742652,8.53650433 28.8758124,12.4926238 28.877325,16.5320578 C28.8788376,20.7452 28.8796112,26.8502325 28.8796112,26.8502325 C28.8514378,26.8432171 3.61413182,26.8540761 3.60196181,26.8540761 Z" id="Shape"></path>
                </g>
            </g>
        </g>
    </g>
</svg>