<?xml version="1.0" encoding="UTF-8"?>
<svg width="30px" height="30px" viewBox="0 0 30 30" version="1.1" xmlns="http://www.w3.org/2000/svg" xmlns:xlink="http://www.w3.org/1999/xlink">
    <title>icon / Menu  / manage Copy 4</title>
    <g id="icon-/-Menu--/-manage-Copy-4" stroke="none" stroke-width="1" fill="none" fill-rule="evenodd">
        <g id="web-settings" fill="#000000" fill-rule="nonzero">
            <path d="M27.3632812,0 L2.63671875,0 C1.18283203,0 0,1.18283203 0,2.63671875 L0,23.7304688 C0,25.1843555 1.18283203,26.3671875 2.63671875,26.3671875 C7.88173828,26.3671875 7.41140625,26.368125 7.47802734,26.3653125 L9.40681641,28.2941016 C9.74970703,28.6371094 10.3066406,28.6373437 10.6497656,28.2941016 L11.5899023,27.3539063 C11.8419141,27.4746094 12.0999609,27.5816602 12.3632227,27.6747656 L12.3632227,29.0039062 C12.3632227,29.4892969 12.7567383,29.8828125 13.2421289,29.8828125 L16.7577539,29.8828125 C17.2431445,29.8828125 17.6366602,29.4892969 17.6366602,29.0039062 L17.6366602,27.6747656 C17.8999219,27.5816602 18.1579688,27.4746094 18.4099805,27.3539063 L19.3501172,28.2941016 C19.6930078,28.6371094 20.2499414,28.6373437 20.5930664,28.2941016 L22.5200977,26.3671875 L27.3632812,26.3671875 C28.817168,26.3671875 30,25.1843555 30,23.7304688 L30,2.63671875 C30,1.18283203 28.817168,0 27.3632812,0 Z M2.63671875,1.7578125 L27.3632812,1.7578125 C27.8479102,1.7578125 28.2421875,2.15208984 28.2421875,2.63671875 L28.2421875,7.03125 L1.7578125,7.03125 L1.7578125,2.63671875 C1.7578125,2.15208984 2.15208984,1.7578125 2.63671875,1.7578125 Z M19.9716797,26.4296484 L19.192793,25.6507617 C18.9089063,25.3668164 18.4686914,25.3115039 18.123457,25.5159961 C17.6285156,25.8091406 17.0954297,26.0302734 16.5390234,26.1733594 C16.1504883,26.2732031 15.8789062,26.6234766 15.8789062,27.0246094 L15.8789062,28.125 L14.1210938,28.125 L14.1210938,27.0246094 C14.1210938,26.6234766 13.8495117,26.2732617 13.4609766,26.173418 C12.9045703,26.0303906 12.3714844,25.8091992 11.876543,25.5160547 C11.5311328,25.3113867 11.0910352,25.3669336 10.807207,25.6508203 L10.0283203,26.429707 L8.78513672,25.1865234 L9.56402344,24.4076367 C9.84791016,24.1238086 9.90333984,23.6837109 9.69878906,23.3383008 C9.40564453,22.8433594 9.18451172,22.3102734 9.04142578,21.7538672 C8.94164063,21.365332 8.59136719,21.09375 8.19023438,21.09375 L7.08984375,21.09375 L7.08984375,19.3359375 L8.19023438,19.3359375 C8.59136719,19.3359375 8.94158203,19.0643555 9.04142578,18.6758203 C9.18445313,18.1194141 9.40564453,17.5863281 9.69878906,17.0913867 C9.90333984,16.7459766 9.84791016,16.3058789 9.56402344,16.0220508 L8.78513672,15.2431641 L10.0283203,13.9999805 L10.807207,14.7788672 C11.0909766,15.0627539 11.5311914,15.118125 11.876543,14.9136328 C12.3714844,14.6204883 12.9045703,14.3993555 13.4609766,14.2562695 C13.8495117,14.1564258 14.1210938,13.8061523 14.1210938,13.4050781 L14.1210938,12.3046875 L15.8789062,12.3046875 L15.8789062,13.4050781 C15.8789062,13.8062109 16.1504883,14.1564258 16.5390234,14.2562695 C17.0954297,14.3992969 17.6285156,14.6204883 18.123457,14.9136328 C18.46875,15.1181836 18.9089063,15.0626953 19.192793,14.7788672 L19.9716797,13.9999805 L21.2148633,15.2431641 L20.4359766,16.0220508 C20.1520898,16.3058789 20.0966602,16.7459766 20.3012109,17.0913867 C20.5943555,17.5863281 20.8154883,18.1194141 20.9585742,18.6758203 C21.058418,19.0643555 21.4086914,19.3359375 21.8097656,19.3359375 L22.9101562,19.3359375 L22.9101562,21.09375 L21.8097656,21.09375 C21.4086328,21.09375 21.058418,21.365332 20.9585742,21.7538672 C20.8155469,22.3102734 20.5943555,22.8433594 20.3012109,23.3383008 C20.0966602,23.6837109 20.1520898,24.1238086 20.4359766,24.4076367 L21.2148633,25.1865234 L19.9716797,26.4296484 Z M27.3632812,24.6094336 L23.1194531,24.6094336 C23.0749219,24.5583398 23.1701367,24.6558398 22.1391211,23.6248828 C22.2598242,23.3728711 22.366875,23.1148242 22.4599805,22.8515625 L23.7890625,22.8515625 C24.2744531,22.8515625 24.6679688,22.4580469 24.6679688,21.9726562 L24.6679688,18.4570312 C24.6679688,17.9716406 24.2744531,17.578125 23.7890625,17.578125 L22.4599219,17.578125 C22.3668164,17.3148633 22.2597656,17.0568164 22.1390625,16.8048047 L23.0792578,15.864668 C23.4222656,15.5217773 23.4225,14.9648438 23.0792578,14.6217188 L20.5930664,12.1355273 C20.2501758,11.7925195 19.6932422,11.7922852 19.3501172,12.1355273 L18.4099805,13.0757227 C18.1579687,12.9550195 17.8999219,12.8479688 17.6366602,12.7548633 L17.6366602,11.4257813 C17.6366602,10.9403906 17.2431445,10.546875 16.7577539,10.546875 L13.2421289,10.546875 C12.7567383,10.546875 12.3632227,10.9403906 12.3632227,11.4257813 L12.3632227,12.7549219 C12.0999609,12.8480273 11.8419141,12.9550781 11.5899023,13.0757813 L10.6497656,12.1355859 C10.306875,11.7925781 9.74994141,11.7923438 9.40681641,12.1355859 L6.920625,14.6217773 C6.57761719,14.964668 6.57738281,15.5216016 6.920625,15.8647266 L7.86082031,16.8048633 C7.74011719,17.056875 7.63306641,17.3149219 7.53996094,17.5781836 L6.2109375,17.5781836 C5.72554687,17.5781836 5.33203125,17.9716992 5.33203125,18.4570898 L5.33203125,21.9727148 C5.33203125,22.4581055 5.72554687,22.8516211 6.2109375,22.8516211 L7.54007812,22.8516211 C7.63318359,23.1148828 7.74023438,23.3729297 7.8609375,23.6249414 C6.82992188,24.6558984 6.92513672,24.5583398 6.88060547,24.6094336 L2.63671875,24.6094336 C2.15208984,24.6094336 1.7578125,24.2151563 1.7578125,23.7305273 L1.7578125,8.7890625 L28.2421875,8.7890625 L28.2421875,23.7304688 C28.2421875,24.2150977 27.8479102,24.6094336 27.3632812,24.6094336 Z" id="Shape"></path>
            <path d="M15,15.8203125 C12.5768555,15.8203125 10.6054688,17.7916992 10.6054688,20.2148438 C10.6054688,22.6379883 12.5768555,24.609375 15,24.609375 C17.4231445,24.609375 19.3945312,22.6379883 19.3945312,20.2148438 C19.3945312,17.7916992 17.4231445,15.8203125 15,15.8203125 Z M15,22.8515625 C13.5461133,22.8515625 12.3632812,21.6687305 12.3632812,20.2148438 C12.3632812,18.760957 13.5461133,17.578125 15,17.578125 C16.4538867,17.578125 17.6367188,18.760957 17.6367188,20.2148438 C17.6367188,21.6687305 16.4538867,22.8515625 15,22.8515625 Z" id="Shape"></path>
            <circle id="Oval" cx="4.453125" cy="4.39453125" r="1"></circle>
            <circle id="Oval" cx="7.96875" cy="4.39453125" r="1"></circle>
            <circle id="Oval" cx="11.484375" cy="4.39453125" r="1"></circle>
            <path d="M20.2734375,5.2734375 L25.546875,5.2734375 C26.0322656,5.2734375 26.4257812,4.87992188 26.4257812,4.39453125 C26.4257812,3.90914062 26.0322656,3.515625 25.546875,3.515625 L20.2734375,3.515625 C19.7880469,3.515625 19.3945312,3.90914062 19.3945312,4.39453125 C19.3945312,4.87992188 19.7880469,5.2734375 20.2734375,5.2734375 Z" id="Path"></path>
        </g>
    </g>
</svg>