<?xml version="1.0" encoding="utf-8"?>
<!-- Generator: Adobe Illustrator 26.0.2, SVG Export Plug-In . SVG Version: 6.00 Build 0)  -->
<svg version="1.1" id="图层_1" xmlns="http://www.w3.org/2000/svg" xmlns:xlink="http://www.w3.org/1999/xlink" x="0px" y="0px"
	 viewBox="0 0 24 24" style="enable-background:new 0 0 24 24;" xml:space="preserve">
<style type="text/css">
	.st0{fill-rule:evenodd;clip-rule:evenodd;}
</style>
<g>
	<path class="st0" d="M22,15.5c-1-1-2.2-1.5-3.4-1.7c-0.4-1.8-2.3-3.5-5.6-3.5V1H1v22h12v-2.3h10.2V20c0-0.7,0-1.5-0.1-2.3
		C22.9,16.9,22.6,16.1,22,15.5z M11.6,21.6H2.4V2.4h9.2V21.6z M13,19.3v-7.6c3.2,0,4.3,1.8,4.3,2.8v0.7H18c0.9,0,2.1,0.4,3,1.3
		c0.4,0.4,0.6,0.8,0.7,1.4c0.1,0.4,0.1,0.9,0.1,1.4H13z"/>
	<path class="st0" d="M10,4H4v5h6V4z M8.6,7.6H5.4V5.4h3.2V7.6z"/>
	<path class="st0" d="M7,10c-1.1,0-2,0.9-2,2s0.9,2,2,2s2-0.9,2-2S8.1,10,7,10z M7,12.6c-0.3,0-0.6-0.3-0.6-0.6s0.3-0.6,0.6-0.6
		s0.6,0.3,0.6,0.6S7.3,12.6,7,12.6z"/>
	<path class="st0" d="M7,15c-1.1,0-2,0.9-2,2s0.9,2,2,2s2-0.9,2-2S8.1,15,7,15z M7,17.6c-0.3,0-0.6-0.3-0.6-0.6s0.3-0.6,0.6-0.6
		s0.6,0.3,0.6,0.6S7.3,17.6,7,17.6z"/>
	<path class="st0" d="M19.3,10.7h1.4c0-2.1-2-3.7-4.2-3.7v1.4C18.2,8.4,19.3,9.5,19.3,10.7z"/>
	<path class="st0" d="M22.3,10.7h1.4c0-3.8-3.3-6.7-7.2-6.7v1.4C19.8,5.4,22.3,7.8,22.3,10.7z"/>
</g>
</svg>
