<?xml version="1.0" encoding="UTF-8"?>
<svg id="Layer_3" data-name="Layer 3" xmlns="http://www.w3.org/2000/svg" viewBox="0 0 24 24">
  <defs>
    <style>
      .cls-1 {
        fill: #343434;
      }
    </style>
  </defs>
  <path class="cls-1" d="M20.1,22H3.9c-1,0-1.9-.8-1.9-1.9V3.9c0-1,.9-1.9,1.9-1.9H20.1c1,0,1.9,.8,1.9,1.9V20.1c0,1-.9,1.9-1.9,1.9ZM3.9,2.8c-.6,0-1.1,.5-1.1,1.1V20.1c0,.6,.5,1.1,1.1,1.1H20.1c.6,0,1.1-.5,1.1-1.1V3.9c0-.6-.5-1.1-1.1-1.1H3.9Zm7.8,15.6h0Zm-6.6-2.8h0Zm9.7,0h0Zm.1-3.9h0Zm2.8-1.5h0Zm.1-.3h0Zm-2.5,0h0Zm-3.6-1.4h0Zm2.1-.1h0Zm5.6,0h0Zm-.1-2h0Zm-5.5-.2h0Zm5.6,0h0Zm-1.6-1.4h0Zm-2.5-.1s0,.1,0,0c0,.1,0,0,0,0Zm2.2-.1h0Zm.2-.1h0Z"/>
  <circle class="cls-1" cx="5" cy="5" r=".8"/>
  <circle class="cls-1" cx="19" cy="5" r=".8"/>
  <circle class="cls-1" cx="5" cy="19" r=".8"/>
  <circle class="cls-1" cx="19" cy="19" r=".8"/>
  <path class="cls-1" d="M12,4.5c-4.14,0-7.5,3.36-7.5,7.5s3.36,7.5,7.5,7.5,7.5-3.36,7.5-7.5c0-4.14-3.36-7.5-7.5-7.5h0Zm5.1,3.38c-1.49,.21-2.83,1.03-3.68,2.26-.06-.05-.13-.1-.2-.14,.05-1.49,.84-2.86,2.1-3.66,.68,.4,1.28,.92,1.78,1.53h0Zm1.4,3.27c-.55-.32-1.16-.51-1.79-.55-.88-.04-1.75,.13-2.55,.5-.03-.07-.07-.14-.11-.21,.79-1.27,2.16-2.07,3.65-2.12,.42,.73,.69,1.54,.8,2.38h0Zm-1.72,1.99c-.74-.47-1.59-.76-2.47-.84,.01-.08,.02-.16,.02-.25,.71-.38,1.52-.56,2.33-.52,.68,.08,1.33,.33,1.88,.73-.03,.72-.17,1.43-.43,2.1-.37-.48-.83-.89-1.34-1.22h0Zm-11.28-.28c.55,.32,1.16,.51,1.79,.55,.09,0,.17,0,.25,0,.79,0,1.58-.18,2.3-.51,.03,.07,.07,.14,.11,.21-.43,.69-1.04,1.25-1.76,1.62-.59,.3-1.24,.47-1.9,.5-.42-.73-.69-1.54-.8-2.38h0Zm1.72-1.99c.74,.47,1.59,.76,2.47,.84-.01,.08-.02,.16-.02,.25-.72,.38-1.52,.56-2.33,.52-.68-.08-1.33-.33-1.88-.73,.03-.72,.17-1.43,.43-2.1,.37,.48,.83,.89,1.34,1.22h0Zm4.78,2.54c-.78,0-1.41-.63-1.41-1.41s.63-1.41,1.41-1.41,1.41,.63,1.41,1.41-.63,1.41-1.41,1.41h0Zm.3-3.72c-.08-.01-.16-.02-.24-.02-.38-.72-.56-1.52-.52-2.33,.08-.68,.33-1.33,.73-1.88,.72,.03,1.43,.17,2.1,.43-1.19,.92-1.94,2.3-2.06,3.8h0Zm-1.2,.15c-.07,.03-.14,.07-.21,.11-1.27-.79-2.07-2.16-2.12-3.66,.73-.42,1.54-.69,2.38-.8-.32,.55-.51,1.16-.55,1.79-.04,.88,.13,1.75,.51,2.55h0Zm.6,4.48c.08,.01,.16,.02,.24,.02,.38,.72,.56,1.52,.52,2.33-.08,.68-.33,1.33-.73,1.88-.72-.03-1.43-.17-2.1-.43,1.19-.92,1.94-2.3,2.06-3.8h0Zm1.2-.15c.07-.03,.14-.07,.21-.11,1.27,.79,2.07,2.16,2.12,3.66-.73,.42-1.54,.69-2.38,.8,.32-.55,.51-1.16,.55-1.79,.04-.88-.13-1.75-.51-2.55h0ZM7.88,6.9c.2,1.49,1.03,2.83,2.26,3.69-.05,.06-.1,.13-.14,.2-1.49-.05-2.86-.83-3.66-2.1,.4-.68,.92-1.28,1.53-1.78h0Zm-.98,9.22c1.49-.21,2.83-1.03,3.68-2.26,.06,.05,.13,.1,.2,.14-.05,1.49-.84,2.86-2.1,3.66-.68-.4-1.28-.92-1.78-1.53h0Zm9.22,.98c-.2-1.49-1.03-2.83-2.26-3.69,.05-.06,.1-.13,.14-.2,1.49,.05,2.87,.84,3.66,2.1-.4,.68-.92,1.29-1.53,1.78h0Zm0,0"/>
</svg>