<svg width="25" height="25" xmlns="http://www.w3.org/2000/svg">
    <defs>
        <filter color-interpolation-filters="auto" id="a">
            <feColorMatrix in="SourceGraphic" values="0 0 0 0 1.000000 0 0 0 0 1.000000 0 0 0 0 1.000000 0 0 0 1.000000 0"/>
        </filter>
    </defs>
    <g transform="translate(-2 -3)" filter="url(#a)" fill="none" fill-rule="evenodd">
        <g fill="#000" fill-rule="nonzero">
            <path d="m26.047 5.062-1.113-1.114a.42.42 0 0 0-.577 0l-3.34 3.343a.408.408 0 0 0 0 .577l1.114 1.115a.407.407 0 0 0 .576 0l3.34-3.343a.408.408 0 0 0 0-.578z"/>
            <path d="M23.54 8.144 21.855 6.46a1.264 1.264 0 0 0-1.786 0l-.554.554a.42.42 0 0 0 0 .595l2.874 2.874a.42.42 0 0 0 .595 0l.554-.554a1.264 1.264 0 0 0 0-1.786z"/>
            <path d="m23.02 9.958-2.977-2.977a3.017 3.017 0 0 0-2.148-.89c-.81 0-1.573.316-2.147.89l-2.266 2.266a.378.378 0 0 0 0 .536l6.736 6.735a.379.379 0 0 0 .537 0l2.266-2.266a3.04 3.04 0 0 0 0-4.294zm-1.103 3.39-1.697 1.697-5.265-5.264 1.697-1.696a1.922 1.922 0 0 1 1.367-.567c.517 0 1.003.202 1.368.567l2.53 2.529c.754.754.754 1.98 0 2.735zM7.983 23.13l-1.114-1.113a.407.407 0 0 0-.576 0l-3.34 3.34a.407.407 0 0 0 0 .577l1.113 1.113a.407.407 0 0 0 .577 0l3.34-3.34a.407.407 0 0 0 0-.577z"/>
            <path d="M9.484 23.39 6.61 20.516a.42.42 0 0 0-.595 0l-.554.554a1.264 1.264 0 0 0 0 1.786l1.683 1.683c.246.247.57.37.893.37.323 0 .647-.123.893-.37l.554-.554a.42.42 0 0 0 0-.595z"/>
            <path d="m16.268 20.607-6.878-6.88a.399.399 0 0 0-.549 0l-2.843 2.844a3.106 3.106 0 0 0 0 4.387L9.04 24a3.08 3.08 0 0 0 2.193.909c.829 0 1.607-.323 2.193-.91l2.843-2.843a.387.387 0 0 0 0-.549zM12.4 22.57a1.814 1.814 0 0 1-1.292.535c-.488 0-.946-.19-1.291-.535l-2.39-2.39a1.83 1.83 0 0 1 0-2.583l2.019-2.019 4.972 4.973L12.4 22.57z"/>
            <path d="M14.538 12.442a1.182 1.182 0 0 0-1.637 0l-2.425 2.43a.395.395 0 0 0 0 .56l1.077 1.081a.393.393 0 0 0 .56 0l2.425-2.431c.218-.219.338-.51.338-.82 0-.31-.12-.601-.338-.82zM17.549 15.462a1.158 1.158 0 0 0-1.637 0l-2.425 2.426a.393.393 0 0 0 0 .558l1.077 1.078a.394.394 0 0 0 .559 0l2.426-2.425a1.159 1.159 0 0 0 0-1.637zM11.757 19.76l-1.517-1.517a.37.37 0 1 0-.524.524l1.517 1.517a.37.37 0 1 0 .524-.524zM20.213 11.467l-1.68-1.68a.41.41 0 1 0-.58.58l1.68 1.68a.41.41 0 1 0 .58-.58z"/>
        </g>
    </g>
</svg>
