<!-- Generated by IcoMoon.io -->
<svg version="1.1" xmlns="http://www.w3.org/2000/svg" width="32" height="32" viewBox="0 0 32 32">
<title>normal</title>
<path fill="#7ed321" d="M15.153 30.306c-8.369 0-15.153-6.784-15.153-15.153s6.784-15.153 15.153-15.153c8.369 0 15.153 6.784 15.153 15.153s-6.784 15.153-15.153 15.153zM15.153 29.176c7.745 0 14.024-6.279 14.024-14.024s-6.279-14.024-14.024-14.024c-7.745 0-14.024 6.279-14.024 14.024s6.279 14.024 14.024 14.024z"></path>
<path fill="#7ed321" d="M21.457 9.919c0.645-0.678 1.717-0.706 2.395-0.061s0.706 1.717 0.061 2.395l-8.46 8.903c-0.628 0.661-1.668 0.706-2.351 0.102l-4.829-4.274c-0.701-0.62-0.766-1.691-0.146-2.391s1.691-0.766 2.391-0.146l3.604 3.19 7.333-7.718z"></path>
</svg>
