<svg xmlns="http://www.w3.org/2000/svg" width="20" height="20" viewBox="0 0 20 20">
    <defs>
        <filter id="b2nyichc2a">
            <feColorMatrix in="SourceGraphic" values="0 0 0 0 1.000000 0 0 0 0 1.000000 0 0 0 0 1.000000 0 0 0 1.000000 0"/>
        </filter>
    </defs>
    <g fill="none" fill-rule="evenodd">
        <g>
            <g>
                <g filter="url(#b2nyichc2a)" transform="translate(-497 -2277) translate(449 2245) translate(43 27)">
                    <g>
                        <path fill="#000" fill-rule="nonzero" d="M9.552 1.231l.44-.398.536.49.29.279.394.397.35.368.383.422.27.309.278.328.14.172.284.355.142.184.282.38c1.12 1.545 2.126 3.42 2.126 5.168 0 .242-.016.48-.047.714 1.032.394 1.901.9 2.532 1.48.795.73 1.215 1.576 1.215 2.446 0 1.364-1.003 2.615-2.825 3.524-1.703.85-3.955 1.318-6.342 1.318-2.387 0-4.64-.468-6.342-1.318C1.836 16.94.833 15.69.833 14.325c0-.87.42-1.716 1.215-2.446.627-.576 1.49-1.08 2.516-1.473-.032-.236-.048-.477-.048-.72 0-1.676.924-3.468 1.987-4.974l.28-.387.141-.188.284-.364.282-.347.14-.166.274-.32.265-.297.253-.276.35-.368.304-.308.476-.46zm5.598 10.283l.022-.06c-.738 2.147-2.781 3.695-5.18 3.695-2.374 0-4.4-1.515-5.158-3.627-.563.264-1.038.57-1.402.903-.523.481-.789.988-.789 1.507 0 .84.74 1.689 2.028 2.332 1.415.706 3.308 1.095 5.329 1.095s3.914-.39 5.329-1.095c1.289-.643 2.028-1.493 2.028-2.332 0-.519-.266-1.026-.79-1.507-.366-.336-.847-.645-1.417-.91zm-4.853-8.212l-.305-.305-.304.305-.243.252-.268.288-.288.32c-.246.278-.507.587-.766.919l-.134.172-.27.365C6.855 6.812 5.99 8.35 5.99 9.714c0 2.201 1.795 3.992 4.001 3.992 2.206 0 4.001-1.79 4.001-3.992 0-1.365-.864-2.902-1.727-4.096l-.27-.365-.29-.368-.31-.375c-.101-.12-.202-.237-.3-.349l-.288-.32-.268-.287-.243-.252zM12.5 9.167c0 1.782-1.406 3.242-3.167 3.329l-.166.004v-1.203c1.127 0 2.053-.88 2.126-1.99l.004-.14H12.5z" transform="translate(5 5)"/>
                    </g>
                </g>
            </g>
        </g>
    </g>
</svg>
