<svg xmlns="http://www.w3.org/2000/svg" width="15" height="15" viewBox="0 0 15 15">
    <defs>
        <filter id="bbgxy514ma">
            <feColorMatrix in="SourceGraphic" values="0 0 0 0 1.000000 0 0 0 0 1.000000 0 0 0 0 1.000000 0 0 0 1.000000 0"/>
        </filter>
    </defs>
    <g fill="none" fill-rule="evenodd">
        <g>
            <g filter="url(#bbgxy514ma)" transform="translate(-33 -824) translate(15 808)">
                <g fill="#000" fill-rule="nonzero">
                    <path d="M7.5 0c1.999 0 3.88.781 5.3 2.2C14.219 3.62 15 5.501 15 7.5c0 2.003-.78 3.887-2.197 5.303C11.387 14.22 9.503 15 7.5 15c-.259 0-.469-.21-.469-.469s.21-.469.469-.469c3.619 0 6.562-2.943 6.563-6.562 0-1.748-.684-3.395-1.926-4.637C10.895 1.621 9.248.938 7.5.938 3.88.938.937 3.88.937 7.5c0 1.66.622 3.234 1.728 4.438l.147.155v-.843c0-.259.21-.469.47-.469.237 0 .433.177.464.405l.004.064v1.875c0 .237-.176.433-.405.464l-.064.005H1.406c-.259 0-.468-.21-.468-.469 0-.237.176-.433.405-.464l.063-.005h.648C.739 11.27 0 9.436 0 7.5c0-2.003.78-3.887 2.197-5.303C3.613.78 5.497 0 7.5 0zm-.315 3.403c.16-.146.398-.16.574-.044l.064.05.277.264.186.183.22.223.245.257.174.188.18.2.184.21.093.11c1.084 1.284 1.634 2.348 1.634 3.16 0 1.938-1.577 3.515-3.516 3.515s-3.516-1.577-3.516-3.516c0-.775.501-1.778 1.49-2.986l.237-.283.184-.21.18-.2.174-.188.245-.257.286-.289.405-.387zm.19 1.903c-.16-.172-.42-.197-.608-.068l-.063.051-.107.104-.089.091-.168.18-.129.146-.137.165c-.257.316-.537.713-.728 1.134-.106.236-.002.513.234.62.063.029.129.042.193.042.179 0 .35-.103.428-.276.137-.303.34-.6.537-.85l.166-.202.153-.174.131-.139.162-.161c.19-.176.201-.473.025-.663z" transform="translate(18 16)"/>
                </g>
            </g>
        </g>
    </g>
</svg>
