<svg width="21" height="20" viewBox="0 0 21 20" fill="none" xmlns="http://www.w3.org/2000/svg">
    <path d="m8.772 1 6.396 3.22v1.958h-1.42V4.955l-3.555-1.784v13.668l3.546-1.785v-1.223h1.42v1.95L8.763 19V1h.01zM3.434 17.188a1.23 1.23 0 0 1-1.225-1.214 1.2 1.2 0 0 1 .613-1.049 1.2 1.2 0 0 1 .612-.165 1.23 1.23 0 0 1 1.225 1.214 1.2 1.2 0 0 1-.612 1.049 1.2 1.2 0 0 1-.613.165zm1.235-3.55c-.27 0-.53-.074-.761-.203a1.498 1.498 0 0 1-.77-1.296c0-.534.296-1.03.77-1.297.241-.13.501-.203.761-.203s.53.065.761.203c.474.266.77.763.77 1.296 0 .534-.296 1.03-.77 1.297a1.57 1.57 0 0 1-.76.203zm13.256-.837c-.213 0-.436-.056-.622-.166a1.235 1.235 0 0 1-.622-1.058c0-.432.242-.837.622-1.057.186-.11.4-.166.622-.166.214 0 .437.055.622.166.38.22.622.625.622 1.057 0 .433-.241.837-.622 1.058-.185.11-.399.166-.622.166zm-3.5 0c-.65 0-1.188-.497-1.234-1.132v-.092c0-.671.557-1.223 1.244-1.223.687 0 1.235.552 1.235 1.223a1.243 1.243 0 0 1-1.244 1.224zm-7.77-3.1a1.2 1.2 0 0 1-.612-.165 1.219 1.219 0 0 1-.613-1.049 1.2 1.2 0 0 1 .613-1.049 1.2 1.2 0 0 1 .613-.165 1.2 1.2 0 0 1 .612.165c.38.221.613.617.613 1.049a1.2 1.2 0 0 1-.613 1.049 1.3 1.3 0 0 1-.612.165zm7.77-.092c-.65 0-1.188-.497-1.234-1.131v-.092c0-.672.557-1.224 1.244-1.224.687 0 1.235.552 1.235 1.224a1.243 1.243 0 0 1-1.244 1.223zm3.5 0a1.235 1.235 0 0 1-1.244-1.223c0-.433.242-.837.622-1.058.186-.11.4-.166.622-.166.214 0 .437.056.622.166.38.22.622.625.622 1.058 0 .432-.241.837-.622 1.058-.185.11-.399.165-.622.165zM2.395 7.448a1.2 1.2 0 0 1-.613-.166 1.219 1.219 0 0 1-.613-1.048 1.2 1.2 0 0 1 .613-1.049 1.2 1.2 0 0 1 .613-.166 1.2 1.2 0 0 1 .612.166c.381.22.613.616.613 1.049a1.2 1.2 0 0 1-.613 1.048c-.195.11-.399.166-.612.166zm2.887-2.815A1.23 1.23 0 0 1 4.057 3.42a1.2 1.2 0 0 1 .612-1.049c.186-.11.4-.165.613-.165a1.23 1.23 0 0 1 1.225 1.214 1.2 1.2 0 0 1-.613 1.049c-.185.11-.399.165-.612.165z" fill="#7F7F7F"/>
</svg>
