<svg xmlns="http://www.w3.org/2000/svg" width="20" height="20" viewBox="0 0 20 20">
    <defs>
        <filter id="0xqyded2ha">
            <feColorMatrix in="SourceGraphic" values="0 0 0 0 1.000000 0 0 0 0 1.000000 0 0 0 0 1.000000 0 0 0 1.000000 0"/>
        </filter>
    </defs>
    <g fill="none" fill-rule="evenodd">
        <g>
            <g>
                <g filter="url(#0xqyded2ha)" transform="translate(-497 -931) translate(449 899) translate(43 27)">
                    <g>
                        <g fill="#000" fill-rule="nonzero">
                            <path d="M8.241 1.35C7.829.86 7.437.41 7.083 0c-.353.43-.745.88-1.157 1.35C3.434 4.207 0 8.18 0 11.27c0 1.957.785 3.718 2.08 4.99 1.275 1.271 3.041 2.073 5.003 2.073 1.962 0 3.728-.782 5.004-2.074 1.275-1.271 2.08-3.052 2.08-4.989 0-3.091-3.434-7.044-5.926-9.92zM7.123 16.73c-1.472 0-2.826-.607-3.787-1.565-.962-.96-1.57-2.31-1.57-3.777-.02-.274.216-.489.49-.489.275 0 .491.215.491.49 0 1.212.49 2.289 1.275 3.09.785.783 1.884 1.273 3.1 1.273.275 0 .491.215.491.489s-.216.489-.49.489z" transform="translate(5 5) translate(3.333 .833)"/>
                        </g>
                    </g>
                </g>
            </g>
        </g>
    </g>
</svg>
