<?xml version="1.0" encoding="UTF-8"?>
<svg width="24px" height="24px" viewBox="0 0 24 24" version="1.1" xmlns="http://www.w3.org/2000/svg" xmlns:xlink="http://www.w3.org/1999/xlink">
    <title>icon / group / inhouse_service</title>
    <g id="icon-/-group-/-inhouse_service" stroke="none" stroke-width="1" fill="none" fill-rule="evenodd">
        <g id="002-truck" transform="translate(1.000000, 0.000000)" fill="#000000" fill-rule="nonzero">
            <path d="M21.9886406,14.4679687 L20.2187344,13.9679531 L20.2187344,9.48435937 L18.2225156,9.48435937 L18.1923281,9.46692187 C18.2900625,8.986125 18.3394688,8.49473437 18.3394688,8.00001562 C18.3394688,7.50529687 18.2900625,7.01390625 18.1923281,6.53310937 L19.1028281,6.00745312 L16.7848594,1.99265625 L15.8729531,2.51910937 C15.1322813,1.86201562 14.2690781,1.36298437 13.3335469,1.05117187 L13.3335469,-1.33226763e-15 L8.69770312,-1.33226763e-15 L8.69770312,1.05117187 C7.76217187,1.36303125 6.89896875,1.86201562 6.15829687,2.51910937 L5.24639062,1.99265625 L2.92846875,6.00740625 L3.83896875,6.5330625 C3.74123437,7.01385937 3.69182812,7.50525 3.69182812,7.99996875 C3.69182812,8.03123437 3.692625,8.06245312 3.693,8.09371875 L0.042609375,8.09371875 L0.042609375,21.7272656 L2.17275,21.7272656 C2.398875,23.0167031 3.52603125,24 4.87926562,24 C6.2325,24 7.35965625,23.0167031 7.58578125,21.7273125 L14.4454688,21.7273125 C14.6715938,23.0167031 15.79875,24 17.1519844,24 C18.5052188,24 19.632375,23.0167031 19.8585,21.7273125 L21.9886406,21.7273125 L21.9886406,14.4679687 Z M18.4943438,21.2514375 C18.4943438,21.9915938 17.8921406,22.59375 17.1519844,22.59375 C16.4118281,22.59375 15.809625,21.9915938 15.809625,21.2514375 C15.809625,20.5112812 16.4118281,19.909125 17.1519844,19.909125 C17.8921406,19.909125 18.4943438,20.5112812 18.4943438,21.2514375 Z M6.22157813,21.2514375 C6.22157813,21.9915938 5.619375,22.59375 4.87921875,22.59375 C4.1390625,22.59375 3.53685937,21.9915938 3.53685937,21.2514375 C3.53685937,20.5112812 4.1390625,19.909125 4.87921875,19.909125 C5.61942187,19.909125 6.22157813,20.5112812 6.22157813,21.2514375 Z M4.87926562,18.502875 C3.69014062,18.502875 2.67525,19.2620625 2.29307812,20.3210625 L1.44885937,20.3210625 L1.44885937,15.2031094 L8.818125,15.2031094 L8.0184375,16.0027969 L9.01279688,16.9971563 L11.5099219,14.4999844 L9.01279688,12.0028125 L8.0184375,12.9971719 L8.818125,13.7968594 L1.44885937,13.7968594 L1.44885937,9.50001562 L14.3124844,9.50001562 L14.3124844,20.3210625 L7.46545313,20.3210625 C7.08328125,19.2620156 6.06839062,18.502875 4.87926562,18.502875 Z M5.09807812,8.00001562 C5.09807812,7.44909375 5.17359375,6.90379687 5.3225625,6.37935937 L5.47228125,5.85225 L4.84940625,5.49267187 L5.76107812,3.91359375 L6.38601562,4.27439062 L6.767625,3.88092187 C7.537125,3.08751562 8.50678125,2.52703125 9.57178125,2.26007812 L10.1039531,2.12667187 L10.1039531,1.40625 L11.9272969,1.40625 L11.9272969,2.12667187 L12.4594687,2.26007812 C13.5244687,2.52703125 14.494125,3.08751562 15.263625,3.88092187 L15.6452344,4.27439062 L16.2701719,3.91359375 L17.1818437,5.49267187 L16.5589687,5.85225 L16.7086875,6.37935937 C16.8576563,6.90379687 16.9331719,7.44909375 16.9331719,8.00001562 C16.9331719,8.5035 16.869375,9.00196875 16.7448281,9.48435937 L15.7187344,9.48435937 L15.7187344,8.09376562 L14.2163438,8.09376562 C14.2172344,8.06254687 14.2187344,8.03146875 14.2187344,8.00001562 C14.2187344,6.2338125 12.7818281,4.79685937 11.015625,4.79685937 C9.24942187,4.79685937 7.81251562,6.23376562 7.81251562,8.00001562 C7.81251562,8.03146875 7.81396875,8.06254687 7.81490625,8.09376562 L5.09967188,8.09376562 C5.09920313,8.0625 5.09807813,8.03132812 5.09807812,8.00001562 Z M9.21876562,8.00001562 C9.21876562,7.00921875 10.0248281,6.20310937 11.015625,6.20310937 C12.0064219,6.20310937 12.8124844,7.00917187 12.8124844,8.00001562 C12.8124844,8.03146875 12.8116406,8.0626875 12.8100469,8.09376562 L9.22120312,8.09376562 C9.21960937,8.0626875 9.21876562,8.03146875 9.21876562,8.00001562 L9.21876562,8.00001562 Z M20.5823906,20.3210625 L19.7381719,20.3210625 C19.356,19.2620625 18.3411094,18.502875 17.1519844,18.502875 C16.627125,18.502875 16.1363438,18.6509531 15.7187344,18.9071719 L15.7187344,10.8906094 L18.8124844,10.8906094 L18.8124844,15.0320156 L20.5823906,15.5320312 L20.5823906,20.3210625 Z" id="Shape"></path>
        </g>
    </g>
</svg>