<svg class="icon" viewBox="0 0 1024 1024" version="1.1" xmlns="http://www.w3.org/2000/svg"
     width="200" height="200">
    <defs>
        <style type="text/css">@font-face { font-family: feedback-iconfont; src:
            url("//at.alicdn.com/t/font_1031158_u69w8yhxdu.woff2?t=1630033759944") format("woff2"),
            url("//at.alicdn.com/t/font_1031158_u69w8yhxdu.woff?t=1630033759944") format("woff"),
            url("//at.alicdn.com/t/font_1031158_u69w8yhxdu.ttf?t=1630033759944") format("truetype"); }
        </style>
    </defs>
    <path d="M711.669 399.813a28.036 28.036 0 0 1-19.886-8.24l-61.416-61.389c-10.987-10.987-10.987-28.785 0-39.772 10.987-10.987 28.785-10.987 39.772 0l61.416 61.389c10.987 10.987 10.987 28.785 0 39.772a28.034 28.034 0 0 1-19.886 8.24z"
          fill="#333333"></path>
    <path d="M171.118 959.948c-27.961 0-55.923-10.63-77.182-31.917-20.628-20.628-31.999-48.04-31.999-77.21 0-29.17 11.371-56.582 31.999-77.182 15.903-15.931 36.421-26.396 58.779-30.159l366.492-366.492c-35.323-85.779-16.535-184.056 49.605-250.17 58.697-58.724 145.355-80.89 226.328-57.846a28.158 28.158 0 0 1 19.502 19.996c2.499 9.641-0.275 19.914-7.334 26.945l-67.404 67.377c-4.752 4.752-4.752 12.8 0 17.551l81.193 81.192c6.208 6.208 11.234 6.29 17.551 0l67.404-67.404c7.032-7.086 17.332-9.888 26.945-7.334a28.097 28.097 0 0 1 19.996 19.529c23.017 80.89 0.852 167.631-57.846 226.328-66.168 66.168-164.445 84.873-250.197 49.578L278.459 869.225c-3.763 22.331-14.2 42.849-30.104 58.779-21.314 21.287-49.276 31.944-77.237 31.944z m556.234-843.649c-44.249 0.934-86.988 18.485-118.767 50.292-53.643 53.643-65.948 135.385-30.626 203.448a28.108 28.108 0 0 1-5.081 32.851L191.004 784.736c-4.999 6.262-14.695 13.102-22.715 13.514-9.366 0.522-22.99 3.571-34.553 15.134-10.025 10.025-15.546 23.32-15.546 37.438 0 14.146 5.521 27.44 15.519 37.438 20.628 20.628 54.22 20.573 74.848 0 11.564-11.591 14.612-25.215 15.134-34.581 0.412-8.02 4.257-15.436 10.492-20.463l384.895-384.154c8.707-8.68 22.001-10.712 32.851-5.081 68.036 35.405 149.833 23.045 203.448-30.598 31.779-31.779 49.331-74.545 50.265-118.795l-27.22 27.22c-26.725 26.753-70.316 26.808-97.096 0l-81.193-81.192c-26.78-26.78-26.78-70.316 0-97.096l27.219-27.221z"
          fill="#333333"></path>
    <path d="M164.621 857.331m-20.264 0a20.264 20.264 0 1 0 40.528 0 20.264 20.264 0 1 0-40.528 0Z" fill="#333333"
    ></path>
    <path d="M813.104 960.003c-22.578 0-43.782-8.762-59.658-24.638L587.38 769.3c-32.905-32.906-32.905-86.439 0-119.344l43.261-43.261c32.823-32.878 86.384-32.905 119.317-0.027l166.066 166.12c32.878 32.878 32.878 86.384 0.027 119.317h-0.027l-43.261 43.261c-15.876 15.875-37.081 24.637-59.659 24.637zM690.299 638.255a28.121 28.121 0 0 0-19.886 8.213l-43.261 43.261c-5.274 5.274-8.185 12.333-8.185 19.914 0 7.553 2.912 14.612 8.185 19.886l166.066 166.066c10.987 10.987 28.785 10.987 39.772 0l43.26-43.26c10.959-10.987 10.959-28.813 0-39.772L710.185 646.467a28.119 28.119 0 0 0-19.886-8.212z m205.838 233.964h0.549-0.549zM260.441 389.788c-0.439 0-0.879 0-1.318-0.027a28.207 28.207 0 0 1-20.353-10.163L90.392 200.513c-9.256-11.179-8.487-27.549 1.785-37.822l51.171-51.171c10.273-10.273 26.643-11.014 37.822-1.785l179.085 148.377a28.207 28.207 0 0 1 10.163 20.353 28.167 28.167 0 0 1-8.213 21.205l-81.879 81.879c-5.273 5.3-12.442 8.239-19.885 8.239z m-110.39-205.426l112.34 135.577 38.207-38.207L165.02 169.393l-14.969 14.969z"
          fill="#333333"></path>
    <path d="M608.42 655.888a28.036 28.036 0 0 1-19.886-8.24l-59.411-59.411c-10.987-10.987-10.987-28.785 0-39.772 10.987-10.987 28.785-10.987 39.772 0l59.411 59.411c10.987 10.987 10.987 28.785 0 39.772a28.032 28.032 0 0 1-19.886 8.24zM454.907 502.375a28.036 28.036 0 0 1-19.886-8.24L281.508 340.622c-10.987-10.987-10.987-28.785 0-39.772s28.785-10.987 39.772 0l153.513 153.513c10.987 10.987 10.987 28.785 0 39.772a28.032 28.032 0 0 1-19.886 8.24z"
          fill="#333333">

    </path>
</svg>