<?xml version="1.0" encoding="UTF-8"?>
<svg width="27px" height="29px" viewBox="0 0 27 29" version="1.1" xmlns="http://www.w3.org/2000/svg" xmlns:xlink="http://www.w3.org/1999/xlink">
    <!-- Generator: Sketch 46.2 (44496) - http://www.bohemiancoding.com/sketch -->
    <title>password</title>
    <desc>Created with Sketch.</desc>
    <defs></defs>
    <g id="PC_shell_admin" stroke="none" stroke-width="1" fill="none" fill-rule="evenodd">
        <g id="1登录默认" transform="translate(-431.000000, -422.000000)" fill="#CCCCCC">
            <g id="password" transform="translate(430.000000, 421.000000)">
                <path d="M2.44921875,13.9812882 L2.44921875,28.0979394 L25.9507813,28.0979394 L25.9507813,13.9812882 L2.44921875,13.9812882 Z M1.2,12.7592276 L27.2,12.7592276 L27.2,29.32 L1.2,29.32 L1.2,12.7592276 Z M7.02460938,12.7592276 L5.77539063,12.7592276 L5.77539063,9.4948446 C5.77539063,4.98548955 9.55533779,1.32 14.2,1.32 C18.8446622,1.32 22.6246094,4.98548955 22.6246094,9.4948446 L22.6246094,12.7592276 L21.3753906,12.7592276 L21.3753906,9.4948446 C21.3753906,5.66282523 18.1571778,2.54206057 14.2,2.54206057 C10.2428222,2.54206057 7.02460938,5.66282523 7.02460938,9.4948446 L7.02460938,12.7592276 Z" id="Combined-Shape" fill-rule="nonzero"></path>
                <polygon id="line" points="13.5599995 18 13.5599995 24 14.7599995 24 14.7599995 18"></polygon>
            </g>
        </g>
    </g>
</svg>