<?xml version="1.0" encoding="UTF-8"?>
<svg width="32px" height="32px" viewBox="0 0 32 32" version="1.1" xmlns="http://www.w3.org/2000/svg" xmlns:xlink="http://www.w3.org/1999/xlink">
    <!-- Generator: Sketch 49.3 (51167) - http://www.bohemiancoding.com/sketch -->
    <title>login_phone</title>
    <desc>Created with Sketch.</desc>
    <defs></defs>
    <g id="login_phone" stroke="none" stroke-width="1" fill="none" fill-rule="evenodd">
        <g id="phone" transform="translate(4.000000, 2.000000)" fill="#CCCCCC" fill-rule="nonzero">
            <g id="Combined-Shape">
                <path d="M3.68,1.2 C2.92889274,1.2 2.32,1.80889274 2.32,2.56 L2.32,24.88 C2.32,25.6311073 2.92889274,26.24 3.68,26.24 L20.32,26.24 C21.0711073,26.24 21.68,25.6311073 21.68,24.88 L21.68,2.56 C21.68,1.80889274 21.0711073,1.2 20.32,1.2 L3.68,1.2 Z M3.68,0 L20.32,0 C21.733849,-2.5971984e-16 22.88,1.14615104 22.88,2.56 L22.88,24.88 C22.88,26.293849 21.733849,27.44 20.32,27.44 L3.68,27.44 C2.26615104,27.44 1.12,26.293849 1.12,24.88 L1.12,2.56 C1.12,1.14615104 2.26615104,2.5971984e-16 3.68,0 Z M8.2,5.2 L15.8,5.2 L15.8,4 L8.2,4 L8.2,5.2 Z M12,21.76 C11.2488927,21.76 10.64,21.1511073 10.64,20.4 C10.64,19.6488927 11.2488927,19.04 12,19.04 C12.7511073,19.04 13.36,19.6488927 13.36,20.4 C13.36,21.1511073 12.7511073,21.76 12,21.76 Z M12,22.96 C13.413849,22.96 14.56,21.813849 14.56,20.4 C14.56,18.986151 13.413849,17.84 12,17.84 C10.586151,17.84 9.44,18.986151 9.44,20.4 C9.44,21.813849 10.586151,22.96 12,22.96 Z"></path>
            </g>
        </g>
    </g>
</svg>