<svg xmlns="http://www.w3.org/2000/svg" width="20" height="20" viewBox="0 0 20 20">
    <path fill="#404040" fill-rule="evenodd" d="M2.731 12.667h2.926c.3 0 .577-.2.682-.492l1.837-5.058 2.706 9.35c.09.308.365.525.682.533h.016c.31 0 .586-.2.691-.508l1.617-4.625.325 1.091a.734.734 0 0 0 .7.534h2.356a.738.738 0 0 0 .731-.75.738.738 0 0 0-.731-.75h-1.82l-.813-2.717a.725.725 0 0 0-.683-.533.75.75 0 0 0-.707.5l-1.6 4.591-2.698-9.3A.725.725 0 0 0 8.273 4a.739.739 0 0 0-.707.492l-2.421 6.675H2.73a.738.738 0 0 0-.731.75c0 .416.325.75.731.75z"/>
</svg>
