<?xml version="1.0" encoding="UTF-8"?>
<svg width="32px" height="32px" viewBox="0 0 32 32" version="1.1" xmlns="http://www.w3.org/2000/svg" xmlns:xlink="http://www.w3.org/1999/xlink">
    <!-- Generator: Sketch 49.3 (51167) - http://www.bohemiancoding.com/sketch -->
    <title>login_protection</title>
    <desc>Created with Sketch.</desc>
    <defs></defs>
    <g id="login_protection" stroke="none" stroke-width="1" fill="none" fill-rule="evenodd">
        <g transform="translate(4.000000, 2.000000)" fill="#CCCCCC" fill-rule="nonzero" id="Shape">
            <path d="M23.9973627,6.18404428 C22.9279725,6.10812169 21.8531863,5.90160976 20.9314257,5.59813759 C20.6329532,5.50585237 20.3341775,5.40356257 20.0336436,5.29292005 C19.4001397,5.10108772 18.5381888,4.72057096 17.5598622,4.17842261 C17.5493735,4.17349825 17.539006,4.16732719 17.528669,4.16159249 C17.2986759,4.033964 17.063378,3.89773345 16.8238057,3.75308784 C16.5009606,3.56293854 16.1812682,3.36010429 15.8621517,3.14873034 C15.8497836,3.14015945 15.837567,3.13249237 15.825502,3.12417083 C15.5962669,2.97195166 15.3680017,2.81477692 15.1414039,2.65152469 C14.9939865,2.5475519 14.8463568,2.43675353 14.6986666,2.326859 C14.587626,2.2431447 14.4765855,2.16451057 14.3654541,2.07817825 C13.5529455,1.45421675 12.7509862,0.754176823 12.0000152,0 C11.2490442,0.754176823 10.4469636,1.45421675 9.63445501,2.07817825 C9.52353576,2.16447942 9.41231334,2.2431447 9.30130315,2.326859 C9.153431,2.43675353 9.00595296,2.54755187 8.85856584,2.65152469 C8.63187705,2.81477695 8.40364226,2.97195166 8.17440709,3.12417083 C8.16240271,3.1324924 8.14997392,3.14015945 8.13790891,3.14873034 C7.81854994,3.36013548 7.49910004,3.56293854 7.17619435,3.75308784 C6.93653113,3.8977023 6.70132409,4.033964 6.47120983,4.16159249 C6.46096368,4.16729603 6.45035372,4.17346709 6.44019852,4.17842261 C5.46187183,4.72057096 4.59973906,5.10105657 3.96617453,5.29292005 C3.6658225,5.40371842 3.36728934,5.50588353 3.06851365,5.59813759 C2.14666213,5.90160976 1.07214881,6.10812169 0.00257669701,6.18404428 L0,6.18404428 C0.0311931982,6.6768866 0.0633564534,7.33061248 0.100824657,8.03835064 C0.106766219,8.03835064 0.113708142,8.03835064 0.120650066,8.03725979 C0.301109861,10.6787487 0.815994718,14.4361065 1.59279331,16.643752 C1.6275939,16.7401824 1.65715013,16.8408516 1.69195072,16.9363158 C1.70825971,16.9811961 1.72738789,17.0227416 1.74381813,17.0673727 C3.60310263,22.0025902 6.83246286,25.5935478 10.7134548,26.9097575 L10.7134548,26.9234709 C11.2264298,27.0975692 11.6586178,27.2051886 11.9998939,27.2727273 C12.3411093,27.2050016 12.7735398,27.0975692 13.2865149,26.9234709 L13.2865149,26.9097575 C17.1675674,25.5935478 20.3967154,22.0025902 22.2562122,17.0673727 C22.2726424,17.02243 22.29171,16.9811961 22.3082615,16.9363158 C22.3428195,16.8408516 22.372497,16.7401824 22.4071764,16.643752 C23.1841265,14.4360753 23.6989811,10.6787487 23.8795015,8.03725979 C23.8865041,8.0382883 23.8935369,8.0382883 23.8993269,8.0382883 C23.9367345,7.33061248 23.9687462,6.67694895 24,6.18404428 L23.9973627,6.18404428 Z M22.5944872,7.45995515 L22.5793908,7.74921523 C22.5639912,7.81519557 22.5538057,7.88260961 22.5491373,7.95092746 C22.3810456,10.4097472 21.9089643,14.0544677 21.1486262,16.2150512 C21.1275882,16.2735515 21.1078841,16.333392 21.0883618,16.393139 C21.0761756,16.4303523 21.0641712,16.4677525 21.045528,16.5164664 C21.0299769,16.5539914 21.0148198,16.5916098 21.0045433,16.6199094 C19.275761,21.2081457 16.3029187,24.5116509 12.8481125,25.6833085 C12.7922133,25.7021956 12.7382543,25.7247293 12.6864172,25.7503173 C12.4519377,25.8256477 12.2223387,25.8898827 11.999803,25.9422743 C11.778783,25.8901944 11.5501238,25.8262088 11.3161596,25.7512212 C11.2635343,25.7251656 11.2087265,25.7025073 11.1519179,25.6832773 C7.69692985,24.5116509 4.72414811,21.2081457 2.99870033,16.6282933 C2.98511962,16.5915475 2.97084169,16.5558925 2.94856083,16.5019738 C2.93543482,16.4660695 2.92367298,16.4290432 2.91148671,16.3920169 C2.89184319,16.3322076 2.87201776,16.2722737 2.85419307,16.222656 C2.09109643,14.054156 1.6190454,10.409342 1.45107501,7.95105213 C1.44640664,7.88248492 1.4362211,7.8147904 1.42063967,7.7486854 L1.40590702,7.46553403 C1.40357282,7.42006151 1.40123865,7.37493184 1.39890445,7.33011383 C2.1282918,7.2142041 2.83182127,7.04683781 3.47126673,6.83614951 C3.77137622,6.7433968 4.07615412,6.64014082 4.40187903,6.52080274 C5.14857574,6.29004296 6.07376181,5.87449456 7.08219039,5.31676276 C7.09968164,5.30753734 7.11641501,5.29837427 7.13120828,5.29002154 C7.37496389,5.15481951 7.62435792,5.01036087 7.86614311,4.86437508 C8.1834104,4.6775918 8.51744138,4.46771384 8.88742487,4.22280428 C8.89779229,4.21597873 8.91564728,4.20416647 8.92583282,4.19702926 C9.16889121,4.03558468 9.41094923,3.86881054 9.64036627,3.7034701 C9.77505177,3.60859804 9.9097676,3.50845876 10.0447563,3.408039 L10.1171463,3.35415143 L10.2368567,3.26545042 C10.3133391,3.20919414 10.3897913,3.15278205 10.4600896,3.09808413 C10.9901921,2.6908885 11.5051679,2.26193832 12.0000758,1.81525421 C12.4944077,2.26147084 13.0079587,2.68951714 13.5345145,3.09384542 C13.6105119,3.1528132 13.6864184,3.20885132 13.7623552,3.26470243 L13.8890681,3.35867065 L13.9350546,3.39295425 C14.0766214,3.49842306 14.2182792,3.60382956 14.3482963,3.6953356 C14.588778,3.86874828 14.8311998,4.03564705 15.0512801,4.18150818 L15.1123024,4.22249268 C15.4792241,4.46556339 15.8133157,4.67553485 16.1216404,4.85711326 C16.3757028,5.01039211 16.6250665,5.15481957 16.8626986,5.28665558 C16.8745211,5.29329413 16.8908604,5.30211437 16.9081698,5.31127744 C17.920327,5.87181428 18.8492114,6.2893885 19.5983939,6.52102096 C19.9246947,6.64045254 20.2285329,6.74339686 20.5045124,6.82838902 C21.1597212,7.04412637 21.8692225,7.213425 22.6013078,7.33002039 C22.5990646,7.37293714 22.596791,7.4163215 22.5944872,7.45995515 Z M17.8703088,10.5690412 L10.928503,17.8841015 L7.37484264,14.1389612 C7.12863158,13.8795902 6.7298497,13.8795902 6.48363865,14.1389612 C6.23742759,14.3985503 6.23742759,14.8187738 6.48363865,15.0782383 L10.4829162,19.2928457 C10.6060217,19.4225936 10.767232,19.487483 10.928503,19.487483 C11.089774,19.487483 11.2510146,19.4225935 11.3740595,19.2928457 L18.7614522,11.508256 C19.0076632,11.248885 19.0076632,10.8285681 18.7614522,10.5690412 C18.5153017,10.3096079 18.1164895,10.3096079 17.8703088,10.5690412 Z"></path>
        </g>
    </g>
</svg>