<svg xmlns="http://www.w3.org/2000/svg" width="20" height="20" viewBox="0 0 20 20">
    <defs>
        <filter id="rhu0tqsyfa">
            <feColorMatrix in="SourceGraphic" values="0 0 0 0 0.250980 0 0 0 0 0.250980 0 0 0 0 0.250980 0 0 0 1.000000 0"/>
        </filter>
    </defs>
    <g fill="none" fill-rule="evenodd">
        <g filter="url(#rhu0tqsyfa)" transform="translate(-1400 -150)">
            <g>
                <path fill="#000" fill-rule="nonzero" d="M11.667.833c1.331 0 2.42 1.041 2.495 2.353l.005.147v.834H17.5c.427 0 .78.321.828.736l.005.097c0 .427-.321.78-.736.828l-.097.005h-.833v10.834c0 1.331-1.041 2.42-2.353 2.495l-.147.005H5.833c-1.331 0-2.42-1.041-2.495-2.353l-.005-.147V5.833H2.5c-.427 0-.78-.321-.828-.736L1.667 5c0-.427.321-.78.736-.828l.097-.005h3.333v-.834c0-1.331 1.041-2.42 2.353-2.495l.147-.005h3.334zm3.333 5H5v10.834c0 .427.322.78.736.827l.097.006h8.334c.427 0 .78-.322.827-.736l.006-.097V5.833zm-6.667 2.5c.428 0 .78.322.828.736l.006.098v5c0 .46-.373.833-.834.833-.427 0-.78-.322-.827-.736l-.006-.097v-5c0-.46.373-.834.833-.834zm3.334 0c.427 0 .78.322.827.736l.006.098v5c0 .46-.373.833-.833.833-.428 0-.78-.322-.828-.736l-.006-.097v-5c0-.46.373-.834.834-.834zm0-5.833H8.333c-.427 0-.78.322-.827.736l-.006.097v.834h5v-.834c0-.427-.322-.78-.736-.827l-.097-.006z" transform="translate(1400 150)"/>
            </g>
        </g>
    </g>
</svg>
