<svg xmlns="http://www.w3.org/2000/svg" width="15" height="15" viewBox="0 0 15 15">
    <defs>
        <filter id="60jnczbawa">
            <feColorMatrix in="SourceGraphic" values="0 0 0 0 0.000000 0 0 0 0 0.517647 0 0 0 0 0.262745 0 0 0 1.000000 0"/>
        </filter>
    </defs>
    <g fill="none" fill-rule="evenodd">
        <g>
            <g filter="url(#60jnczbawa)" transform="translate(-633 -110) translate(633 107)">
                <g>
                    <path fill="#000" fill-rule="nonzero" d="M1.649 3.034C3.627.719 6.892-.02 9.673 1.22c.315.14.457.51.317.825-.14.315-.51.457-.826.316C6.89 1.348 4.218 1.952 2.6 3.846.981 5.739.8 8.472 2.156 10.562c1.356 2.09 3.925 3.039 6.314 2.333 2.335-.69 3.954-2.801 4.027-5.222l.003-.17v-.58c0-.345.28-.625.625-.625.32 0 .585.241.62.552l.005.073v.581c-.002 3.045-2.006 5.726-4.926 6.59-2.92.863-6.06-.297-7.716-2.852-1.658-2.554-1.437-5.894.54-8.208zm11.66-1.597c.243-.244.639-.244.883 0 .225.225.243.58.052.825l-.052.059-6.875 6.875c-.225.225-.58.243-.825.052l-.059-.052L4.558 7.32c-.244-.244-.244-.64 0-.884.225-.225.58-.243.825-.052l.059.052L6.875 7.87l6.433-6.433z" transform="translate(0 3)"/>
                </g>
            </g>
        </g>
    </g>
</svg>
