<!-- Generated by IcoMoon.io -->
<svg version="1.1" xmlns="http://www.w3.org/2000/svg" width="32" height="32" viewBox="0 0 32 32">
<title>star_highlight</title>
<path fill="#ffb716" d="M16 27.413l-8.659 4.448c-0.561 0.288-1.25 0.067-1.539-0.494-0.107-0.208-0.147-0.444-0.116-0.676l1.373-10.082-6.812-7.36c-0.429-0.463-0.401-1.186 0.062-1.615 0.159-0.148 0.357-0.247 0.571-0.286l9.594-1.751 4.505-8.922c0.284-0.563 0.972-0.79 1.535-0.505 0.218 0.11 0.395 0.287 0.505 0.505l4.505 8.922 9.594 1.751c0.621 0.113 1.032 0.709 0.919 1.329-0.039 0.214-0.138 0.412-0.286 0.571l-6.812 7.36 1.373 10.082c0.085 0.625-0.353 1.201-0.978 1.287-0.232 0.032-0.468-0.009-0.676-0.116l-8.659-4.448z"></path>
</svg>
