<!-- Generated by IcoMoon.io -->
<svg version="1.1" xmlns="http://www.w3.org/2000/svg" width="32" height="32" viewBox="0 0 32 32">
<title>star_normal</title>
<path fill="#d9d9d9" d="M16 24.862l8.033 4.127-1.265-9.29 6.281-6.786-8.883-1.621-4.166-8.25-4.166 8.25-8.883 1.621 6.281 6.786-1.265 9.29 8.033-4.127zM10.986 9.413l-0.713 0.533 0.224-0.444 0.489-0.089zM8.88 30.768c-0.983 0.505-2.188 0.117-2.693-0.865-0.187-0.364-0.258-0.778-0.203-1.184l1.138-8.354-5.64-6.093c-0.75-0.811-0.701-2.076 0.109-2.826 0.279-0.258 0.626-0.432 1-0.5l7.905-1.443 3.718-7.363c0.498-0.986 1.701-1.382 2.687-0.884 0.381 0.193 0.691 0.502 0.884 0.884l3.718 7.363 7.905 1.443c1.087 0.198 1.807 1.24 1.608 2.327-0.068 0.374-0.242 0.721-0.5 1l-5.64 6.093 1.138 8.354c0.149 1.094-0.617 2.103-1.712 2.252-0.406 0.055-0.819-0.015-1.184-0.203l-7.12-3.657-7.12 3.657z"></path>
</svg>
