<?xml version="1.0" encoding="UTF-8"?>
<svg width="30px" height="30px" viewBox="0 0 30 30" version="1.1" xmlns="http://www.w3.org/2000/svg" xmlns:xlink="http://www.w3.org/1999/xlink">
    <title>icon / Menu  / manage Copy 2</title>
    <g id="icon-/-Menu--/-manage-Copy-2" stroke="none" stroke-width="1" fill="none" fill-rule="evenodd">
        <g id="001-dashboard" transform="translate(0.000000, 3.000000)" fill="#000000" fill-rule="nonzero">
            <path d="M25.4966602,4.53257812 C25.098457,4.13443359 24.4734375,4.07572266 24.0079688,4.39289062 C22.2544922,5.58808594 13.4593359,11.5981055 12.5141016,12.5432812 C11.1433594,13.914082 11.1433594,16.1443945 12.5141016,17.5151953 C13.1994727,18.2005078 14.0998242,18.5432227 15.0000586,18.5432227 C15.900293,18.5432227 16.8005859,18.2005078 17.4860156,17.5151953 C18.4311914,16.5699609 24.4411523,7.77480469 25.6364063,6.02132812 C25.953457,5.55591797 25.8948047,4.93083984 25.4966602,4.53257812 Z M15.8286328,15.8578711 C15.3717773,16.3148437 14.6282813,16.3148437 14.1714258,15.8578711 C13.7145117,15.4010156 13.7144531,14.6577539 14.1711914,14.2008398 C14.538457,13.8379102 17.0355469,12.0570117 20.1078516,9.92144531 C17.9723438,12.99375 16.1914453,15.4907227 15.8286328,15.8578711 Z" id="Shape"></path>
            <path d="M5.40416016,20.4798633 L3.95748047,21.1855664 C2.89892578,19.2963867 2.34375,17.1877734 2.34375,15.0292383 C2.34375,13.4477344 2.63537109,11.9330273 3.16757813,10.5360938 L4.82525391,11.3312109 C4.98873047,11.4096094 5.16128906,11.4467578 5.33126953,11.4467578 C5.76796875,11.4467578 6.18720703,11.201543 6.38871094,10.7814258 C6.66855469,10.1978906 6.42246094,9.49787109 5.83886719,9.21796875 L4.20222656,8.43292969 C6.23642578,5.11535156 9.75597656,2.80236328 13.8281836,2.42677734 L13.8281836,4.18933594 C13.8281836,4.8365625 14.352832,5.36121094 15.0000586,5.36121094 C15.6472852,5.36121094 16.1719336,4.8365625 16.1719336,4.18933594 L16.1719336,2.42589844 C17.5681055,2.55298828 18.919043,2.90853516 20.2014844,3.48744141 C20.7912305,3.75375 21.4853906,3.49130859 21.7516992,2.9015625 C22.0180078,2.31164063 21.7556836,1.61759766 21.1657617,1.35128906 C19.2224414,0.474082031 17.1479883,0.0292382812 15,0.0292382812 C10.9933594,0.0292382812 7.22654297,1.58947266 4.39335938,4.42259766 C1.56029297,7.25578125 0,11.0225977 0,15.0292383 C0,17.9899805 0.878789063,20.8695117 2.54138672,23.3562891 C2.76533203,23.6911523 3.13558594,23.8769531 3.51632813,23.8769531 C3.68941406,23.8769531 3.86472656,23.8385742 4.02943359,23.7582422 L6.43177734,22.5863672 C7.01349609,22.3025977 7.25501953,21.6010547 6.97125,21.0193359 C6.68748047,20.4376758 5.98587891,20.1962109 5.40416016,20.4798633 Z" id="Path"></path>
            <path d="M28.6778906,8.86353516 C28.4116406,8.27367187 27.7177148,8.01117187 27.1276172,8.27759766 C26.5377539,8.54390625 26.2754297,9.23794922 26.5417383,9.8278125 C27.2813086,11.4659766 27.65625,13.2159961 27.65625,15.0292383 C27.65625,17.1909961 27.0992578,19.3030078 26.0375977,21.1943555 L24.5272266,20.4751172 C23.9429883,20.1969141 23.2436719,20.4449414 22.9653516,21.0293555 C22.6870898,21.6136523 22.9352344,22.3129688 23.5195898,22.5912305 L25.9805273,23.7631055 C26.1424219,23.8401563 26.314043,23.8770117 26.4837305,23.8770117 C26.8645898,23.8770117 27.2349023,23.6909766 27.4585547,23.3563477 C29.1212109,20.8695117 30,17.9899805 30,15.0292383 C30,12.88125 29.5551563,10.8067969 28.6778906,8.86353516 Z" id="Path"></path>
        </g>
    </g>
</svg>