<?xml version="1.0" encoding="UTF-8"?>
<svg width="30px" height="30px" viewBox="0 0 30 30" version="1.1" xmlns="http://www.w3.org/2000/svg" xmlns:xlink="http://www.w3.org/1999/xlink">
    <title>icon / Menu  / manage Copy</title>
    <g id="icon-/-Menu--/-manage-Copy" stroke="none" stroke-width="1" fill="none" fill-rule="evenodd">
        <g id="004-writing" transform="translate(2.000000, 0.000000)" fill="#000000" fill-rule="nonzero">
            <path d="M19.128457,12.890625 C19.128457,12.2433984 18.6038086,11.71875 17.956582,11.71875 L5.88626953,11.71875 C5.23904297,11.71875 4.71439453,12.2433984 4.71439453,12.890625 C4.71439453,13.5378516 5.23904297,14.0625 5.88626953,14.0625 L17.956582,14.0625 C18.6038086,14.0625 19.128457,13.5378516 19.128457,12.890625 Z" id="Path"></path>
            <path d="M5.88626953,16.40625 C5.23904297,16.40625 4.71439453,16.9308984 4.71439453,17.578125 C4.71439453,18.2253516 5.23904297,18.75 5.88626953,18.75 L13.2169922,18.75 C13.8642187,18.75 14.3888672,18.2253516 14.3888672,17.578125 C14.3888672,16.9308984 13.8642187,16.40625 13.2169922,16.40625 L5.88626953,16.40625 Z" id="Path"></path>
            <path d="M8.64017578,27.65625 L4.72089844,27.65625 C3.42855469,27.65625 2.37714844,26.6048438 2.37714844,25.3125 L2.37714844,4.6875 C2.37714844,3.39515625 3.42855469,2.34375 4.72089844,2.34375 L19.128457,2.34375 C20.4208008,2.34375 21.472207,3.39515625 21.472207,4.6875 L21.472207,11.8945312 C21.472207,12.5417578 21.9968555,13.0664062 22.644082,13.0664062 C23.2913086,13.0664062 23.815957,12.5417578 23.815957,11.8945312 L23.815957,4.6875 C23.815957,2.1028125 21.7131445,0 19.128457,0 L4.72089844,0 C2.13621094,0 0.0333984375,2.1028125 0.0333984375,4.6875 L0.0333984375,25.3125 C0.0333984375,27.8971875 2.13621094,30 4.72089844,30 L8.64017578,30 C9.28740234,30 9.81205078,29.4753516 9.81205078,28.828125 C9.81205078,28.1808984 9.28740234,27.65625 8.64017578,27.65625 Z" id="Path"></path>
            <path d="M25.8916406,16.9671094 C24.5208984,15.5963672 22.2905859,15.5963086 20.9207227,16.9661719 L14.4869531,23.3857031 C14.3503125,23.5220508 14.2495313,23.6899805 14.1933984,23.874668 L12.7922461,28.4874609 C12.6680273,28.8964453 12.77625,29.3405273 13.0747266,29.6464453 C13.2983203,29.8756055 13.6020703,30 13.9136133,30 C14.0178516,30 14.1230859,29.9860547 14.2263867,29.9574023 L18.9563672,28.6471875 C19.1510156,28.5932813 19.3284375,28.4899805 19.4714063,28.3472461 L25.8916992,21.9390234 C27.2624414,20.5682812 27.2624414,18.3379688 25.8916406,16.9671094 Z M18.03375,26.4707812 L15.6541406,27.1299609 L16.3505273,24.8372461 L20.6916797,20.5057031 L22.3492969,22.1633203 L18.03375,26.4707812 Z M24.2352539,20.2810547 L24.0082031,20.5076367 L22.3508789,18.8503125 L22.577168,18.6244922 C23.034082,18.1675781 23.7775195,18.1675781 24.2344336,18.6244922 C24.6913477,19.0814063 24.6913477,19.8248437 24.2352539,20.2810547 Z" id="Shape"></path>
            <path d="M17.956582,7.03125 L5.88626953,7.03125 C5.23904297,7.03125 4.71439453,7.55589844 4.71439453,8.203125 C4.71439453,8.85035156 5.23904297,9.375 5.88626953,9.375 L17.956582,9.375 C18.6038086,9.375 19.128457,8.85035156 19.128457,8.203125 C19.128457,7.55589844 18.6038086,7.03125 17.956582,7.03125 Z" id="Path"></path>
        </g>
    </g>
</svg>