<?xml version="1.0" encoding="UTF-8"?>
<svg width="62px" height="62px" viewBox="0 0 62 62" version="1.1" xmlns="http://www.w3.org/2000/svg" xmlns:xlink="http://www.w3.org/1999/xlink">
    <!-- Generator: Sketch 49.3 (51167) - http://www.bohemiancoding.com/sketch -->
    <title>Group 16</title>
    <desc>Created with Sketch.</desc>
    <defs></defs>
    <g id="ShellB2B" stroke="none" stroke-width="1" fill="none" fill-rule="evenodd">
        <g id="05-2---B2B---Components---Web报表系统" transform="translate(-1490.000000, -746.000000)">
            <g id="Group-3" transform="translate(1311.000000, 698.000000)">
                <g id="toast">
                    <g id="Group-16" transform="translate(179.000000, 48.000000)">
                        <circle id="Oval-3" fill="#FFFFFF" opacity="0.98" cx="31" cy="31" r="31"></circle>
                        <path d="M15.1746946,25.1746946 L15.1746946,20.7199663 C15.1746946,19.8516327 15.8786181,19.1477093 16.7469517,19.1477093 C17.6152853,19.1477093 18.3192087,19.8516327 18.3192087,20.7199663 L18.3192087,25.1746946 L22.773937,25.1746946 C23.6422706,25.1746946 24.3461941,25.8786181 24.3461941,26.7469517 C24.3461941,27.6152853 23.6422706,28.3192087 22.773937,28.3192087 L18.3192087,28.3192087 L18.3192087,32.773937 C18.3192087,33.6422706 17.6152853,34.3461941 16.7469517,34.3461941 C15.8786181,34.3461941 15.1746946,33.6422706 15.1746946,32.773937 L15.1746946,28.3192087 L10.7199663,28.3192087 C9.85163273,28.3192087 9.14770927,27.6152853 9.14770927,26.7469517 C9.14770927,25.8786181 9.85163273,25.1746946 10.7199663,25.1746946 L15.1746946,25.1746946 Z" id="Combined-Shape" fill="#DF3F2A" transform="translate(16.746952, 26.746952) rotate(-45.000000) translate(-16.746952, -26.746952) "></path>
                        <rect id="Rectangle-3" fill="#DF3F2A" x="23" y="44" width="16" height="4" rx="2"></rect>
                        <path d="M43.1746946,25.1746946 L43.1746946,20.7199663 C43.1746946,19.8516327 43.8786181,19.1477093 44.7469517,19.1477093 C45.6152853,19.1477093 46.3192087,19.8516327 46.3192087,20.7199663 L46.3192087,25.1746946 L50.773937,25.1746946 C51.6422706,25.1746946 52.3461941,25.8786181 52.3461941,26.7469517 C52.3461941,27.6152853 51.6422706,28.3192087 50.773937,28.3192087 L46.3192087,28.3192087 L46.3192087,32.773937 C46.3192087,33.6422706 45.6152853,34.3461941 44.7469517,34.3461941 C43.8786181,34.3461941 43.1746946,33.6422706 43.1746946,32.773937 L43.1746946,28.3192087 L38.7199663,28.3192087 C37.8516327,28.3192087 37.1477093,27.6152853 37.1477093,26.7469517 C37.1477093,25.8786181 37.8516327,25.1746946 38.7199663,25.1746946 L43.1746946,25.1746946 Z" id="Combined-Shape-Copy" fill="#DF3F2A" transform="translate(44.746952, 26.746952) rotate(-45.000000) translate(-44.746952, -26.746952) "></path>
                    </g>
                </g>
            </g>
        </g>
    </g>
</svg>