<?xml version="1.0" encoding="UTF-8"?>
<svg width="62px" height="62px" viewBox="0 0 62 62" version="1.1" xmlns="http://www.w3.org/2000/svg" xmlns:xlink="http://www.w3.org/1999/xlink">
    <!-- Generator: Sketch 49.3 (51167) - http://www.bohemiancoding.com/sketch -->
    <title>Group 13</title>
    <desc>Created with Sketch.</desc>
    <defs></defs>
    <g id="ShellB2B" stroke="none" stroke-width="1" fill="none" fill-rule="evenodd">
        <g id="05---B2B---Components---Mobile" transform="translate(-2052.000000, -1054.000000)">
           <g id="Group-8" transform="translate(1950.000000, 1030.000000)">
                <g id="Group-3">
                    <g id="toast">
                        <g id="right" transform="translate(77.000000, 24.000000)">
                            <g id="Group-13" transform="translate(25.000000, 0.000000)">
                                <g id="Group-7">
                                    <g id="Group-19">
                                        <circle id="Oval-3" fill="#FFFFFF" opacity="0.98" cx="31" cy="31" r="31"></circle>
                                        <path d="M30.525,12.3 L30.525,12.3 C32.1751002,12.3 33.5127706,13.6376705 33.5127706,15.2877706 C33.5127706,15.3324812 33.511767,15.3771861 33.5097606,15.4218517 L32.5886313,35.9269897 C32.5390511,37.0306896 31.6298129,37.9 30.525,37.9 L30.525,37.9 C29.4201871,37.9 28.5109489,37.0306896 28.4613687,35.9269897 L27.5402394,15.4218517 C27.4661885,13.7734139 28.7424812,12.377061 30.390919,12.3030101 C30.4355845,12.3010036 30.4802894,12.3 30.525,12.3 Z M30.5,40.85 C31.55,40.85 32.45,41.15 33.15,41.85 C33.85,42.5 34.2,43.35 34.2,44.4 C34.2,45.45 33.85,46.3 33.15,47 C32.4,47.65 31.5,48 30.5,48 C29.5,48 28.65,47.65 27.95,46.95 C27.2,46.25 26.85,45.4 26.85,44.4 C26.85,43.35 27.2,42.5 27.95,41.85 C28.65,41.15 29.5,40.85 30.5,40.85 Z" id="ï¼" fill="#FFB716"></path>
                                    </g>
                                </g>
                            </g>
                        </g>
                    </g>
                </g>
            </g>
        </g>
    </g>
</svg>