<?xml version="1.0" encoding="UTF-8"?>
<svg width="20px" height="19px" viewBox="0 0 20 19" version="1.1" xmlns="http://www.w3.org/2000/svg" xmlns:xlink="http://www.w3.org/1999/xlink">
    <!-- Generator: Sketch 49.3 (51167) - http://www.bohemiancoding.com/sketch -->
    <title>user ico</title>
    <desc>Created with Sketch.</desc>
    <defs></defs>
    <g id="iteration3工厂报表" stroke="none" stroke-width="1" fill="none" fill-rule="evenodd">
        <g id="2工厂端查看报表" transform="translate(-1259.000000, -22.000000)" fill="#263238">
            <g id="Group-17" transform="translate(1167.000000, 22.000000)">
                <path d="M111.884615,16.7157895 L111.884615,18.9473684 L101.942308,18.9473684 L92,18.9473684 L92,16.7157895 C92,16.0140316 93.4384472,15.1578998 96.3153846,14.1473684 C97.6410323,13.6701731 98.5435873,13.1859674 99.0230769,12.6947368 C99.5025665,12.2035063 99.7423077,11.5368463 99.7423077,10.6947368 C99.7423077,10.3859634 99.587181,10.0421072 99.2769231,9.66315789 C98.9666651,9.28420863 98.7410263,8.77193305 98.6,8.12631579 C98.5717947,7.95789389 98.5083338,7.83157937 98.4096154,7.74736842 C98.3108969,7.66315747 98.21218,7.60701768 98.1134615,7.57894737 C98.0147431,7.55087705 97.9160261,7.43158 97.8173077,7.22105263 C97.7185892,7.01052526 97.6551283,6.70877389 97.6269231,6.31578947 C97.6269231,6.09122695 97.6621791,5.90877263 97.7326923,5.76842105 C97.8032055,5.62806947 97.8666664,5.54385979 97.9230769,5.51578947 L98.0076923,5.43157895 C97.8948712,4.72982105 97.8102567,4.11228337 97.7538462,3.57894737 C97.6974356,2.82104884 97.9865353,2.03509179 98.6211538,1.22105263 C99.2557724,0.407013474 100.362813,0 101.942308,0 C103.521803,0 104.635894,0.407013474 105.284615,1.22105263 C105.933337,2.03509179 106.215385,2.82104884 106.130769,3.57894737 L105.876923,5.43157895 C106.130771,5.54386021 106.257692,5.83859411 106.257692,6.31578947 C106.229487,6.70877389 106.166026,7.01052526 106.067308,7.22105263 C105.968589,7.43158 105.869872,7.55087705 105.771154,7.57894737 C105.672435,7.60701768 105.573718,7.66315747 105.475,7.74736842 C105.376282,7.83157937 105.312821,7.95789389 105.284615,8.12631579 C105.171794,8.80000337 104.953207,9.31929642 104.628846,9.68421053 C104.304486,10.0491246 104.142308,10.3859634 104.142308,10.6947368 C104.142308,11.5368463 104.3891,12.2035063 104.882692,12.6947368 C105.376285,13.1859674 106.271788,13.6701731 107.569231,14.1473684 C110.446168,15.1578998 111.884615,16.0140316 111.884615,16.7157895 Z" id="user-ico"></path>
            </g>
        </g>
    </g>
</svg>