<?xml version="1.0" encoding="UTF-8"?>
<svg width="32px" height="32px" viewBox="0 0 32 32" version="1.1" xmlns="http://www.w3.org/2000/svg" xmlns:xlink="http://www.w3.org/1999/xlink">
    <!-- Generator: Sketch 49 (51002) - http://www.bohemiancoding.com/sketch -->
    <title>VerificationCode</title>
    <desc>Created with Sketch.</desc>
    <defs></defs>
    <g id="VerificationCode" stroke="none" stroke-width="1" fill="none" fill-rule="evenodd">
        <path d="M14.4038528,20.1286237 L21.5648957,12.5868605 C21.7930664,12.346559 22.1728381,12.3367251 22.4131395,12.5648957 C22.653441,12.7930664 22.6632749,13.1728381 22.4351043,13.4131395 L14.8389571,21.4131395 C14.6023872,21.6622868 14.2053185,21.6622868 13.9687486,21.4131395 L10.5648957,17.8283192 C10.3367251,17.5880177 10.346559,17.2082461 10.5868605,16.9800754 C10.8271619,16.7519047 11.2069336,16.7617387 11.4351043,17.0020402 L14.4038528,20.1286237 Z M24.6470588,6.52580894 C21.3601339,6.52580894 18.2806636,5.66453889 16.0332885,4.1639495 C13.8293887,5.66454316 10.8106645,6.52580894 7.58887061,6.52580894 C6.33599974,6.52580894 5.10958291,6.39621169 3.94319081,6.14507372 C3.71601914,7.57758212 3.6,9.05480849 3.6,10.5555582 C3.6,20.9440938 9.28710038,29.4 16,29.4 C22.7128996,29.4 28.4,20.9440938 28.4,10.5555582 C28.4,9.07597059 28.2872305,7.61920718 28.066329,6.2055502 C26.9664403,6.41706339 25.8179714,6.52580894 24.6470588,6.52580894 Z M29.1447885,5.38268436 C29.4459522,7.05627638 29.6,8.79098699 29.6,10.5555582 C29.6,21.5294617 23.4995229,30.6 16,30.6 C8.50047706,30.6 2.4,21.5294617 2.4,10.5555582 C2.4,8.76403259 2.55879108,7.00333921 2.86907876,5.30623477 L2.98504885,4.67194163 L3.60936241,4.83321603 C4.86319382,5.15710922 6.20741483,5.32580894 7.58887061,5.32580894 C10.7392316,5.32580894 13.6598991,4.44367453 15.6719801,2.94868124 L16.0261479,2.68553152 L16.3828944,2.94517465 C18.4399635,4.44232697 21.4261831,5.32580894 24.6470588,5.32580894 C25.9504173,5.32580894 27.2217685,5.18194726 28.4187703,4.90444897 L29.0331015,4.76202994 L29.1447885,5.38268436 Z" id="Combined-Shape" fill="#999999" fill-rule="nonzero"></path>
    </g>
</svg>
