<?xml version="1.0" encoding="UTF-8"?>
<svg width="26px" height="26px" viewBox="0 0 26 26" version="1.1" xmlns="http://www.w3.org/2000/svg" xmlns:xlink="http://www.w3.org/1999/xlink">
    <!-- Generator: Sketch 63.1 (92452) - https://sketch.com -->
    <title>view</title>
    <desc>Created with Sketch.</desc>
    <g id="view" stroke="none" stroke-width="1" fill="none" fill-rule="evenodd">
        <g id="编组" transform="translate(1.000000, 3.000000)" fill="#000000" fill-rule="nonzero">
            <path d="M12.181,0 C18.1615897,0 23.1372806,4.31111111 24.181,10 C23.1383898,15.6888889 18.1615897,20 12.181,20 C6.2004103,20 1.22471938,15.6888889 0.181,10 C1.22361022,4.31111111 6.2004103,0 12.181,0 Z M12.181,17.7777778 C16.8396086,17.7767661 20.8788375,14.549656 21.9160957,10 C20.8750561,5.45410936 16.8367884,2.23169805 12.181,2.23169805 C7.52521157,2.23169805 3.48694393,5.45410936 2.44590433,10 C3.48316246,14.549656 7.52239141,17.7767661 12.181,17.7777778 Z M12.181,15 C9.42442578,15 7.18978085,12.7614237 7.18978085,10 C7.18978085,7.23857625 9.42442578,5 12.181,5 C14.9375742,5 17.1722192,7.23857625 17.1722192,10 C17.1722192,12.7614237 14.9375742,15 12.181,15 Z M12.181,12.7777778 C13.7124301,12.7777778 14.9538995,11.5341243 14.9538995,10 C14.9538995,8.46587569 13.7124301,7.22222222 12.181,7.22222222 C10.6495699,7.22222222 9.40810047,8.46587569 9.40810047,10 C9.40810047,11.5341243 10.6495699,12.7777778 12.181,12.7777778 L12.181,12.7777778 Z" id="形状"></path>
        </g>
    </g>
</svg>