<svg xmlns="http://www.w3.org/2000/svg" width="20" height="20" viewBox="0 0 20 20">
    <defs>
        <filter id="3lv84dwqja">
            <feColorMatrix in="SourceGraphic" values="0 0 0 0 1.000000 0 0 0 0 1.000000 0 0 0 0 1.000000 0 0 0 1.000000 0"/>
        </filter>
    </defs>
    <g fill="none" fill-rule="evenodd">
        <g>
            <g filter="url(#3lv84dwqja)" transform="translate(-473 -280) translate(468 275)">
                <g>
                    <path fill="#000" fill-rule="nonzero" d="M10.373 1.667c.873 0 1.684.456 2.14 1.207l7.065 11.795c.444.77.446 1.716.006 2.488s-1.256 1.252-2.153 1.262H3.305c-.888-.01-1.705-.49-2.144-1.262-.44-.772-.438-1.719.013-2.5L8.233 2.874c.455-.751 1.266-1.207 2.14-1.207zm0 1.666c-.291 0-.56.152-.712.4l-7.05 11.77c-.148.256-.15.571-.002.829.146.257.418.417.705.42h14.108c.296-.003.568-.163.715-.42.146-.258.145-.573.004-.818l-7.056-11.78c-.151-.249-.421-.4-.712-.4zm-.59 9.497c.326-.326.853-.326 1.179 0 .325.325.325.853 0 1.178-.326.326-.853.326-1.179 0-.325-.325-.325-.853 0-1.178zm.59-6.078c.427 0 .78.322.827.736l.006.098v3.333c0 .46-.373.833-.833.833-.428 0-.78-.321-.828-.736l-.006-.097V7.586c0-.46.373-.834.834-.834z" transform="translate(5 5)"/>
                </g>
            </g>
        </g>
    </g>
</svg>
