<?xml version="1.0" encoding="UTF-8"?>
<svg id="Layer_1" data-name="Layer 1" xmlns="http://www.w3.org/2000/svg" viewBox="0 0 24 24">
  <defs>
    <style>
      .cls-1 {
        fill: #343434;
      }
    </style>
  </defs>
  <path class="cls-1" d="M11.95,21.96c-5.51,0-10-4.49-10-10S6.44,1.96,11.95,1.96s10,4.49,10,10-4.49,10-10,10Zm0-19.03C6.97,2.93,2.92,6.98,2.92,11.96s4.05,9.03,9.03,9.03,9.03-4.05,9.03-9.03S16.93,2.93,11.95,2.93Zm-.89,17.2c-.84,0-1.83-.35-2.46-.93-.72-.66-.93-1.54-.61-2.48,.41-1.17,1.04-1.8,1.66-2.4,.18-.18,.36-.35,.53-.54l-3.95,2.28c-.38,.22-.83,.18-1.22-.1-.8-.59-1.27-2.12-1.01-3.28,.22-.95,.87-1.58,1.84-1.77,1.21-.23,2.08,0,2.91,.23,.25,.07,.49,.13,.73,.19l-3.95-2.28c-.38-.22-.57-.62-.52-1.11,.11-.99,1.2-2.16,2.34-2.51,.93-.29,1.8-.04,2.45,.71,.81,.94,1.03,1.8,1.25,2.64,.06,.25,.13,.49,.2,.73V4.95c0-.44,.25-.81,.7-1,.91-.4,2.47-.04,3.34,.77,.72,.66,.93,1.54,.61,2.48-.41,1.17-1.04,1.8-1.66,2.4-.18,.18-.36,.35-.53,.54l3.95-2.28c.38-.22,.83-.18,1.22,.1,.8,.59,1.27,2.12,1.01,3.28-.22,.95-.87,1.58-1.84,1.77-1.21,.23-2.08,0-2.91-.23-.25-.07-.49-.13-.73-.19l3.95,2.28c.38,.22,.57,.62,.52,1.11-.11,.99-1.2,2.16-2.34,2.51-.93,.29-1.8,.04-2.45-.71-.81-.94-1.03-1.8-1.25-2.64-.06-.25-.13-.49-.2-.73v4.56c0,.44-.25,.81-.7,1-.25,.11-.56,.16-.88,.16Zm.61-6.75l-.09,.15c-.39,.63-.83,1.06-1.25,1.48-.59,.58-1.09,1.08-1.42,2.03-.2,.57-.08,1.04,.35,1.45,.68,.63,1.84,.79,2.29,.59,.12-.05,.12-.09,.12-.11v-5.58Zm1.38-.47l.08,.15c.35,.65,.5,1.24,.66,1.82,.21,.8,.39,1.48,1.05,2.25,.4,.46,.86,.6,1.43,.42,.88-.27,1.6-1.2,1.66-1.69,.01-.13-.02-.15-.04-.16l-4.84-2.79Zm-6.23-1.13c-.25,0-.51,.02-.8,.08-.59,.11-.95,.45-1.08,1.03-.2,.9,.24,1.99,.64,2.28,.1,.08,.14,.06,.16,.05l4.84-2.79h-.18c-.74-.03-1.33-.19-1.9-.35-.56-.15-1.07-.29-1.67-.29Zm6.51-.29h.18c.74,.03,1.33,.19,1.91,.35,.79,.22,1.48,.41,2.47,.22,.59-.11,.95-.45,1.08-1.03,.2-.9-.24-1.99-.64-2.28-.1-.08-.14-.06-.16-.05l-4.84,2.79Zm-1.38,.44s-.03,.01-.03,.03c0,.04,.06,.04,.06,0,0-.02-.01-.03-.03-.03Zm-3.86-5.64c-.14,0-.29,.02-.45,.07-.88,.27-1.6,1.2-1.66,1.69-.01,.13,.02,.15,.04,.16l4.84,2.79-.08-.16c-.35-.65-.5-1.24-.66-1.82-.21-.8-.39-1.48-1.05-2.25-.29-.33-.61-.49-.98-.49Zm4.75-1.53c-.2,0-.37,.03-.49,.08-.12,.05-.12,.09-.12,.11v5.58l.09-.15c.39-.63,.83-1.06,1.25-1.48,.59-.58,1.09-1.08,1.42-2.03,.2-.57,.08-1.05-.35-1.45-.5-.46-1.26-.67-1.81-.67Z"/>
</svg>