<?xml version="1.0" encoding="UTF-8"?>
<svg id="Layer_1" data-name="Layer 1" xmlns="http://www.w3.org/2000/svg" viewBox="0 0 24 24">
  <defs>
    <style>
      .cls-1 {
        fill: #343434;
      }
    </style>
  </defs>
  <path class="cls-1" d="M8.54,19.38c-.1,0-.2-.04-.28-.1-.09-.08-.15-.2-.15-.32V9.05c0-.12,.05-.24,.15-.32,.09-.08,.21-.12,.34-.1l14,1.95c.21,.03,.37,.21,.37,.42v6c0,.21-.16,.39-.37,.42l-14,1.95s-.04,0-.06,0Zm.42-9.84v8.92l13.15-1.83v-5.26l-13.15-1.83Zm13.58,7.46h0Z"/>
  <path class="cls-1" d="M6.04,16.2s-.04,0-.06,0l-4.54-.71c-.19-.03-.34-.2-.34-.4v-2.18c0-.2,.14-.36,.34-.4l4.54-.71c.12-.02,.23,.02,.32,.09,.09,.08,.14,.19,.14,.3v3.6c0,.12-.05,.23-.14,.3-.07,.06-.17,.1-.26,.1Zm-4.14-1.45l3.74,.58v-2.66l-3.74,.58v1.5Z"/>
  <path class="cls-1" d="M11.04,9.43c-.23,0-.42-.19-.42-.42v-3c0-.23,.19-.42,.42-.42s.42,.19,.42,.42v3c0,.23-.19,.42-.42,.42Z"/>
  <path class="cls-1" d="M11.04,6.43H6.04c-.23,0-.42-.19-.42-.42s.19-.42,.42-.42h5c.23,0,.42,.19,.42,.42s-.19,.42-.42,.42Z"/>
  <path class="cls-1" d="M21.04,6.43h-4c-.23,0-.42-.19-.42-.42s.19-.42,.42-.42h4c.23,0,.42,.19,.42,.42s-.19,.42-.42,.42Z"/>
  <path class="cls-1" d="M17.04,10.43c-.23,0-.42-.19-.42-.42V6c0-.23,.19-.42,.42-.42s.42,.19,.42,.42v4c0,.23-.19,.42-.42,.42Z"/>
  <path class="cls-1" d="M8.54,13.85h-2.5c-.19,0-.35-.16-.35-.35s.16-.35,.35-.35h2.5c.19,0,.35,.16,.35,.35s-.16,.35-.35,.35Z"/>
  <path class="cls-1" d="M8.54,14.85h-2.5c-.19,0-.35-.16-.35-.35s.16-.35,.35-.35h2.5c.19,0,.35,.16,.35,.35s-.16,.35-.35,.35Z"/>
  <polygon class="cls-1" points="20.54 7.5 20.54 4.5 23.04 6 20.54 7.5"/>
  <circle class="cls-1" cx="4.04" cy="14" r=".5"/>
</svg>