<?xml version="1.0" encoding="UTF-8"?>
<svg id="Layer_1" data-name="Layer 1" xmlns="http://www.w3.org/2000/svg" viewBox="0 0 24 24">
  <defs>
    <style>
      .cls-1 {
        fill: #343434;
      }
    </style>
  </defs>
  <path class="cls-1" d="M1.95,17.86c-.3,0-.5-.2-.5-.5V6.56c0-.3,.2-.5,.5-.5s.5,.2,.5,.5v10.9c0,.2-.2,.4-.5,.4Z"/>
  <path class="cls-1" d="M17.35,16.96c-.3,0-.5-.2-.5-.5V7.46c0-.3,.2-.5,.5-.5s.5,.2,.5,.5v9.1c0,.2-.2,.4-.5,.4Z"/>
  <path class="cls-1" d="M17.35,12.46H1.95c-.3,0-.5-.2-.5-.5s.2-.5,.5-.5h15.4c.3,0,.5,.2,.5,.5s-.2,.5-.5,.5Z"/>
  <path class="cls-1" d="M21.05,16.96H7.45c-.8,0-1.4-.6-1.4-1.4v-7.2c0-.8,.5-1.4,1.4-1.4h13.6c.8,0,1.4,.6,1.4,1.4v7.3c0,.7-.7,1.3-1.4,1.3ZM7.45,7.96c-.3,0-.4,.1-.4,.4v7.3c0,.2,.1,.4,.4,.4h13.6c.2,0,.4-.2,.4-.4v-7.3c0-.3-.1-.4-.4-.4H7.45Z"/>
</svg>