<?xml version="1.0" encoding="UTF-8"?>
<svg id="Layer_1" data-name="Layer 1" xmlns="http://www.w3.org/2000/svg" viewBox="0 0 24 24">
  <defs>
    <style>
      .cls-1 {
        fill: #343434;
      }
    </style>
  </defs>
  <path class="cls-1" d="M13.9,8.68c0,.86,.7,1.56,1.56,1.56h1.25v8.44h-6.56v-1.25c0-.86-.7-1.56-1.56-1.56h-3.75v-5.62h.94c.86,0,1.56-.7,1.56-1.56h6.56m0-.78H7.34c-.43,0-.78,.35-.78,.78s-.35,.78-.78,.78h-.94c-.43,0-.78,.35-.78,.78v5.62c0,.43,.35,.78,.78,.78h3.75c.43,0,.78,.35,.78,.78v1.25c0,.43,.35,.78,.78,.78h6.56c.43,0,.78-.35,.78-.78V10.24c0-.43-.35-.78-.78-.78h-1.25c-.43,0-.78-.35-.78-.78s-.35-.78-.78-.78h0Z"/>
  <path class="cls-1" d="M20.15,9.93v0m.78-.78h-1.56v9.69h1.56V9.15h0Z"/>
  <polygon class="cls-1" points="22.97 10.56 21.72 10.56 21.72 17.74 22.97 17.74 22.97 10.56 22.97 10.56"/>
  <path class="cls-1" d="M13.59,5.24v.31H7.34v-.31h6.25m.78-.78H6.56v1.87h7.81v-1.87h0Z"/>
  <path class="cls-1" d="M2.03,9.93v5.94h-.31v-5.94h.31m.78-.78H.93v7.5h1.88v-7.5h0Z"/>
  <rect class="cls-1" x="2.54" y="12.18" width="1.52" height=".78"/>
  <rect class="cls-1" x="10.23" y="6.34" width=".78" height="1.56"/>
  <rect class="cls-1" x="17.5" y="11.82" width="1.88" height=".78"/>
  <rect class="cls-1" x="17.5" y="15.32" width="1.88" height=".78"/>
</svg>