<?xml version="1.0" encoding="UTF-8"?>
<svg id="Layer_1" data-name="Layer 1" xmlns="http://www.w3.org/2000/svg" viewBox="0 0 24 24">
  <defs>
    <style>
      .cls-1 {
        fill: #343434;
        fill-rule: evenodd;
      }
    </style>
  </defs>
  <g id="Layer_3" data-name="Layer 3">
    <path class="cls-1" d="M12.93,2.5c-.32,0-.53,.21-.53,.53v.53H5.93c-.32,0-.53,.21-.53,.53v.3c0,.32,.21,.53,.53,.53h.53v3.92h-.53c-.32,0-.53,.21-.53,.53v.3c0,.32,.21,.53,.53,.53h.53v4.67h-.53c-.32,0-.53,.21-.53,.53v.3c0,.32,.21,.53,.53,.53h.53v3.92h-.53c-.32,0-.53,.21-.53,.53v.3c0,.32,.21,.53,.53,.53h12.22c.32,0,.53-.21,.53-.53v-.3c0-.32-.21-.53-.53-.53h-.53v-3.92h.53c.32,0,.53-.21,.53-.53v-.3c0-.32-.21-.53-.53-.53h-.53v-4.67h.53c.32,0,.53-.21,.53-.53v-.3c0-.32-.21-.53-.53-.53h-.53v-3.92h.53c.32,0,.53-.21,.53-.53v-.3c0-.32-.21-.53-.53-.53h-2.94v-.53c0-.32-.21-.53-.53-.53h-1.75Zm3.34,2.41v15.23H7.82V4.91h8.44Zm-4.13,9.85c.78,0,1.17-.55,1.17-.94s-.23-1.02-.63-1.88c-.16-.31-.31-.55-.47-.78,0-.08-.08-.08-.16,0-.16,.23-.31,.55-.47,.78-.39,.86-.63,1.49-.63,1.88,0,.39,.39,.94,1.17,.94Zm0,1.17c1.33,0,2.35-.94,2.35-2.11,0-1.33-1.41-3.6-2.03-4.46-.16-.23-.47-.23-.63,0-.63,.86-2.03,3.05-2.03,4.46,0,1.09,1.02,2.11,2.35,2.11Z"/>
  </g>
</svg>