<?xml version="1.0" encoding="UTF-8"?>
<svg id="Layer_1" data-name="Layer 1" xmlns="http://www.w3.org/2000/svg" viewBox="0 0 24 24">
  <defs>
    <style>
      .cls-1 {
        fill: #343434;
      }
    </style>
  </defs>
  <g id="Layer_1-2" data-name="Layer 1">
    <g>
      <g>
        <path class="cls-1" d="M11.95,8.18c-2.09,0-3.79,1.7-3.79,3.79s1.7,3.79,3.79,3.79,3.79-1.7,3.79-3.79-1.7-3.79-3.79-3.79Zm0,6.98c-1.76,0-3.19-1.43-3.19-3.19s1.43-3.19,3.19-3.19,3.19,1.43,3.19,3.19-1.43,3.19-3.19,3.19Z"/>
        <path class="cls-1" d="M11.95,15.92c-2.18,0-3.96-1.78-3.96-3.96s1.78-3.96,3.96-3.96,3.96,1.78,3.96,3.96-1.78,3.96-3.96,3.96Zm0-7.57c-1.99,0-3.61,1.62-3.61,3.61s1.62,3.61,3.61,3.61,3.61-1.62,3.61-3.61-1.62-3.61-3.61-3.61Zm0,6.98c-1.86,0-3.37-1.51-3.37-3.37s1.51-3.37,3.37-3.37,3.37,1.51,3.37,3.37-1.51,3.37-3.37,3.37Zm0-6.38c-1.66,0-3.02,1.35-3.02,3.02s1.35,3.02,3.02,3.02,3.02-1.35,3.02-3.02-1.35-3.02-3.02-3.02Z"/>
      </g>
      <g>
        <path class="cls-1" d="M19.02,18.78c1.7-1.77,2.76-4.17,2.76-6.81s-1.05-5.04-2.76-6.81c-.04-.05-.08-.09-.12-.13-.04-.04-.08-.08-.12-.11-1.77-1.71-4.17-2.77-6.82-2.77s-5.05,1.05-6.82,2.76c-.04,.04-.09,.07-.13,.12s-.08,.09-.12,.13c-1.71,1.77-2.76,4.17-2.76,6.82s1.05,5.05,2.76,6.82c.04,.04,.08,.09,.12,.13,.04,.04,.08,.08,.13,.12,1.77,1.71,4.17,2.76,6.82,2.76s5.05-1.05,6.81-2.76c.05-.04,.09-.08,.13-.12,.04-.04,.08-.09,.12-.13Zm-.59-.25c-.26,.24-.58,.37-.93,.37-.37,0-.72-.14-.98-.4-.26-.26-.4-.61-.4-.98s.14-.72,.4-.98c.26-.26,.61-.4,.98-.4s.72,.14,.98,.4c.26,.26,.4,.61,.4,.98,0,.35-.13,.68-.37,.93-.03,.03-.05,.05-.08,.08Zm-13.04-.08c-.5-.54-.49-1.38,.04-1.91,.54-.54,1.42-.54,1.95,0,.54,.54,.54,1.42,0,1.95-.52,.52-1.37,.53-1.91,.04-.03-.03-.05-.05-.08-.08Zm.08-13.04c.26-.24,.6-.37,.93-.37,.35,0,.71,.13,.98,.4,.54,.54,.54,1.42,0,1.95-.54,.54-1.42,.54-1.95,0-.52-.52-.53-1.37-.04-1.91,.03-.03,.05-.05,.08-.08Zm13.04,.08c.24,.26,.37,.58,.37,.93,0,.37-.14,.72-.4,.98-.54,.54-1.42,.54-1.95,0-.26-.26-.4-.61-.4-.98s.14-.72,.4-.98c.27-.27,.62-.4,.98-.4s.67,.13,.93,.37c.03,.03,.05,.05,.08,.08Zm1.29,4.5c-.6,0-1.15,.27-1.51,.7-.17-.84-.5-1.62-.96-2.31,.06,0,.11,0,.17,0,.51,0,1.01-.19,1.4-.58,.33-.33,.52-.74,.57-1.2,.8,1.12,1.35,2.41,1.58,3.82-.34-.28-.78-.45-1.25-.45Zm1.38,1.98c0,.76-.62,1.38-1.38,1.38s-1.38-.62-1.38-1.38,.62-1.38,1.38-1.38,1.38,.62,1.38,1.38Zm-9.23,5.87c-3.24,0-5.87-2.63-5.87-5.87s2.63-5.87,5.87-5.87c0,0,0,0,0,0s0,0,0,0c3.24,0,5.87,2.63,5.87,5.87s-2.63,5.87-5.87,5.87Zm4.15-12.82c-.37,.37-.58,.87-.58,1.4,0,.06,0,.11,0,.17-.69-.46-1.47-.79-2.31-.96,.43-.36,.7-.9,.7-1.51,0-.48-.17-.91-.45-1.25,1.41,.24,2.71,.79,3.82,1.59-.44,.04-.86,.23-1.2,.57Zm-2.77-.9c0,.76-.62,1.38-1.38,1.38h0c-.76,0-1.38-.62-1.38-1.38s.62-1.38,1.38-1.38,1.38,.62,1.38,1.38Zm-2.66,1.51c-.84,.17-1.62,.5-2.31,.96,.05-.56-.14-1.14-.57-1.57-.33-.33-.76-.52-1.2-.57,1.12-.8,2.41-1.35,3.82-1.59-.28,.34-.45,.78-.45,1.25,0,.6,.27,1.15,.7,1.51Zm-5.67,2.19c.39,.39,.89,.58,1.4,.58,.06,0,.11,0,.17,0-.46,.69-.79,1.47-.96,2.31-.36-.43-.9-.7-1.51-.7-.48,0-.91,.17-1.25,.45,.24-1.41,.79-2.7,1.59-3.82,.04,.44,.23,.86,.57,1.2Zm-.9,2.77c.76,0,1.38,.62,1.38,1.38s-.62,1.38-1.38,1.38-1.38-.62-1.38-1.38c0-.76,.62-1.38,1.38-1.38Zm0,3.36c.6,0,1.15-.27,1.51-.7,.17,.84,.5,1.62,.96,2.31-.56-.05-1.14,.14-1.57,.57-.33,.33-.52,.76-.57,1.2-.8-1.12-1.35-2.41-1.59-3.82,.34,.28,.78,.45,1.25,.45Zm3.7,4.97c.43-.43,.62-1.01,.57-1.57,.69,.46,1.47,.79,2.31,.96-.43,.36-.7,.9-.7,1.51,0,.48,.17,.91,.45,1.25-1.41-.24-2.7-.79-3.82-1.59,.44-.04,.86-.23,1.2-.57Zm2.77,.9c0-.76,.62-1.38,1.38-1.38s1.38,.62,1.38,1.38-.62,1.38-1.38,1.38-1.38-.62-1.38-1.38Zm2.66-1.51c.84-.17,1.62-.5,2.31-.96,0,.06,0,.11,0,.17,0,.53,.21,1.02,.58,1.4,.33,.33,.74,.52,1.2,.57-1.12,.8-2.41,1.35-3.82,1.58,.28-.34,.45-.78,.45-1.25,0-.6-.27-1.15-.7-1.51Zm5.67-2.19c-.37-.37-.87-.58-1.4-.58-.06,0-.11,0-.17,0,.46-.69,.79-1.47,.96-2.31,.36,.43,.9,.7,1.51,.7,.48,0,.91-.17,1.25-.45-.24,1.41-.79,2.7-1.58,3.82-.05-.45-.24-.87-.57-1.2Z"/>
        <path class="cls-1" d="M11.95,21.96c-2.6,0-5.06-1-6.94-2.81-.04-.03-.09-.07-.13-.12-.05-.04-.09-.09-.13-.14-1.8-1.87-2.8-4.33-2.8-6.93s1-5.06,2.81-6.94c.03-.04,.07-.09,.12-.13,.04-.04,.09-.09,.14-.13,1.87-1.8,4.33-2.8,6.93-2.8s5.07,1,6.95,2.82c.04,.03,.08,.07,.12,.11,.05,.05,.09,.1,.13,.15,1.8,1.87,2.8,4.33,2.8,6.92s-.99,5.05-2.8,6.93c-.04,.05-.08,.1-.13,.14-.05,.05-.1,.09-.15,.13-1.87,1.8-4.33,2.8-6.92,2.8Zm0-19.65c-2.51,0-4.89,.96-6.7,2.71-.05,.04-.09,.08-.13,.11s-.07,.08-.11,.12c-1.76,1.82-2.72,4.2-2.72,6.71s.96,4.88,2.71,6.7c.04,.05,.08,.09,.11,.13,.04,.04,.08,.07,.12,.11,1.82,1.76,4.2,2.72,6.71,2.72s4.88-.96,6.69-2.71c.05-.04,.09-.08,.13-.12s.08-.08,.11-.12h0c1.75-1.82,2.71-4.2,2.71-6.7s-.96-4.88-2.71-6.69c-.04-.05-.08-.09-.12-.13-.04-.04-.07-.07-.11-.1-1.82-1.76-4.2-2.72-6.71-2.72Zm0,19.05c-.86,0-1.56-.7-1.56-1.56s.7-1.56,1.56-1.56,1.56,.7,1.56,1.56-.7,1.56-1.56,1.56Zm0-2.76c-.67,0-1.21,.54-1.21,1.21s.54,1.21,1.21,1.21,1.21-.54,1.21-1.21-.54-1.21-1.21-1.21Zm1.1,2.71l.3-.36c.26-.32,.41-.73,.41-1.14,0-.53-.23-1.03-.64-1.37l-.28-.23,.36-.07c.8-.16,1.56-.47,2.24-.93l.3-.2-.03,.36c0,.05,0,.1,0,.15,0,.48,.19,.93,.53,1.27,.3,.3,.67,.48,1.09,.52l.46,.05-.38,.27c-1.15,.82-2.5,1.38-3.89,1.62l-.46,.08Zm.53-2.91c.34,.39,.53,.89,.53,1.41,0,.35-.09,.69-.25,1,1.06-.23,2.09-.66,3-1.25-.33-.1-.63-.28-.88-.53-.37-.37-.59-.85-.63-1.37-.56,.33-1.15,.58-1.78,.74Zm-2.72,2.91l-.46-.08c-1.39-.23-2.74-.79-3.89-1.62l-.38-.27,.46-.05c.41-.04,.8-.23,1.09-.52,.38-.38,.56-.9,.52-1.43l-.03-.36,.3,.2c.69,.46,1.44,.77,2.24,.93l.35,.07-.28,.23c-.41,.34-.64,.85-.64,1.37,0,.41,.15,.82,.41,1.14l.3,.36Zm-3.81-1.75c.92,.59,1.94,1.02,3.01,1.25-.16-.31-.25-.65-.25-1,0-.52,.19-1.02,.53-1.41-.63-.16-1.22-.41-1.78-.74-.04,.51-.25,1-.62,1.37h0c-.25,.25-.55,.43-.88,.53Zm10.46-.5c-.42,0-.81-.16-1.1-.46-.29-.29-.46-.68-.46-1.1s.16-.81,.46-1.1c.29-.29,.68-.46,1.1-.46s.81,.16,1.1,.46c.29,.29,.46,.68,.46,1.1,0,.39-.15,.76-.41,1.05l-.09,.09c-.29,.27-.66,.41-1.05,.41Zm0-2.76c-.32,0-.63,.13-.85,.35s-.35,.53-.35,.85,.13,.63,.35,.85c.44,.44,1.2,.46,1.66,.03l.08-.08c.2-.22,.32-.51,.32-.81,0-.32-.13-.63-.35-.85-.23-.23-.53-.35-.85-.35Zm-11.09,2.76c-.38,0-.76-.14-1.06-.41l-.09-.09c-.57-.62-.55-1.56,.04-2.15,.61-.61,1.59-.61,2.2,0,.61,.61,.61,1.59,0,2.2-.3,.3-.7,.45-1.1,.45Zm-.89-.74l.08,.08c.47,.43,1.21,.42,1.66-.04,.47-.47,.47-1.24,0-1.71-.47-.47-1.24-.47-1.71,0-.46,.46-.47,1.19-.03,1.66Zm6.44-.31c-3.33,0-6.05-2.71-6.05-6.05s2.71-6.05,6.04-6.05h.03c3.32,.02,6.02,2.72,6.02,6.05s-2.71,6.05-6.05,6.05Zm-.03-11.74c-3.13,.02-5.67,2.57-5.67,5.7s2.56,5.7,5.7,5.7,5.7-2.56,5.7-5.7-2.54-5.68-5.67-5.7h-.06Zm-7.36,11.52l-.27-.38c-.82-1.15-1.38-2.5-1.62-3.89l-.08-.46,.36,.3c.32,.26,.73,.41,1.14,.41,.53,0,1.03-.23,1.37-.64l.23-.28,.07,.35c.16,.8,.48,1.56,.93,2.24l.2,.3-.36-.03c-.53-.05-1.05,.14-1.43,.52-.29,.29-.48,.68-.52,1.09l-.05,.46Zm-1.46-3.92c.23,1.06,.66,2.09,1.25,3.01,.1-.33,.28-.63,.53-.88,.37-.37,.86-.59,1.37-.62-.33-.56-.58-1.15-.74-1.78-.39,.34-.89,.53-1.41,.53-.35,0-.7-.09-1-.25Zm16.24,3.92l-.05-.46c-.04-.42-.22-.79-.52-1.09h0c-.38-.38-.9-.56-1.43-.52l-.36,.03,.2-.3c.46-.69,.77-1.44,.93-2.24l.07-.35,.23,.28c.34,.41,.85,.64,1.37,.64,.41,0,.82-.15,1.14-.41l.36-.3-.08,.46c-.23,1.39-.79,2.74-1.61,3.89l-.27,.38Zm-.32-1.8c.25,.25,.43,.55,.53,.88,.59-.92,1.02-1.94,1.25-3-.31,.16-.65,.25-1,.25-.52,0-1.02-.19-1.41-.53-.16,.63-.41,1.22-.74,1.78,.52,.04,1,.25,1.37,.62h0Zm-14.92-2.47c-.86,0-1.56-.7-1.56-1.56,0-.86,.7-1.56,1.56-1.56s1.56,.7,1.56,1.56-.7,1.56-1.56,1.56Zm0-2.76c-.67,0-1.21,.54-1.21,1.21,0,.67,.54,1.21,1.21,1.21s1.21-.54,1.21-1.21-.54-1.21-1.21-1.21Zm15.7,2.76c-.86,0-1.56-.7-1.56-1.56s.7-1.56,1.56-1.56,1.56,.7,1.56,1.56-.7,1.56-1.56,1.56Zm0-2.76c-.67,0-1.21,.54-1.21,1.21s.54,1.21,1.21,1.21,1.21-.54,1.21-1.21-.54-1.21-1.21-1.21Zm-14.09,.32l-.23-.28c-.34-.41-.85-.64-1.37-.64-.42,0-.82,.15-1.14,.41l-.36,.3,.08-.46c.23-1.39,.79-2.74,1.62-3.89l.27-.38,.05,.46c.04,.41,.22,.8,.52,1.09,.38,.38,.9,.56,1.43,.52l.36-.03-.2,.3c-.46,.69-.77,1.44-.93,2.24l-.07,.36Zm-1.61-1.27c.52,0,1.02,.19,1.41,.53,.16-.63,.41-1.22,.74-1.78-.52-.04-1-.25-1.37-.62h0c-.25-.25-.43-.55-.53-.88-.59,.92-1.02,1.94-1.25,3.01,.31-.16,.65-.25,1-.25Zm14.09,1.27l-.07-.35c-.16-.8-.47-1.56-.93-2.24l-.2-.3,.36,.03c.53,.05,1.05-.14,1.43-.52,.3-.3,.48-.67,.52-1.09l.05-.46,.27,.38c.82,1.15,1.38,2.5,1.61,3.89l.08,.46-.36-.3c-.32-.26-.73-.41-1.14-.41-.53,0-1.03,.23-1.37,.64l-.23,.28Zm-.54-2.52c.33,.56,.58,1.15,.74,1.78,.39-.34,.89-.53,1.41-.53,.35,0,.7,.09,1,.25-.23-1.06-.65-2.09-1.25-3-.1,.33-.28,.63-.53,.88-.37,.37-.85,.59-1.37,.62Zm-.15-.59c-.4,0-.8-.15-1.1-.46-.29-.29-.46-.68-.46-1.1s.16-.81,.46-1.1c.29-.29,.68-.46,1.1-.46,.39,0,.76,.15,1.05,.42l.09,.09c.27,.29,.41,.66,.41,1.05,0,.42-.16,.81-.46,1.1-.3,.3-.7,.46-1.1,.46Zm0-2.76c-.32,0-.63,.13-.85,.35-.23,.23-.35,.53-.35,.85s.13,.63,.35,.85c.47,.47,1.24,.47,1.71,0,.23-.23,.35-.53,.35-.85,0-.3-.11-.59-.32-.81l-.08-.08c-.22-.2-.51-.32-.81-.32ZM6.4,7.97c-.4,0-.8-.15-1.1-.46-.59-.59-.61-1.53-.04-2.15l.09-.09c.29-.27,.66-.41,1.05-.41,.42,0,.81,.16,1.1,.46,.61,.61,.61,1.59,0,2.2-.3,.3-.7,.46-1.1,.46Zm-.81-2.44l-.08,.08c-.43,.47-.42,1.21,.04,1.66,.47,.47,1.24,.47,1.71,0,.47-.47,.47-1.24,0-1.71-.44-.44-1.2-.46-1.66-.03Zm2.57,1.4l.03-.36c.04-.53-.14-1.05-.52-1.43-.29-.29-.68-.48-1.09-.52l-.46-.05,.38-.27c1.16-.82,2.5-1.38,3.89-1.62l.46-.08-.3,.36c-.26,.32-.41,.73-.41,1.14,0,.53,.23,1.03,.64,1.37l.28,.23-.35,.07c-.8,.16-1.56,.47-2.24,.93l-.3,.2Zm-1.12-2.57c.33,.1,.63,.28,.88,.53,.37,.37,.59,.86,.62,1.37,.56-.33,1.15-.58,1.78-.74-.34-.39-.53-.89-.53-1.41,0-.35,.09-.7,.25-1-1.06,.23-2.09,.66-3.01,1.25Zm8.7,2.57l-.3-.2c-.69-.46-1.44-.77-2.24-.93l-.35-.07,.28-.23c.41-.34,.64-.85,.64-1.37,0-.41-.15-.82-.41-1.14l-.3-.36,.46,.08c1.39,.23,2.74,.79,3.89,1.62l.38,.27-.46,.05c-.41,.04-.8,.23-1.09,.52h0c-.34,.34-.53,.79-.53,1.27,0,.05,0,.1,0,.15l.03,.36Zm-2.16-1.41c.63,.16,1.22,.4,1.78,.74,.04-.52,.25-1,.63-1.37,.25-.25,.55-.43,.88-.53-.92-.59-1.94-1.02-3.01-1.25,.16,.31,.25,.65,.25,1,0,.52-.19,1.02-.53,1.41Zm-1.62,.15c-.86,0-1.56-.7-1.56-1.56s.7-1.56,1.56-1.56,1.56,.7,1.56,1.56-.7,1.56-1.56,1.56Zm0-2.76c-.67,0-1.21,.54-1.21,1.21s.54,1.21,1.21,1.21c.67,0,1.21-.54,1.21-1.21s-.54-1.21-1.21-1.21Z"/>
      </g>
    </g>
  </g>
</svg>